<svg width="1366" height="768" viewBox="0 0 1366 768" fill="none" xmlns="http://www.w3.org/2000/svg">
<g clip-path="url(#clip0_30_148)">
<rect width="1366" height="768" fill="white"/>
<g clip-path="url(#clip1_30_148)">
<path d="M795.174 226.368C856.377 241.455 930.39 275.22 928.255 349.217C926.832 430.397 859.935 498.647 790.193 530.257C734.683 555.401 670.633 562.585 611.565 545.343C553.209 528.101 501.258 486.434 474.926 430.397C460.693 398.787 454.288 362.148 463.54 328.383C473.503 289.588 502.681 258.697 537.553 240.736C572.424 222.058 611.565 214.873 650.707 212.718C699.1 209.845 748.204 214.155 795.174 226.368Z" fill="#CBC1B1"/>
</g>
<g clip-path="url(#clip2_30_148)">
<path d="M89.0473 484.333C80.7139 501 67.8568 516.714 51.1901 525.286C38.333 531.952 21.9044 536.714 7.61868 539.333C-9.28608 542.667 -21.4289 533.381 -31.9051 521C-44.048 507.191 -54.7623 492.429 -60.7146 474.81C-68.0956 452.191 -65.9527 432.905 -54.7623 411.714C-47.1432 397.429 -37.3813 381.714 -21.9051 375.762C-6.19084 369.81 13.8092 361.476 30.4758 360.762C48.5711 360.286 70.2377 371.952 81.9044 385.286C93.0949 397.905 97.8568 415.048 96.4282 431.952C98.0949 446 98.8092 464.572 89.0473 484.333V484.333Z" stroke="#A06442" stroke-width="0.5"/>
<path d="M24.0472 458.858C20.2377 463.381 13.3329 456.238 15.2377 451C18.0948 442.667 27.6186 449.81 24.2853 457.429L24.0472 458.858Z" stroke="#A06442" stroke-width="0.5"/>
<path d="M24.7616 464.333C21.1902 468.857 15.9521 469.333 12.6188 464.095C9.04733 458.857 8.33304 452.429 10.9521 446.476C16.9045 431.952 28.5711 444.333 29.7616 454.571C31.1902 457.429 26.4283 462.19 24.7616 464.333V464.333Z" stroke="#A06442" stroke-width="0.5"/>
<path d="M24.7615 474.095C19.5234 476.714 12.1425 475.524 7.85677 471.476C1.90439 466.238 2.38058 454.095 4.28535 446.953C6.6663 438.619 10.4758 427.191 20.7139 426.238C25.7139 425.524 32.8568 431.714 35.2377 436C39.2853 443.143 40.7139 449.334 38.0949 457.429C40.4758 461.476 28.8092 471.953 24.7615 474.095V474.095Z" stroke="#A06442" stroke-width="0.5"/>
<path d="M38.0951 477.191C28.3332 488.381 18.0951 488.381 5.23798 482.429C-9.28583 476 -8.33344 456.952 -3.80964 443.619C-1.66678 436.714 2.14274 430.048 6.66655 424.571C10.9523 419.095 18.8094 412.905 25.9523 413.143C34.5237 413.381 40.4761 419.095 44.2856 426.238C48.0951 433.381 51.6665 443.857 49.0475 451.714C50.9523 458.381 43.3332 471 38.0951 477.191V477.191Z" stroke="#A06442" stroke-width="0.5"/>
<path d="M61.1903 462.191C55.7141 468.857 51.6665 476.476 46.9046 483.857C37.3808 498.143 16.9046 500.762 1.6665 495.286C-6.90493 492.191 -13.3335 486.714 -17.6192 478.381C-24.0478 464.81 -17.8573 449.81 -13.8097 436.476C-7.85731 416.952 9.99982 395.524 32.1427 395.524C45.7141 395.524 61.1903 402.191 64.5236 416C65.9522 421.714 68.3332 427.191 69.0474 433.143C69.5236 437.667 70.7141 444.572 69.0474 449.095C69.2855 455.048 65.2379 456.952 61.1903 462.191V462.191Z" stroke="#A06442" stroke-width="0.5"/>
<path d="M68.571 476.476C61.9043 486.238 54.0472 494.572 45.9519 502.905C39.2852 509.81 32.3805 514.81 22.6186 516C10.7138 517.667 -1.90523 513.143 -10.4767 504.81C-20.0005 495.524 -30.2386 488.619 -33.0957 475.048C-35.0005 466.953 -35.7148 460.286 -35.0005 451.953C-34.0481 444.095 -30.9528 437.191 -27.8576 430.048C-20.7148 413.381 -6.90523 398.143 10.2376 392.667C15.2376 391 19.7614 389.095 25.2376 388.381C32.8567 387.429 40.9519 387.429 48.3329 389.572C56.4281 391.953 60.9519 395.048 65.9519 401.953C69.0472 406.953 70.9519 412.191 72.8567 417.429C75.2376 424.81 78.8091 431.714 79.9995 439.572C80.7138 444.81 81.19 450.286 79.5233 455.286C78.571 457.905 76.6662 459.81 75.9519 462.429C76.6662 467.191 70.4757 473.857 68.571 476.476V476.476Z" stroke="#A06442" stroke-width="0.5"/>
<path d="M88.095 449.572C88.095 453.858 88.5712 457.429 87.1426 461.715C85.2378 468.619 84.0474 476.715 79.9998 482.667C74.9998 490.286 68.3331 496.953 61.6664 502.667C56.6664 506.953 51.1902 511 46.1902 515.286C40.714 520.048 35.4759 526.238 28.5712 528.143C22.1426 530.048 16.4283 529.096 9.99976 528.619C2.8569 527.905 -3.80977 527.191 -10.7145 524.572C-16.6669 522.429 -22.6193 517.905 -28.0955 514.334C-35.0002 509.334 -42.1431 502.191 -44.286 493.619C-49.7621 473.619 -57.6193 451.715 -49.7622 431.238C-42.6193 412.429 -30.2383 398.381 -13.3336 388.143C-6.19072 383.619 1.42832 379.334 9.52356 376.715C16.1902 374.334 24.2855 370.286 31.4283 371.238C39.5236 372.429 47.8569 376 55.4759 378.143C61.4283 380.048 67.1426 381.477 72.3807 385.286C79.5236 390.762 81.4283 396.477 84.2855 404.572C86.4283 410.762 87.8569 416.953 88.8093 423.143C89.7617 428.858 91.6664 435.524 89.7617 441C90.2378 443.143 88.3331 446.477 88.095 449.572V449.572Z" stroke="#A06442" stroke-width="0.5"/>
<path d="M102.143 436.953C101.904 441.238 102.143 445.762 101.666 450.048C101.19 456.238 101.904 462.667 100.714 468.857C98.8092 476.953 95.2377 485.048 91.9044 492.905C88.333 501.476 85.2377 511.714 79.5235 519.095C74.9996 525.524 65.952 529.81 59.2854 533.143C54.5235 535.524 48.333 538.143 43.0949 539.095C39.5235 539.81 35.952 539.572 32.6187 540.524C28.333 541.953 24.5235 543.857 20.2377 545.048C16.1901 546 11.9044 546.953 7.8568 547.667C4.28537 548.381 0.713943 547.905 -3.09558 549.095C-7.61939 550.524 -13.3337 551.238 -17.8575 549.81C-28.0956 546.476 -35.0003 537.667 -40.4765 528.857C-46.667 519.333 -53.5718 509.81 -58.5718 499.572C-62.3813 491.476 -65.7146 483.381 -70.2384 475.524C-82.3813 453.857 -78.8099 426.476 -64.5241 406.476C-59.5241 399.572 -57.8575 391.953 -51.1908 386C-46.667 381.714 -40.7146 378.619 -35.0003 375.762C-28.3337 372.111 -22.0638 367.984 -16.1908 363.381C-11.9051 359.81 -5.71463 358.619 -0.714628 356.714C9.99966 352.667 17.6187 351.238 29.2854 352.667C34.2854 353.381 39.2854 353.143 44.2854 353.381C49.7616 353.857 53.5711 355.286 58.5711 357.667C65.952 361.476 73.333 365.524 79.5235 371.476C84.2854 376 91.1901 378.619 94.2854 384.572C98.5711 392.905 98.5711 402.191 99.5235 411C100.476 418.143 101.904 424.81 102.143 431.953C102.857 432.905 102.143 435.048 102.143 436.953V436.953Z" stroke="#A06442" stroke-width="0.5"/>
</g>
<g clip-path="url(#clip3_30_148)">
<path d="M390.085 -82.221C440.479 -50.2809 495.491 -2.61359 513.781 60.2009C532.998 126.478 503.085 178.119 496.128 237.628C489.776 292.322 504.118 357.94 535.008 415.505C571.888 484.15 628.034 536.856 677.052 595.335C726.071 653.815 772.422 729.904 770.552 797.915C769.715 826.741 760.198 850.864 748.671 872.231C677.19 1004.71 530.416 1046.13 380.629 1039.68C315.025 1036.84 245.334 1025.24 178.001 983.558C108.397 940.463 46.6551 867.998 -2.01489 789.324C-95.1069 638.855 -144.066 464.721 -159.022 303.426C-169.722 188.011 -163.834 75.5668 -130.277 -16.1204C-100.9 -96.5164 -46.6145 -166.752 25.5706 -192.561C77.1192 -211.018 147.32 -180.694 206.393 -164.749C267.569 -148.287 329.782 -120.464 390.085 -82.221Z" fill="#BDDFD1"/>
<g clip-path="url(#clip4_30_148)">
<path d="M405.322 1366.78C254.349 1285.05 120.937 1095.85 83.7512 910.881C72.086 852.439 68.6213 793.121 42.932 735.867C22.4139 690.225 -10.4897 650.626 -31.9706 605.271C-60.6663 544.855 -66.4306 479.428 -58.6206 424.032C-50.7076 368.771 -30.3966 321.614 -10.2881 275.159" stroke="#F5C3A7" stroke-width="3"/>
</g>
</g>
<path d="M551.145 329V303.8H560.577C562.713 303.8 564.549 304.148 566.085 304.844C567.621 305.516 568.797 306.5 569.613 307.796C570.453 309.068 570.873 310.616 570.873 312.44C570.873 314.216 570.453 315.752 569.613 317.048C568.797 318.32 567.621 319.304 566.085 320C564.549 320.696 562.713 321.044 560.577 321.044H552.621L553.809 319.784V329H551.145ZM553.809 320L552.621 318.704H560.505C563.025 318.704 564.933 318.164 566.229 317.084C567.549 315.98 568.209 314.432 568.209 312.44C568.209 310.424 567.549 308.864 566.229 307.76C564.933 306.656 563.025 306.104 560.505 306.104H552.621L553.809 304.844V320ZM587.762 329V324.824L587.654 324.14V317.156C587.654 315.548 587.198 314.312 586.286 313.448C585.398 312.584 584.066 312.152 582.29 312.152C581.066 312.152 579.902 312.356 578.798 312.764C577.694 313.172 576.758 313.712 575.99 314.384L574.838 312.476C575.798 311.66 576.95 311.036 578.294 310.604C579.638 310.148 581.054 309.92 582.542 309.92C584.99 309.92 586.874 310.532 588.194 311.756C589.538 312.956 590.21 314.792 590.21 317.264V329H587.762ZM581.246 329.18C579.83 329.18 578.594 328.952 577.538 328.496C576.506 328.016 575.714 327.368 575.162 326.552C574.61 325.712 574.334 324.752 574.334 323.672C574.334 322.688 574.562 321.8 575.018 321.008C575.498 320.192 576.266 319.544 577.322 319.064C578.402 318.56 579.842 318.308 581.642 318.308H588.158V320.216H581.714C579.89 320.216 578.618 320.54 577.898 321.188C577.202 321.836 576.854 322.64 576.854 323.6C576.854 324.68 577.274 325.544 578.114 326.192C578.954 326.84 580.13 327.164 581.642 327.164C583.082 327.164 584.318 326.84 585.35 326.192C586.406 325.52 587.174 324.56 587.654 323.312L588.23 325.076C587.75 326.324 586.91 327.32 585.71 328.064C584.534 328.808 583.046 329.18 581.246 329.18ZM605.216 336.164C603.488 336.164 601.832 335.912 600.248 335.408C598.664 334.904 597.38 334.184 596.396 333.248L597.692 331.304C598.58 332.096 599.672 332.72 600.968 333.176C602.288 333.656 603.68 333.896 605.144 333.896C607.544 333.896 609.308 333.332 610.436 332.204C611.564 331.1 612.128 329.372 612.128 327.02V322.304L612.488 319.064L612.236 315.824V310.1H614.684V326.696C614.684 329.96 613.88 332.348 612.272 333.86C610.688 335.396 608.336 336.164 605.216 336.164ZM604.748 328.28C602.948 328.28 601.328 327.896 599.888 327.128C598.448 326.336 597.308 325.244 596.468 323.852C595.652 322.46 595.244 320.864 595.244 319.064C595.244 317.264 595.652 315.68 596.468 314.312C597.308 312.92 598.448 311.84 599.888 311.072C601.328 310.304 602.948 309.92 604.748 309.92C606.428 309.92 607.94 310.268 609.284 310.964C610.628 311.66 611.696 312.692 612.488 314.06C613.28 315.428 613.676 317.096 613.676 319.064C613.676 321.032 613.28 322.7 612.488 324.068C611.696 325.436 610.628 326.48 609.284 327.2C607.94 327.92 606.428 328.28 604.748 328.28ZM605 326.012C606.392 326.012 607.628 325.724 608.708 325.148C609.788 324.548 610.64 323.732 611.264 322.7C611.888 321.644 612.2 320.432 612.2 319.064C612.2 317.696 611.888 316.496 611.264 315.464C610.64 314.432 609.788 313.628 608.708 313.052C607.628 312.452 606.392 312.152 605 312.152C603.632 312.152 602.396 312.452 601.292 313.052C600.212 313.628 599.36 314.432 598.736 315.464C598.136 316.496 597.836 317.696 597.836 319.064C597.836 320.432 598.136 321.644 598.736 322.7C599.36 323.732 600.212 324.548 601.292 325.148C602.396 325.724 603.632 326.012 605 326.012ZM629.824 329.18C627.856 329.18 626.128 328.772 624.64 327.956C623.152 327.116 621.988 325.976 621.148 324.536C620.308 323.072 619.888 321.404 619.888 319.532C619.888 317.66 620.284 316.004 621.076 314.564C621.892 313.124 622.996 311.996 624.388 311.18C625.804 310.34 627.388 309.92 629.14 309.92C630.916 309.92 632.488 310.328 633.856 311.144C635.248 311.936 636.34 313.064 637.132 314.528C637.924 315.968 638.32 317.636 638.32 319.532C638.32 319.652 638.308 319.784 638.284 319.928C638.284 320.048 638.284 320.18 638.284 320.324H621.832V318.416H636.916L635.908 319.172C635.908 317.804 635.608 316.592 635.008 315.536C634.432 314.456 633.64 313.616 632.632 313.016C631.624 312.416 630.46 312.116 629.14 312.116C627.844 312.116 626.68 312.416 625.648 313.016C624.616 313.616 623.812 314.456 623.236 315.536C622.66 316.616 622.372 317.852 622.372 319.244V319.64C622.372 321.08 622.684 322.352 623.308 323.456C623.956 324.536 624.844 325.388 625.972 326.012C627.124 326.612 628.432 326.912 629.896 326.912C631.048 326.912 632.116 326.708 633.1 326.3C634.108 325.892 634.972 325.268 635.692 324.428L637.132 326.084C636.292 327.092 635.236 327.86 633.964 328.388C632.716 328.916 631.336 329.18 629.824 329.18ZM662.593 309.92C664.129 309.92 665.473 310.22 666.625 310.82C667.801 311.396 668.713 312.284 669.361 313.484C670.033 314.684 670.369 316.196 670.369 318.02V329H667.813V318.272C667.813 316.28 667.309 314.78 666.301 313.772C665.317 312.74 663.925 312.224 662.125 312.224C660.781 312.224 659.605 312.5 658.597 313.052C657.613 313.58 656.845 314.36 656.293 315.392C655.765 316.4 655.501 317.624 655.501 319.064V329H652.945V310.1H655.393V315.284L654.997 314.312C655.597 312.944 656.557 311.876 657.877 311.108C659.197 310.316 660.769 309.92 662.593 309.92ZM684.977 329.18C683.153 329.18 681.509 328.772 680.045 327.956C678.605 327.116 677.465 325.976 676.625 324.536C675.785 323.072 675.365 321.404 675.365 319.532C675.365 317.636 675.785 315.968 676.625 314.528C677.465 313.088 678.605 311.96 680.045 311.144C681.485 310.328 683.129 309.92 684.977 309.92C686.849 309.92 688.505 310.328 689.945 311.144C691.409 311.96 692.549 313.088 693.365 314.528C694.205 315.968 694.625 317.636 694.625 319.532C694.625 321.404 694.205 323.072 693.365 324.536C692.549 325.976 691.409 327.116 689.945 327.956C688.481 328.772 686.825 329.18 684.977 329.18ZM684.977 326.912C686.345 326.912 687.557 326.612 688.613 326.012C689.669 325.388 690.497 324.524 691.097 323.42C691.721 322.292 692.033 320.996 692.033 319.532C692.033 318.044 691.721 316.748 691.097 315.644C690.497 314.54 689.669 313.688 688.613 313.088C687.557 312.464 686.357 312.152 685.013 312.152C683.669 312.152 682.469 312.464 681.413 313.088C680.357 313.688 679.517 314.54 678.893 315.644C678.269 316.748 677.957 318.044 677.957 319.532C677.957 320.996 678.269 322.292 678.893 323.42C679.517 324.524 680.357 325.388 681.413 326.012C682.469 326.612 683.657 326.912 684.977 326.912ZM705.819 329.18C704.043 329.18 702.675 328.7 701.715 327.74C700.755 326.78 700.275 325.424 700.275 323.672V305.924H702.831V323.528C702.831 324.632 703.107 325.484 703.659 326.084C704.235 326.684 705.051 326.984 706.107 326.984C707.235 326.984 708.171 326.66 708.915 326.012L709.815 327.848C709.311 328.304 708.699 328.64 707.979 328.856C707.283 329.072 706.563 329.18 705.819 329.18ZM696.891 312.224V310.1H708.591V312.224H696.891ZM726.806 316.004H740.126V318.308H726.806V316.004ZM727.094 329H724.43V303.8H741.71V306.104H727.094V329ZM753.743 329.18C751.919 329.18 750.275 328.772 748.811 327.956C747.371 327.116 746.231 325.976 745.391 324.536C744.551 323.072 744.131 321.404 744.131 319.532C744.131 317.636 744.551 315.968 745.391 314.528C746.231 313.088 747.371 311.96 748.811 311.144C750.251 310.328 751.895 309.92 753.743 309.92C755.615 309.92 757.271 310.328 758.711 311.144C760.175 311.96 761.315 313.088 762.131 314.528C762.971 315.968 763.391 317.636 763.391 319.532C763.391 321.404 762.971 323.072 762.131 324.536C761.315 325.976 760.175 327.116 758.711 327.956C757.247 328.772 755.591 329.18 753.743 329.18ZM753.743 326.912C755.111 326.912 756.323 326.612 757.379 326.012C758.435 325.388 759.263 324.524 759.863 323.42C760.487 322.292 760.799 320.996 760.799 319.532C760.799 318.044 760.487 316.748 759.863 315.644C759.263 314.54 758.435 313.688 757.379 313.088C756.323 312.464 755.123 312.152 753.779 312.152C752.435 312.152 751.235 312.464 750.179 313.088C749.123 313.688 748.283 314.54 747.659 315.644C747.035 316.748 746.723 318.044 746.723 319.532C746.723 320.996 747.035 322.292 747.659 323.42C748.283 324.524 749.123 325.388 750.179 326.012C751.235 326.612 752.423 326.912 753.743 326.912ZM776.421 329.18C774.813 329.18 773.409 328.88 772.209 328.28C771.009 327.68 770.073 326.78 769.401 325.58C768.753 324.38 768.429 322.88 768.429 321.08V310.1H770.985V320.792C770.985 322.808 771.477 324.332 772.461 325.364C773.469 326.372 774.873 326.876 776.673 326.876C777.993 326.876 779.133 326.612 780.093 326.084C781.077 325.532 781.821 324.74 782.325 323.708C782.853 322.676 783.117 321.44 783.117 320V310.1H785.673V329H783.225V323.816L783.621 324.752C783.021 326.144 782.085 327.236 780.813 328.028C779.565 328.796 778.101 329.18 776.421 329.18ZM802.444 309.92C803.98 309.92 805.324 310.22 806.476 310.82C807.652 311.396 808.564 312.284 809.212 313.484C809.884 314.684 810.22 316.196 810.22 318.02V329H807.664V318.272C807.664 316.28 807.16 314.78 806.152 313.772C805.168 312.74 803.776 312.224 801.976 312.224C800.632 312.224 799.456 312.5 798.448 313.052C797.464 313.58 796.696 314.36 796.144 315.392C795.616 316.4 795.352 317.624 795.352 319.064V329H792.796V310.1H795.244V315.284L794.848 314.312C795.448 312.944 796.408 311.876 797.728 311.108C799.048 310.316 800.62 309.92 802.444 309.92ZM824.649 329.18C822.849 329.18 821.229 328.772 819.789 327.956C818.373 327.14 817.257 326.012 816.441 324.572C815.625 323.108 815.217 321.428 815.217 319.532C815.217 317.612 815.625 315.932 816.441 314.492C817.257 313.052 818.373 311.936 819.789 311.144C821.229 310.328 822.849 309.92 824.649 309.92C826.305 309.92 827.781 310.292 829.077 311.036C830.397 311.78 831.441 312.872 832.209 314.312C833.001 315.728 833.397 317.468 833.397 319.532C833.397 321.572 833.013 323.312 832.245 324.752C831.477 326.192 830.433 327.296 829.113 328.064C827.817 328.808 826.329 329.18 824.649 329.18ZM824.829 326.912C826.173 326.912 827.373 326.612 828.429 326.012C829.509 325.388 830.349 324.524 830.949 323.42C831.573 322.292 831.885 320.996 831.885 319.532C831.885 318.044 831.573 316.748 830.949 315.644C830.349 314.54 829.509 313.688 828.429 313.088C827.373 312.464 826.173 312.152 824.829 312.152C823.509 312.152 822.321 312.464 821.265 313.088C820.209 313.688 819.369 314.54 818.745 315.644C818.121 316.748 817.809 318.044 817.809 319.532C817.809 320.996 818.121 322.292 818.745 323.42C819.369 324.524 820.209 325.388 821.265 326.012C822.321 326.612 823.509 326.912 824.829 326.912ZM831.957 329V323.312L832.209 319.496L831.849 315.68V302.288H834.405V329H831.957ZM620.253 425V423.176H629.277V407.816H603.261V405.992L630.333 357.8H646.941V405.512H656.445V397.16H658.269V414.92H656.445V407.816H646.941V423.176H653.565V425H620.253ZM606.333 405.512H629.277V365.096L606.333 405.512ZM691.921 425.96C682.641 425.96 675.569 422.824 670.705 416.552C665.905 410.28 663.505 401.512 663.505 390.248C663.505 378.984 666.097 370.6 671.281 365.096C676.465 359.528 683.537 356.744 692.497 356.744C701.521 356.744 708.593 359.496 713.713 365C718.897 370.504 721.489 379.272 721.489 391.304C721.489 403.336 718.897 412.136 713.713 417.704C708.529 423.208 701.265 425.96 691.921 425.96ZM683.185 387.752V396.296C683.185 402.504 683.217 406.888 683.281 409.448C683.409 412.008 683.761 414.664 684.337 417.416C684.913 420.168 685.841 421.96 687.121 422.792C688.401 423.56 689.905 423.944 691.633 423.944C693.361 423.944 694.641 423.848 695.473 423.656C696.369 423.464 697.137 423.08 697.777 422.504C698.481 421.864 699.057 421.256 699.505 420.68C699.953 420.04 700.305 419.08 700.561 417.8C700.881 416.52 701.137 415.336 701.329 414.248C701.521 413.16 701.649 411.56 701.713 409.448C701.841 405.352 701.905 401.224 701.905 397.064V388.616C701.905 376.072 701.425 367.976 700.465 364.328C699.569 360.616 696.945 358.76 692.593 358.76C688.241 358.76 685.585 360.648 684.625 364.424C683.665 368.2 683.185 375.976 683.185 387.752ZM741.847 425V423.176H750.871V407.816H724.855V405.992L751.927 357.8H768.535V405.512H778.039V397.16H779.863V414.92H778.039V407.816H768.535V423.176H775.159V425H741.847ZM727.927 405.512H750.871V365.096L727.927 405.512Z" fill="#57504B"/>
<g clip-path="url(#clip5_30_148)">
<path d="M348.602 -29.4037C391.493 12.0685 435.728 69.8773 440.936 135.093C446.35 203.887 406.611 248.41 387.762 305.283C370.478 357.562 371.253 424.724 389.862 487.347C412.095 562.033 456.421 625.005 492.599 692.19C528.776 759.375 558.78 843.267 543.193 909.493C536.543 937.554 522.344 959.255 506.733 977.849C409.935 1093.13 257.816 1104.01 112.429 1067.4C48.7569 1051.35 -17.1473 1025.89 -74.6591 971.453C-134.109 915.171 -179.918 831.716 -211.67 744.824C-272.405 578.637 -285.132 398.199 -267.156 237.213C-254.291 122.02 -225.783 13.0897 -174.375 -69.9154C-129.345 -142.708 -61.9758 -200.513 13.9375 -211.189C68.1538 -218.838 130.77 -174.942 185.397 -147.379C241.98 -118.884 297.28 -79.0531 348.602 -29.4037Z" fill="#A8CABC"/>
<path fill-rule="evenodd" clip-rule="evenodd" d="M53.4887 679.501C18.0976 675.505 -17.2663 663.257 -36.3102 632.164C-55.2697 600.494 -64.6392 563.738 -63.9394 526.686C-64.1791 524.291 -60.5458 523.643 -59.1512 526.206C-45.3041 556.539 -26.4154 584.661 -2.89388 609.332C16.0219 629.2 37.0922 646.436 53.2762 668.854C53.0219 662.526 53.1527 656.254 53.6683 650.039C54.0714 644.593 54.6106 639.561 55.2861 634.942C23.9068 615.609 -4.89587 590.756 -22.3628 556.945C-35.7306 531.4 -48.7907 487.617 -31.2887 460.689C-30.458 459.041 -28.1483 459.379 -27.2468 461.28C-11.6674 491.866 3.91206 522.453 20.7307 552.631C33.7744 576.359 49.381 598.693 57.4677 624.055C61.4795 608.718 67.7166 594.297 75.1085 580.044C74.1225 578.72 74.2914 577.565 74.9532 577.072C48.8144 570.301 38.1784 542.207 28.5992 518.985C15.5691 491.131 5.75022 465.515 9.15462 434.166C9.49234 431.856 12.5483 431.123 13.4498 433.024C26.902 457.992 39.115 483.368 55.2146 506.364C68.3563 525.388 77.2028 545.554 81.6697 567.439C82.7773 565.242 83.8849 563.045 84.9925 560.847C88.644 554.697 92.2955 548.547 95.9469 542.397C60.9887 507.208 38.69 462.075 31.1779 412.616C30.8538 410.799 33.9942 409.489 34.9801 410.813C54.1628 424.823 69.7695 447.157 79.0245 468.562C88.857 490.052 99.9287 511.133 100.016 534.736C105.493 525.511 109.816 516.117 113.561 506.639C98.7303 499.162 91.1094 482.714 83.1508 468.576C72.3188 449.889 62.1486 430.709 53.8795 410.628C52.978 408.727 55.7098 406.177 57.1887 408.163C71.9918 423.892 85.4713 440.607 98.2888 457.815C106.008 469.559 114.881 481.472 117.643 494.851C118.31 492.982 118.976 491.114 119.642 489.245C119.699 488.86 119.755 488.475 119.811 488.091C120.421 486.607 120.839 485.095 121.064 483.556C120.735 483.114 120.792 482.729 121.233 482.401C121.346 481.631 121.486 480.669 121.655 479.514C121.27 479.457 121.078 479.429 121.078 479.429C97.5425 458.885 74.8925 420.188 78.4658 387.684C78.719 385.951 81.1976 385.134 82.1835 386.458C104.311 408.566 127.494 435.546 127.554 467.402C127.883 467.843 127.991 468.448 127.879 469.218C127.813 472.354 127.527 475.654 127.021 479.119C139.947 463.316 154.592 451.893 173.687 442.3C194.684 431.806 217.426 417.439 241.043 413.225C242.86 412.901 244.254 415.464 242.846 417.027C226.357 437.027 208.629 457.435 186.549 471.31C177.452 477.057 167.369 481.48 157.37 485.326C146.048 490.158 137.964 488.976 126.247 488.442C126.247 488.442 126.055 488.414 125.67 488.357C125.229 488.686 124.98 489.043 124.924 489.428C123.309 495.089 121.531 500.53 119.588 505.751C119.532 506.136 119.504 506.328 119.504 506.328C134.064 495.482 153.794 493.649 171.144 487.93C181.058 484.661 191.873 483.294 201.788 480.025C211.786 476.18 221.376 471.094 231.783 468.488C234.262 467.671 236.065 471.473 234.079 472.952C212.984 488.15 192.538 506.981 167.753 515.152C152.797 520.632 129.674 525.508 115.012 516.877C111.633 523.853 108.062 530.801 104.298 537.721C126.689 529.79 148.742 524.168 172.274 520.532C200.595 516.416 227.139 500.246 251.698 485.554C254.261 484.16 256.726 487.469 254.079 489.441C228.915 512.3 200.766 539.442 168.785 552.458C149.943 560.319 114.863 562.266 100.313 544.805C94.7513 554.608 89.2741 563.833 83.7969 573.058C97.6684 570.958 110.23 565.717 123.693 562.378C136.41 560.109 149.113 561.967 162.238 560.937C196.248 558.243 225.609 538.946 253.646 520.635C255.631 519.156 258.181 521.888 256.688 524.028C245.494 540.084 239.004 556.238 223.528 569.309C208.799 581.31 190.534 589.255 171.452 594.721C140.062 603.696 103.573 607.207 78.7282 583.522C70.7589 597.69 64.4374 612.689 61.4115 629.35C62.5664 629.519 63.7212 629.688 64.876 629.857C101.509 615.948 138.63 604.076 176.24 594.242C206.968 585.76 242.329 573.828 273.989 583.175C276.214 584.09 276.37 587.062 273.891 587.879C237.108 605.501 199.735 627.165 158.937 635.944C127.801 643.186 96.0291 642.669 64.6936 635.138C63.8674 635.41 62.8487 635.654 61.6376 635.87C61.1964 636.199 60.619 636.115 59.9054 635.617C59.7928 636.387 59.6802 637.157 59.5677 637.927C58.4329 648.377 57.683 658.883 57.3181 669.445C82.8767 651.951 113.507 648.173 143.391 645.465C179.302 641.87 213.41 634.472 245.729 619.146C247.63 618.245 249.602 620.892 248.771 622.54C241.788 638.032 221.115 650.343 207.879 660.203C191.332 672.527 173.054 684.599 153.635 692.375C136.201 698.672 119.948 696.885 102.626 694.352C86.5429 691.411 71.1216 687.976 57.6995 678.937C59.7071 745.873 88.303 808.441 133.529 858.106C135.586 860.176 132.601 864.458 130.629 861.81C104.149 833.169 81.8098 800.414 68.3984 763.067C59.2413 736.959 54.0554 707.892 53.4887 679.501ZM157.553 480.045C168.129 476.283 178.296 471.283 187.477 464.958C205.756 452.887 220.583 436.183 234.833 419.394C215.836 424.283 196.403 436.186 179.208 444.877C158.874 454.878 142.989 466.71 129.317 483.583C139.302 483.863 147.47 484.468 157.553 480.045ZM122.415 474.317C125.904 442.39 104.452 415.663 82.9026 393.64C82.23 422.44 102.175 455.434 122.415 474.317ZM91.3599 456.801C82.8711 444.945 73.913 433.609 64.4855 422.794C70.2188 436.017 77.1914 448.832 84.7414 461.731C92.1226 475.785 100.152 493.473 114.32 501.442C112.065 484.599 101.22 470.038 91.3599 456.801ZM180.497 504.631C193.973 497.165 206.549 487.799 219.124 478.432C214.993 479.794 211.026 481.376 207.224 483.179C198.465 486.617 188.888 487.575 180.214 490.435C171.046 492.633 161.709 495.986 152.541 498.184C140.233 501.692 128.094 504.046 118.49 513.257C135.954 522.888 165.119 512.998 180.497 504.631ZM142.873 552.208C159.547 551.107 172.108 545.867 186.416 536.754C202.624 526.739 217.931 514.823 232.167 502.16C216.043 511.598 199.426 520.374 181.837 523.699C169.036 526.545 156.573 527.082 143.771 529.928C130.308 533.268 117.254 537.846 104.693 543.086C113.904 552.69 129.832 552.66 142.873 552.208ZM95.2278 535.215C94.8873 513.344 84.8015 493.587 76.448 474.083C67.6015 453.917 54.1356 433.076 36.854 418.164C44.5486 462.342 64.6357 502.434 95.2278 535.215ZM45.9051 501.464C33.2564 483.101 23.8325 462.851 13.1693 443.009C12.6792 466.528 19.6246 487.595 29.3726 509.662C39.5292 532.968 49.3209 566.837 77.9383 572.791C73.0765 545.541 60.8499 524.291 45.9051 501.464ZM178.408 587.482C195.758 581.762 212.952 573.071 226.611 560.324C235.553 551.605 240.622 541.141 246.845 530.846C223.441 545.706 198.882 560.397 170.561 564.513C154.789 567.515 138.79 563.996 123.51 567.659C108.808 571.407 95.6693 576.563 81.2203 578.578C81.2203 578.578 80.9997 578.743 80.5585 579.071C106.967 604.164 146.188 598.104 178.408 587.482ZM165.147 629.774C200.17 620.152 233.489 602.023 266.469 586.204C234.387 579.743 199.435 592.915 169.369 600.904C136.988 609.93 105.016 620.196 73.4528 631.7C103.225 637.823 135.081 637.763 165.147 629.774ZM53.9051 628.252C45.1703 599.257 26.5213 573.529 12.0831 547.238C-2.35506 520.947 -16.1314 494.162 -29.3303 467.462C-35.3141 480.152 -34.2137 496.826 -32.6067 510.036C-29.774 526.963 -23.9698 543.735 -16.0957 558.451C0.230026 587.967 25.8215 610.582 53.9051 628.252ZM-12.9496 605.502C-31.2036 585.14 -46.7258 562.229 -59.0232 537.43C-57.6394 568.3 -49.6508 598.366 -34.7196 625.32C-24.8735 642.683 -12.9439 653.863 5.35087 661.846C20.35 668.168 35.6869 672.18 51.2771 674.459C33.8674 648.323 8.34671 629.258 -12.9496 605.502ZM103.386 689.156C121.779 692.435 138.115 693.644 156.38 685.699C172.744 678.656 188.459 667.979 203.02 657.133C210.023 652.26 216.89 646.973 223.621 641.273C229 636.752 235.534 632.4 240.421 627.217C213.589 638.627 185.588 645.935 156.418 649.14C122.901 652.495 87.3272 653.781 58.9523 674.402C72.3745 683.442 87.7958 686.876 103.386 689.156Z" fill="#4C886A"/>
<path fill-rule="evenodd" clip-rule="evenodd" d="M421.685 778.944C388.194 791.062 351.067 795.772 320.206 776.353C289.166 756.38 264.464 727.594 248.655 694.077C247.378 692.037 250.347 689.845 252.734 691.523C278.599 712.566 308.002 729.39 340.027 741.067C365.793 750.483 392.322 756.583 416.772 769.496C413.737 763.938 411.072 758.259 408.777 752.46C406.722 747.4 404.973 742.651 403.53 738.212C366.831 734.805 329.993 725.307 299.34 702.753C276.028 685.789 244.901 652.343 248.642 620.445C248.655 618.599 250.875 617.877 252.526 619.181C280.057 639.683 307.588 660.185 336.048 679.77C358.264 695.25 382.158 708.344 400.656 727.487C397.448 711.962 396.641 696.27 396.943 680.217C395.472 679.468 395.111 678.358 395.486 677.623C369.056 683.15 347.061 662.689 328.175 646.126C304.141 626.942 283.978 608.34 273.123 578.734C272.401 576.514 274.815 574.502 276.466 575.805C299.598 592.215 321.8 609.54 346.43 623.008C366.647 634.229 383.521 648.378 397.232 666.01C397.25 663.549 397.268 661.089 397.286 658.629C397.83 651.497 398.375 644.365 398.919 637.234C351.979 621.203 311.974 590.645 283.302 549.651C282.205 548.166 284.439 545.599 285.909 546.348C309.316 550.395 333.211 563.489 351 578.567C369.345 593.465 388.619 607.447 399.168 628.562C399.984 617.865 399.691 607.528 398.843 597.372C382.235 597.251 368.109 585.89 354.704 576.749C336.707 564.806 319.084 552.128 302.765 537.799C301.114 536.495 302.432 532.998 304.638 534.122C324.882 541.652 344.377 550.653 363.498 560.389C375.626 567.491 388.863 574.232 397.273 584.997C397.041 583.027 396.81 581.056 396.578 579.086C396.458 578.716 396.337 578.346 396.217 577.976C396.106 576.376 395.81 574.836 395.328 573.356C394.838 573.107 394.718 572.737 394.967 572.246C394.727 571.506 394.426 570.582 394.065 569.472C393.695 569.592 393.51 569.652 393.51 569.652C363.304 561.68 325.839 537.045 314.622 506.329C314.081 504.664 315.94 502.833 317.411 503.582C347.048 513.58 379.795 527.476 393.979 556C394.47 556.249 394.835 556.744 395.076 557.484C396.408 560.323 397.616 563.408 398.699 566.738C403.274 546.841 411.332 530.107 424.19 513.039C438.353 494.32 452.362 471.355 471.659 457.102C473.143 456.006 475.53 457.684 474.962 459.71C469.056 484.949 462.22 511.103 448.585 533.333C442.982 542.519 435.907 550.956 428.652 558.838C420.648 568.191 412.879 570.717 402.141 575.436C402.141 575.436 401.956 575.496 401.586 575.617C401.337 576.107 401.272 576.537 401.392 576.907C402.457 582.697 403.277 588.362 403.851 593.903C403.971 594.273 404.031 594.458 404.031 594.458C412.27 578.279 429.14 567.884 442.152 555.061C449.587 547.734 458.674 541.711 466.109 534.384C473.364 526.502 479.703 517.691 487.874 510.738C489.733 508.906 493.035 511.514 491.912 513.72C479.748 536.699 469.777 562.646 451.188 580.963C440.216 592.509 421.654 607.136 404.686 605.904C404.752 613.655 404.633 621.467 404.329 629.338C420.878 612.297 438.149 597.476 457.627 583.779C481.183 567.528 497.8 541.26 513.293 517.199C514.972 514.812 518.649 516.685 517.151 519.627C504.739 551.276 491.551 588.088 468.662 613.94C455.262 629.343 424.686 646.65 403.9 637.455C403.264 648.707 402.447 659.405 401.631 670.102C413.131 662.067 422.065 651.798 432.649 642.833C443.04 635.159 455.249 631.188 466.555 624.443C495.841 606.942 513.595 576.624 530.6 547.775C531.724 545.569 535.22 546.887 534.832 549.467C531.922 568.823 533.271 586.18 525.199 604.759C517.322 622.048 504.476 637.271 489.8 650.634C465.648 672.602 434.503 691.935 401.73 681.729C400.873 697.962 401.861 714.209 406.539 730.483C407.649 730.122 408.759 729.761 409.869 729.4C436.53 700.684 464.534 673.578 493.878 648.081C517.655 626.848 544.054 600.468 576.575 594.802C578.975 594.635 580.432 597.229 578.573 599.061C553.425 631.171 529.539 667.166 496.869 693.131C472.176 713.433 443.472 727.063 412.048 734.214C411.428 734.825 410.624 735.495 409.634 736.226C409.385 736.717 408.83 736.897 407.969 736.768C408.21 737.508 408.451 738.248 408.691 738.988C412.31 748.856 416.298 758.605 420.656 768.233C435.802 741.217 461.578 724.243 487.16 708.561C517.75 689.409 545.037 667.648 567.203 639.576C568.507 637.925 571.449 639.423 571.435 641.268C572.049 658.251 558.983 678.454 551.493 693.163C542.131 711.548 531.104 730.475 517.149 746.058C504.318 759.435 488.96 765.043 472.311 770.457C456.592 774.956 441.248 778.718 425.209 776.571C456.7 835.67 510.083 879.06 572.647 903.51C575.409 904.453 574.633 909.614 571.691 908.116C535.254 894.193 500.703 874.747 472.117 847.225C452.328 827.888 434.787 804.138 421.685 778.944ZM426.473 554.024C434.283 545.961 441.177 536.969 446.6 527.228C457.627 508.302 463.506 486.754 468.83 465.386C453.973 478.195 441.836 497.482 430.281 512.899C416.493 530.883 407.506 548.533 402.737 569.72C411.81 565.542 419.399 562.461 426.473 554.024ZM392.441 564.477C381.405 534.316 350.324 519.878 321.241 509.699C333.414 535.809 365.925 556.532 392.441 564.477ZM356.839 562.555C343.971 555.694 330.914 549.508 317.668 543.998C328.672 553.306 340.605 561.698 353.094 569.909C365.943 579.23 380.985 591.521 397.219 592.378C387.726 578.283 371.547 570.045 356.839 562.555ZM457.943 565.881C466.709 553.212 473.824 539.239 480.939 525.266C477.841 528.319 474.988 531.497 472.38 534.799C466.055 541.765 457.898 546.873 451.392 553.284C444.15 559.321 437.27 566.467 430.028 572.504C420.554 581.108 410.718 588.602 406.197 601.117C426.121 602.002 447.872 580.201 457.943 565.881ZM445.327 625.21C459.783 616.828 468.716 606.559 477.496 592.045C487.58 575.879 496.013 558.409 503.155 540.746C492.891 556.357 481.891 571.593 467.602 582.376C457.392 590.605 446.46 596.615 436.25 604.844C425.665 613.809 415.996 623.703 407.063 633.972C419.579 638.493 433.84 631.4 445.327 625.21ZM395.089 631.116C385.082 611.666 367.279 598.433 351.14 584.658C334.266 570.509 312.953 557.804 290.85 552.105C317.343 588.285 353.13 615.306 395.089 631.116ZM335.913 622.746C316.431 611.9 299.002 597.931 280.644 584.879C290.637 606.174 306.207 621.974 324.732 637.427C344.174 653.81 367.973 679.82 396.262 672.462C379.816 650.196 359.432 636.575 335.913 622.746ZM492.823 641.06C505.835 628.238 517.389 612.821 523.977 595.338C528.123 583.558 528.024 571.931 529.034 559.944C514.651 583.644 499.157 607.705 475.601 623.956C462.797 633.643 446.897 637.586 434.828 647.647C423.314 657.528 413.826 667.977 401.771 676.193C401.771 676.193 401.646 676.438 401.396 676.928C436.195 687.703 468.657 664.873 492.823 641.06ZM499.698 684.847C526.819 660.687 548.638 629.659 571.179 600.852C539.56 609.293 514.077 636.603 490.675 657.1C465.659 679.553 441.558 702.936 418.373 727.248C447.772 719.529 476.296 705.344 499.698 684.847ZM399.325 732.829C378.634 710.717 350.508 695.931 325.905 678.773C301.303 661.615 277.075 643.721 253.402 625.647C253.668 639.674 262.051 654.13 269.35 665.256C279.398 679.17 292.04 691.627 305.625 701.323C333.349 720.534 366.317 729.449 399.325 732.829ZM329.316 742.096C303.924 731.944 279.849 718.296 257.827 701.526C272.761 728.578 293.258 751.981 318.596 769.514C335.122 780.707 350.773 785.436 370.711 784.475C386.958 783.487 402.483 780.279 417.466 775.407C390.27 759.705 358.94 753.939 329.316 742.096ZM470.687 765.463C488.626 760.243 503.803 754.08 516.649 738.857C528.19 725.286 537.538 708.746 545.777 692.567C549.892 685.092 553.701 677.308 557.205 669.214C560.021 662.776 563.946 655.977 566.026 649.164C547.04 671.292 525.187 690.263 500.465 706.075C471.915 723.95 440.603 740.883 424.32 771.951C440.359 774.098 455.704 770.336 470.687 765.463Z" fill="#4C886A"/>
<path fill-rule="evenodd" clip-rule="evenodd" d="M34.4454 110.781C34.4285 75.1651 42.6148 38.6465 71.3647 16.2212C100.698 -6.1853 136.164 -19.6357 173.059 -23.1144C175.411 -23.6222 176.465 -20.085 174.075 -18.4107C145.495 -1.2346 119.68 20.7017 97.8162 46.8527C80.2047 67.8864 65.4528 90.764 45.0004 109.37C51.2594 108.405 57.5059 107.828 63.7398 107.641C69.196 107.428 74.2571 107.397 78.9231 107.547C94.5974 74.19 116.048 42.7709 147.676 21.6064C171.553 5.44599 213.585 -12.4631 242.314 1.89395C244.045 2.53374 243.97 4.86674 242.182 5.9767C213.546 24.9025 184.909 43.8284 156.818 63.9395C134.71 79.5732 114.276 97.5964 89.986 108.489C105.677 110.747 120.71 115.32 135.705 121.059C136.909 119.93 138.075 119.968 138.64 120.57C142.423 93.835 169.14 80.1019 191.135 67.9677C217.345 51.8828 241.691 39.2408 273.224 39.092C275.557 39.1674 276.63 42.1213 274.842 43.2313C251.549 59.4105 227.71 74.4043 206.675 92.9919C189.251 108.193 170.211 119.255 148.969 126.159C151.276 127.012 153.584 127.865 155.892 128.718C162.414 131.653 168.937 134.589 175.459 137.524C206.486 98.8244 248.82 71.5833 297.118 58.5475C298.886 58.0208 300.542 60.9936 299.338 62.1224C287.578 82.7613 267.144 100.784 246.918 112.392C226.673 124.583 206.973 137.959 183.53 140.704C193.313 145.107 203.134 148.344 212.974 150.997C218.732 135.419 234.217 125.994 247.369 116.494C264.717 103.625 282.629 91.3593 301.651 80.8806C303.438 79.7707 306.279 82.1979 304.473 83.8911C290.512 100.372 275.422 115.648 259.767 130.323C248.967 139.316 238.129 149.475 225.147 153.726C227.079 154.178 229.01 154.63 230.942 155.081C231.331 155.094 231.719 155.106 232.108 155.119C233.651 155.558 235.2 155.803 236.755 155.853C237.157 155.477 237.546 155.489 237.922 155.891C238.7 155.916 239.672 155.947 240.838 155.985C240.851 155.596 240.857 155.402 240.857 155.402C258.619 129.702 294.519 102.837 327.219 102.726C328.968 102.782 330.06 105.153 328.855 106.282C309.381 130.758 285.184 156.834 253.538 160.482C253.136 160.858 252.547 161.034 251.769 161.009C248.646 161.297 245.335 161.385 241.835 161.272C258.993 172.336 271.993 185.601 283.676 203.494C296.469 223.175 313.307 244.154 320.154 267.145C320.681 268.914 318.291 270.588 316.579 269.365C294.849 255.234 272.574 239.918 256.3 219.541C249.565 211.15 244.034 201.629 239.086 192.127C233.01 181.422 233.274 173.256 232.484 161.553C232.484 161.553 232.491 161.359 232.503 160.97C232.127 160.569 231.744 160.362 231.355 160.349C225.548 159.383 219.941 158.229 214.535 156.886C214.147 156.874 213.952 156.868 213.952 156.868C226.369 170.114 230.413 189.512 238.051 206.107C242.415 215.589 244.992 226.182 249.357 235.665C254.304 245.166 260.438 254.122 264.2 264.17C265.291 266.54 261.716 268.76 260.023 266.954C242.545 247.706 221.53 229.511 210.619 205.804C203.489 191.561 196.04 169.134 202.965 153.593C195.652 151.022 188.346 148.255 181.046 145.295C191.45 166.65 199.52 187.93 205.784 210.903C213.063 238.579 232.121 263.133 249.486 285.881C251.16 288.27 248.15 291.092 245.892 288.684C220.343 266.256 190.204 241.344 173.667 211.032C163.734 193.196 157.847 158.558 173.558 142.134C163.192 137.712 153.408 133.309 143.625 128.905C147.274 142.452 153.896 154.343 158.731 167.344C162.418 179.724 162.003 192.556 164.505 205.482C171.013 238.972 193.495 265.972 214.848 291.768C216.541 293.574 214.114 296.415 211.819 295.173C194.604 285.859 177.821 281.23 163.09 267.325C149.507 254.041 139.555 236.788 131.974 218.443C119.52 188.264 111.921 152.403 132.656 125.048C117.68 118.725 102.065 114.134 85.1692 113.004C85.1315 114.17 85.0938 115.337 85.0561 116.503C103.003 151.336 118.981 186.884 132.99 223.147C144.879 252.724 160.719 286.516 154.997 319.027C154.339 321.341 151.404 321.83 150.313 319.459C128.659 284.896 102.923 250.2 89.604 210.652C78.9002 180.529 75.8352 148.901 79.788 116.917C79.4243 116.127 79.0669 115.142 78.7158 113.963C78.3395 113.562 78.3584 112.978 78.7723 112.213C77.9947 112.188 77.217 112.163 76.4393 112.138C65.9283 112.188 55.4046 112.626 44.8685 113.453C65.1304 136.878 72.3347 166.888 78.3914 196.277C86.0093 231.554 97.2021 264.612 116.071 294.999C117.181 296.786 114.773 299.044 113.042 298.404C96.8619 293.21 82.3005 274.056 71.0125 262.014C56.9024 246.962 42.8489 230.16 32.9346 211.74C24.7136 195.126 24.6581 178.776 25.2235 161.279C26.3344 144.967 28.0098 129.256 35.4799 114.901C-30.8042 124.437 -89.7521 159.899 -134.007 210.432C-135.832 212.709 -140.422 210.225 -138.014 207.967C-112.537 178.43 -82.508 152.543 -46.91 135.01C-21.9989 122.97 6.29864 114.542 34.4454 110.781ZM244.355 191.714C249.283 201.799 255.398 211.338 262.716 219.748C276.77 236.551 295.038 249.402 313.325 261.67C306.327 243.344 292.311 225.376 281.738 209.27C269.51 190.191 255.964 175.741 237.658 164.056C238.504 174.009 238.824 182.193 244.355 191.714ZM246.087 156.154C278.204 156.025 302.344 131.699 321.8 107.805C293.107 110.381 262.57 133.917 246.087 156.154ZM259.993 123.324C270.818 113.553 281.073 103.375 290.757 92.7896C278.263 99.9761 266.316 108.348 254.349 117.303C241.216 126.22 224.546 136.191 218.223 151.167C234.705 147.029 247.951 134.612 259.993 123.324ZM222.509 217.282C231.446 229.831 242.169 241.271 252.893 252.711C251.074 248.76 249.055 244.997 246.835 241.422C242.433 233.106 240.402 223.698 236.583 215.401C233.366 206.539 228.983 197.64 225.766 188.778C220.894 176.943 217.188 165.146 206.953 156.641C199.351 175.079 212.463 202.944 222.509 217.282ZM170.997 185.256C173.969 201.7 180.591 213.592 191.258 226.781C203.035 241.758 216.6 255.625 230.785 268.345C219.591 253.386 209 237.864 203.714 220.761C199.443 208.362 197.506 196.039 193.236 183.64C188.401 170.638 182.381 158.183 175.759 146.292C167.255 156.526 169.079 172.35 170.997 185.256ZM182.514 136.001C204.208 133.198 222.703 120.951 241.142 110.454C260.183 99.3918 279.374 83.6639 292.245 64.8125C249.215 77.4347 211.641 101.91 182.514 136.001ZM210.494 83.1898C227.315 68.553 246.375 56.9078 264.889 44.0774C241.465 46.2397 221.314 55.5142 200.486 67.686C178.472 80.4034 145.922 93.9481 143.23 123.054C169.759 115.153 189.496 100.611 210.494 83.1898ZM139.951 224.539C147.589 241.134 158.162 257.24 172.366 269.376C182.036 277.279 193.005 281.136 203.936 286.161C186.533 264.579 169.169 241.832 161.889 214.155C157.13 198.821 158.824 182.528 153.463 167.758C148.083 153.571 141.48 141.097 137.849 126.967C137.849 126.967 137.661 126.766 137.285 126.365C115.327 155.432 125.767 193.72 139.951 224.539ZM96.4334 216.127C109.94 249.843 131.707 280.907 151.141 311.896C153.946 279.29 136.921 246.044 125.596 217.069C112.979 185.912 99.1774 155.3 84.1902 125.233C81.4604 155.506 85.1087 187.152 96.4334 216.127ZM85.4142 105.422C113.242 93.4759 136.704 72.0475 161.202 54.7395C185.699 37.4315 210.761 20.7256 235.804 4.60289C222.521 0.0866659 206.077 3.05845 193.133 6.14332C176.632 10.8649 160.621 18.5215 146.886 28.0032C119.396 47.55 99.809 75.5261 85.4142 105.422ZM100.488 36.4296C118.664 15.998 139.681 -2.00632 162.937 -17.019C132.419 -12.1666 103.444 -0.841819 78.3448 17.0306C62.2013 28.77 52.4358 41.8832 46.5647 60.9608C41.9731 76.5766 39.7144 92.2678 39.2056 108.015C63.214 87.7724 79.2832 60.2664 100.488 36.4296ZM30.4727 161.448C29.2864 180.093 29.9252 196.462 39.8771 213.716C48.7191 229.182 61.0982 243.594 73.5151 256.84C79.1465 263.25 85.1731 269.478 91.5948 275.524C96.6933 280.36 101.754 286.362 107.455 290.633C93.0943 265.258 82.6788 238.258 76.2082 209.635C69.0981 176.709 63.8131 141.507 40.1271 115.635C32.6569 129.99 30.9816 145.701 30.4727 161.448Z" fill="#4C886A"/>
<g clip-path="url(#clip6_30_148)">
<path d="M280.938 385.659C272.279 380.007 262.648 370.764 266.99 359.4C271.611 346.884 285.67 339.916 298.183 338.787C308.142 337.89 318.45 340.241 326.662 346.112C334.764 351.945 340.551 361.22 341.591 371.338C342.081 377.012 341.087 383.042 337.824 387.779C334.178 393.258 327.985 396.472 321.611 397.371C315.199 398.381 308.748 397.378 302.57 395.594C294.92 393.421 287.55 390.095 280.938 385.659Z" fill="#CBC1B1"/>
</g>
<g clip-path="url(#clip7_30_148)">
<path d="M191.828 338.627C187.159 335.579 181.967 330.596 184.308 324.469C186.799 317.721 194.379 313.964 201.126 313.355C206.496 312.872 212.053 314.139 216.481 317.305C220.849 320.45 223.969 325.45 224.53 330.905C224.794 333.965 224.258 337.216 222.499 339.77C220.533 342.724 217.194 344.457 213.758 344.941C210.3 345.486 206.822 344.945 203.491 343.983C199.367 342.812 195.393 341.019 191.828 338.627Z" fill="#CBC1B1"/>
</g>
</g>
<path d="M1502.91 1006.06C1252.41 934.754 1056.86 700.64 1031.64 441.75C1023.62 359.999 1030.67 273.991 997.536 198.579C971.157 138.36 921.478 90.6865 893.265 31.3414C855.468 -47.8795 859.735 -141.746 885.927 -225.309C912.118 -308.872 958.634 -384.34 1004.59 -458.73L2008.12 65.228L1502.91 1006.06Z" fill="url(#paint0_linear_30_148)"/>
<path d="M1307.57 846.069C1136.93 748.065 1036.47 540.602 1065.48 346.017C1074.59 284.56 1095.54 222.728 1085.08 161.345C1076.78 112.343 1049.09 68.2989 1039.29 19.6038C1026.1 -45.425 1046.45 -113.531 1081 -170.078C1115.54 -226.625 1163.5 -273.525 1210.85 -319.737L1850.73 247.766L1307.57 846.069Z" fill="url(#paint1_linear_30_148)"/>
<path fill-rule="evenodd" clip-rule="evenodd" d="M1093.92 75.5399C1124.02 56.5152 1159.28 43.9456 1193.58 56.2877C1228.19 69.133 1258.49 91.945 1281.13 121.288C1282.81 123.006 1280.38 125.785 1277.69 124.658C1247.91 109.657 1215.58 99.5364 1181.8 95.006C1154.61 91.34 1127.39 91.0766 1100.74 83.7127C1104.9 88.4902 1108.72 93.4647 1112.21 98.636C1115.3 103.136 1118.03 107.4 1120.39 111.426C1156.96 106.876 1194.98 108.244 1229.76 123.694C1256.17 135.259 1293.75 161.244 1296.95 193.201C1297.33 195.006 1295.32 196.188 1293.42 195.269C1262.13 181.154 1230.84 167.04 1198.84 154.02C1173.82 143.669 1147.68 136.01 1125.5 121.283C1131.96 135.758 1136.12 150.911 1139.27 166.654C1140.87 167.07 1141.46 168.077 1141.25 168.875C1165.88 157.804 1191.75 173.067 1213.75 185.19C1241.35 198.768 1265.03 212.609 1281.99 239.195C1283.17 241.208 1281.25 243.691 1279.35 242.772C1253.24 231.711 1227.83 219.555 1200.89 211.688C1178.73 205.068 1159.22 194.871 1142.04 180.593C1142.55 183 1143.06 185.407 1143.57 187.814C1144.57 194.896 1145.57 201.978 1146.57 209.06C1195.86 214.641 1241.49 235.9 1278.29 269.785C1279.68 270.999 1278.05 273.986 1276.45 273.57C1252.72 274.641 1226.57 266.982 1205.96 256.074C1184.85 245.461 1163.02 235.942 1148.19 217.583C1149.69 228.206 1152.19 238.239 1155.2 247.976C1171.45 244.53 1187.68 252.594 1202.74 258.645C1222.88 266.446 1242.81 275.046 1261.82 285.538C1263.72 286.457 1263.18 290.155 1260.78 289.532C1239.4 286.522 1218.42 281.916 1197.66 276.51C1184.29 272.178 1169.91 268.435 1159.39 259.726C1160.04 261.601 1160.69 263.475 1161.34 265.35C1161.53 265.685 1161.73 266.021 1161.93 266.356C1162.38 267.895 1163 269.336 1163.79 270.678C1164.32 270.817 1164.52 271.152 1164.38 271.685C1164.77 272.356 1165.26 273.194 1165.85 274.201C1166.19 274.004 1166.36 273.906 1166.36 273.906C1197.57 275.208 1239.45 291.227 1257 318.819C1257.88 320.329 1256.46 322.517 1254.87 322.102C1223.77 318.698 1188.81 312.154 1168.83 287.341C1168.3 287.202 1167.83 286.797 1167.44 286.126C1165.53 283.639 1163.69 280.886 1161.92 277.866C1161.72 298.281 1157.44 316.355 1148.54 335.785C1138.73 357.108 1129.98 382.544 1114.19 400.607C1112.97 401.996 1110.28 400.869 1110.4 398.768C1110.75 372.85 1111.82 345.838 1120.36 321.2C1123.86 311.026 1128.96 301.267 1134.36 292.011C1140.17 281.158 1147.21 277.023 1156.69 270.109C1156.69 270.109 1156.85 270.01 1157.19 269.813C1157.33 269.281 1157.3 268.847 1157.1 268.512C1154.82 263.085 1152.8 257.728 1151.05 252.44C1150.86 252.104 1150.76 251.936 1150.76 251.936C1146.18 269.507 1131.94 283.281 1121.98 298.597C1116.29 307.349 1108.71 315.182 1103.02 323.935C1097.63 333.19 1093.33 343.157 1086.84 351.701C1085.42 353.889 1081.63 352.051 1082.25 349.655C1089.2 324.602 1093.37 297.119 1107.6 275.238C1115.83 261.607 1130.82 243.336 1147.66 240.897C1145.93 233.341 1144.37 225.686 1142.98 217.933C1130.47 238.129 1116.79 256.312 1100.7 273.871C1081.18 294.799 1070.59 324.021 1060.63 350.847C1059.5 353.539 1055.51 352.499 1056.34 349.304C1061.67 315.728 1066.65 276.944 1083.45 246.781C1093.23 228.861 1119.38 205.394 1141.66 209.913C1139.86 198.787 1138.36 188.163 1136.86 177.54C1127.36 187.857 1120.84 199.804 1112.42 210.831C1103.92 220.557 1092.85 227.056 1083.25 236.07C1058.41 259.45 1047.58 292.873 1037.16 324.699C1036.54 327.094 1032.84 326.558 1032.66 323.954C1031.35 304.425 1026.31 287.763 1030.2 267.884C1034.19 249.307 1043.46 231.682 1054.93 215.479C1073.8 188.84 1100.07 163.272 1134.27 166.206C1131.63 150.167 1127.17 134.511 1119.11 119.62C1118.1 120.211 1117.1 120.802 1116.09 121.393C1096.21 155.162 1074.68 187.647 1051.49 218.849C1032.83 244.69 1012.71 276.122 982.162 288.637C979.853 289.315 977.873 287.094 979.295 284.906C996.966 248.146 1012.57 207.863 1038.9 175.491C1058.66 150.361 1083.77 130.888 1112.93 117.158C1113.4 116.429 1114.04 115.601 1114.85 114.675C1114.99 114.143 1115.5 113.847 1116.36 113.789C1115.97 113.118 1115.58 112.447 1115.18 111.776C1109.53 102.914 1103.54 94.2486 1097.22 85.7804C1088.22 115.418 1066.69 137.528 1045.07 158.337C1019.31 183.608 997.328 210.718 981.704 242.894C980.785 244.787 977.59 243.955 977.207 242.15C972.963 225.695 981.388 203.158 985.546 187.185C990.743 167.219 997.45 146.366 1007.73 128.15C1017.4 112.331 1031.19 103.557 1046.29 94.6953C1060.68 86.928 1074.86 79.9593 1090.98 78.6141C1047.54 27.6516 986.088 -3.2684 919.733 -13.7187C916.834 -14.047 916.484 -19.2547 919.679 -18.4231C958.255 -12.6453 996.175 -1.06901 1030 19.6754C1053.48 34.3146 1075.71 53.7457 1093.92 75.5399ZM1137.52 296.245C1131.62 305.796 1126.82 316.058 1123.61 326.736C1116.9 347.589 1115.79 369.896 1115.17 391.909C1126.94 376.21 1134.65 354.766 1142.63 337.229C1152.23 316.705 1157.22 297.537 1157.33 275.82C1149.37 281.848 1142.62 286.486 1137.52 296.245ZM1168.51 278.73C1185.77 305.82 1219.22 313.249 1249.81 316.948C1232.32 294.06 1196.12 280.799 1168.51 278.73ZM1203.7 272.966C1217.74 276.905 1231.82 280.144 1245.94 282.682C1233.19 275.954 1219.74 270.319 1205.78 264.979C1191.23 258.633 1173.9 249.858 1157.86 252.506C1170.15 264.234 1187.72 268.808 1203.7 272.966ZM1104.24 291.419C1098.39 305.675 1094.44 320.849 1090.49 336.024C1092.86 332.377 1094.97 328.661 1096.81 324.875C1101.49 316.714 1108.36 309.975 1113.34 302.317C1119.12 294.866 1124.3 286.409 1130.08 278.959C1137.49 268.522 1145.48 259.091 1147.21 245.897C1127.56 249.31 1111 275.271 1104.24 291.419ZM1103.82 230.765C1091.5 242.055 1084.98 254.002 1079.52 270.063C1073.14 288.016 1068.66 306.888 1065.47 325.673C1072.15 308.223 1079.62 290.981 1091.26 277.382C1099.47 267.153 1108.85 258.937 1117.06 248.708C1125.47 237.68 1132.79 225.941 1139.31 213.994C1126.12 212.265 1113.71 222.253 1103.82 230.765ZM1151.62 214.213C1165.57 231.062 1185.8 240.165 1204.52 250.155C1224.04 260.352 1247.58 268.186 1270.39 269.007C1236.75 239.357 1196 220.648 1151.62 214.213ZM1211.22 209.686C1232.57 216.098 1252.59 226 1273.32 234.807C1258.99 216.153 1240.39 204.063 1218.98 192.947C1196.48 181.12 1167.65 160.824 1141.6 174.083C1162.44 192.3 1185.28 201.228 1211.22 209.686ZM1054.03 225.479C1044.08 240.796 1036.1 258.333 1033.42 276.822C1031.9 289.218 1034.49 300.553 1036.08 312.478C1045.04 286.243 1055 259.417 1074.52 238.488C1084.95 226.279 1099.63 219.015 1109.26 206.597C1118.39 194.476 1125.41 182.233 1135.42 171.621C1135.42 171.621 1135.49 171.355 1135.63 170.823C1099.33 167.769 1072.52 197.034 1054.03 225.479ZM1037.92 184.189C1016.62 213.607 1001.97 248.595 986.133 281.569C1015.2 266.538 1034.23 234.395 1052.69 209.353C1072.3 182.053 1090.82 154.042 1108.25 125.32C1081.19 139.17 1056.38 159.147 1037.92 184.189ZM1125.65 115.78C1150.61 132.936 1181.25 141.339 1208.96 152.817C1236.68 164.294 1264.18 176.57 1291.18 189.142C1287.91 175.499 1276.62 163.18 1267.1 153.88C1254.3 142.447 1239.28 132.993 1223.93 126.44C1192.73 113.627 1158.62 111.996 1125.65 115.78ZM1192.04 91.7022C1219.02 96.1668 1245.46 104.329 1270.57 115.982C1250.18 92.7653 1225.14 74.3078 1196.63 62.6224C1178.08 55.2369 1161.78 53.9782 1142.51 59.1962C1126.86 63.6486 1112.38 70.114 1098.79 78.0892C1128.73 87.5866 1160.56 86.4935 1192.04 91.7022ZM1048.95 99.2248C1032.55 108.174 1019.05 117.451 1009.77 135.076C1001.41 150.808 995.83 168.969 991.257 186.54C988.842 194.723 986.792 203.144 985.107 211.801C983.739 218.694 981.365 226.177 980.796 233.277C994.589 207.589 1011.86 184.37 1032.61 163.62C1056.66 140.033 1083.61 116.775 1092.84 82.9357C1076.72 84.2809 1062.54 91.2496 1048.95 99.2248Z" fill="#4C886A"/>
<path fill-rule="evenodd" clip-rule="evenodd" d="M1340.69 407.55C1374.43 418.97 1406.39 438.448 1418.39 472.876C1430.19 507.85 1431.54 545.757 1422.99 581.816C1422.72 584.207 1419.03 584.068 1418.21 581.268C1411.12 548.686 1398.64 517.195 1380.89 488.092C1366.62 464.659 1349.69 443.343 1338.64 417.999C1337.55 424.237 1336.09 430.338 1334.26 436.302C1332.71 441.537 1331.12 446.341 1329.48 450.711C1356.03 476.266 1378.9 506.669 1388.79 543.418C1396.43 571.219 1399.89 616.776 1377.07 639.374C1375.91 640.808 1373.73 639.988 1373.25 637.939C1364.52 604.741 1355.79 571.544 1345.76 538.483C1338.06 512.526 1327.55 487.387 1325.03 460.886C1317.85 475.021 1308.7 487.789 1298.45 500.148C1299.13 501.65 1298.72 502.743 1297.97 503.084C1322.07 515.251 1326.5 544.964 1330.93 569.69C1337.75 599.676 1341.9 626.793 1331.92 656.704C1331.1 658.89 1327.96 658.957 1327.48 656.907C1319.64 629.653 1313.09 602.262 1302.24 576.372C1293.44 554.99 1289.08 533.406 1289.36 511.072C1287.81 512.984 1286.26 514.895 1284.71 516.807C1279.84 522.042 1274.96 527.276 1270.09 532.51C1296.78 574.321 1308.98 623.16 1305.82 673.086C1305.75 674.93 1302.41 675.543 1301.72 674.04C1285.95 656.276 1275.45 631.137 1270.95 608.255C1265.9 585.168 1259.56 562.216 1264.49 539.133C1257.18 546.985 1250.96 555.246 1245.28 563.713C1258.19 574.168 1262.14 591.86 1266.92 607.366C1273.53 627.926 1279.4 648.829 1283.22 670.208C1283.69 672.257 1280.48 674.168 1279.46 671.914C1268.33 653.4 1258.71 634.204 1249.84 614.667C1244.79 601.551 1238.65 588.025 1238.79 574.365C1237.74 576.05 1236.7 577.734 1235.65 579.418C1235.51 579.783 1235.37 580.147 1235.24 580.511C1234.33 581.831 1233.6 583.219 1233.05 584.676C1233.28 585.177 1233.14 585.541 1232.64 585.769C1232.37 586.497 1232.02 587.408 1231.61 588.501C1231.98 588.637 1232.16 588.706 1232.16 588.706C1250.8 613.779 1264.71 656.404 1254.32 687.408C1253.7 689.047 1251.11 689.319 1250.42 687.816C1233.5 661.514 1216.57 630.226 1223.28 599.084C1223.05 598.583 1223.07 597.968 1223.35 597.24C1224.08 594.189 1225.06 591.025 1226.29 587.747C1210.3 600.444 1193.56 608.497 1172.87 613.816C1150.12 619.612 1124.85 628.823 1100.87 627.925C1099.03 627.856 1098.21 625.055 1099.92 623.827C1120.28 607.784 1141.94 591.606 1166.46 582.737C1176.57 579.053 1187.36 576.872 1197.95 575.237C1210.04 572.919 1217.69 575.791 1229.02 578.801C1229.02 578.801 1229.2 578.869 1229.57 579.006C1230.07 578.779 1230.39 578.483 1230.53 578.119C1233.31 572.929 1236.2 567.99 1239.21 563.301C1239.34 562.937 1239.41 562.755 1239.41 562.755C1222.88 570.261 1203.21 567.863 1185.04 569.768C1174.66 570.856 1163.8 569.896 1153.42 570.984C1142.83 572.619 1132.38 575.552 1121.66 575.889C1119.06 576.161 1118.11 572.063 1120.36 571.039C1144.2 560.667 1168.18 546.607 1194.14 543.886C1209.91 541.706 1233.55 541.853 1246.04 553.4C1250.82 547.301 1255.79 541.27 1260.94 535.307C1237.37 538.303 1214.63 539.113 1190.86 537.669C1162.31 535.677 1132.94 545.842 1105.82 554.983C1103.02 555.801 1101.31 552.044 1104.32 550.679C1133.76 533.685 1167.03 513.14 1201.05 507.211C1221.13 503.531 1255.82 509.078 1266.33 529.23C1273.85 520.833 1281.16 512.981 1288.47 505.129C1274.47 504.236 1261.08 506.689 1247.22 507.093C1234.31 506.61 1222.29 502.098 1209.25 500.316C1175.44 495.727 1142.65 508.349 1111.37 520.289C1109.11 521.312 1107.2 518.101 1109.11 516.326C1123.46 503.014 1133.23 488.606 1151.13 479.12C1168.07 470.521 1187.61 466.636 1207.42 465.346C1240 463.242 1276.4 467.56 1295.65 495.98C1306.44 483.827 1315.81 470.513 1322.3 454.874C1321.21 454.464 1320.12 454.054 1319.02 453.644C1280.27 459.456 1241.48 463.174 1202.64 464.798C1170.81 466.561 1133.72 470.712 1104.77 454.855C1102.79 453.488 1103.27 450.551 1105.86 450.279C1145.55 440.87 1186.67 427.636 1228.4 427.722C1260.37 427.256 1291.3 434.509 1320.32 448.522C1321.19 448.431 1322.24 448.409 1323.47 448.455C1323.97 448.227 1324.51 448.432 1325.1 449.07C1325.38 448.342 1325.65 447.613 1325.93 446.885C1329.25 436.914 1332.22 426.807 1334.82 416.563C1306.13 428.231 1275.39 425.418 1245.61 421.718C1209.76 417.606 1174.86 417.592 1140.02 425.705C1137.97 426.182 1136.61 423.177 1137.77 421.743C1147.88 408.087 1170.7 400.447 1185.73 393.623C1204.51 385.093 1224.94 377.178 1245.57 373.703C1263.94 371.252 1279.44 376.449 1295.83 382.603C1310.92 388.892 1325.26 395.523 1336.46 407.207C1348.71 341.371 1334.05 274.158 1300.41 216.021C1298.84 213.562 1302.66 210.012 1304.03 213.018C1323.82 246.629 1338.69 283.38 1343.87 322.723C1347.27 350.181 1346.17 379.686 1340.69 407.55ZM1196.65 580.359C1185.51 581.789 1174.52 584.516 1164.2 588.747C1143.78 596.661 1125.74 609.836 1108.25 623.215C1127.85 622.472 1149.37 614.968 1168.02 610.126C1190.01 604.671 1208.05 596.482 1224.99 582.897C1215.29 580.503 1207.44 578.178 1196.65 580.359ZM1229.77 593.417C1219.58 623.875 1234.87 654.548 1251.25 680.645C1258.02 652.645 1245.54 616.168 1229.77 593.417ZM1256.4 617.128C1262.17 630.517 1268.52 643.497 1275.44 656.067C1272.64 641.928 1268.55 627.924 1263.91 613.716C1259.68 598.415 1255.59 579.426 1243.44 568.63C1242.07 585.568 1249.57 602.099 1256.4 617.128ZM1179.45 551.461C1164.69 555.895 1150.42 562.377 1136.14 568.86C1140.46 568.406 1144.68 567.702 1148.78 566.748C1158.06 565.249 1167.63 566.346 1176.71 565.393C1186.14 565.192 1195.97 563.898 1205.4 563.697C1218.17 562.883 1230.53 563.161 1241.87 556.199C1226.85 543.079 1196.25 546.55 1179.45 551.461ZM1226.32 512.959C1209.79 510.493 1196.4 512.947 1180.49 518.814C1162.52 525.159 1145.03 533.553 1128.43 542.903C1146.19 537.105 1164.29 532.058 1182.19 532.543C1195.3 532.48 1207.59 534.602 1220.71 534.539C1234.57 534.135 1248.3 532.433 1261.69 529.98C1254.73 518.639 1239.16 515.286 1226.32 512.959ZM1269.27 539.681C1264.96 561.126 1270.62 582.574 1274.64 603.407C1279 624.992 1287.73 648.217 1301.45 666.459C1303.32 621.655 1292.2 578.212 1269.27 539.681ZM1310.3 583.137C1318.76 603.767 1323.67 625.556 1329.87 647.21C1335.35 624.332 1333.03 602.27 1328.19 578.636C1323.22 553.705 1320.84 518.529 1294.14 506.634C1293.11 534.295 1300.54 557.657 1310.3 583.137ZM1199.08 470.943C1180.91 472.849 1162.27 477.69 1146.21 487.246C1135.62 493.867 1128.45 503.016 1120.18 511.755C1146.21 502.203 1173.32 493.062 1201.87 495.054C1217.92 495.471 1232.81 502.307 1248.52 501.972C1263.68 501.431 1277.62 499.183 1292.16 500.282C1292.16 500.282 1292.41 500.168 1292.91 499.94C1272.44 469.812 1232.82 467.405 1199.08 470.943ZM1221.02 432.431C1184.75 434.397 1148.35 445.037 1112.76 453.492C1142.74 466.618 1179.69 461.169 1210.77 459.747C1244.33 457.803 1277.75 454.561 1311.03 450.021C1283.24 437.715 1252.1 431.009 1221.02 432.431ZM1329.4 457.541C1331.78 487.731 1344.54 516.831 1353.07 545.589C1361.59 574.347 1369.37 603.446 1376.6 632.339C1385.14 621.21 1387.6 604.682 1388.84 591.433C1389.67 574.29 1387.56 556.668 1382.99 540.615C1373.3 508.306 1353.09 480.773 1329.4 457.541ZM1389.9 493.969C1403.42 517.743 1413.72 543.428 1420.47 570.273C1425.67 539.813 1424.25 508.736 1415.38 479.227C1409.45 460.169 1400.17 446.71 1383.98 435.024C1370.67 425.662 1356.53 418.484 1341.78 412.946C1353.25 442.183 1374.14 466.233 1389.9 493.969ZM1293.98 387.519C1276.71 380.409 1261 375.759 1241.47 379.644C1223.98 383.052 1206.36 390.148 1189.82 397.654C1181.94 400.929 1174.11 404.637 1166.32 408.777C1160.11 412.053 1152.8 414.919 1146.92 418.946C1175.57 413.494 1204.48 412.299 1233.66 415.361C1267.13 419.2 1302.17 425.497 1334.27 411.372C1323.08 399.689 1308.74 393.058 1293.98 387.519Z" fill="#4C886A"/>
<g clip-path="url(#clip8_30_148)">
<path d="M629.752 48.7083C645.54 52.6021 664.633 61.3166 664.082 80.4146C663.715 101.367 646.458 118.981 628.467 127.14C614.148 133.629 597.625 135.483 582.388 131.033C567.334 126.583 553.933 115.829 547.14 101.367C543.469 93.2083 541.816 83.7521 544.203 75.0375C546.773 65.025 554.3 57.0521 563.296 52.4166C572.291 47.5958 582.388 45.7416 592.485 45.1854C604.969 44.4437 617.636 45.5562 629.752 48.7083Z" fill="#CBC1B1"/>
</g>
<g clip-path="url(#clip9_30_148)">
<path d="M811.519 91.8334C819.349 93.7584 828.818 98.0667 828.545 107.508C828.362 117.867 819.804 126.575 810.882 130.608C803.78 133.817 795.586 134.733 788.03 132.533C780.564 130.333 773.918 125.017 770.549 117.867C768.728 113.833 767.909 109.158 769.092 104.85C770.367 99.9 774.1 95.9584 778.561 93.6667C783.022 91.2834 788.03 90.3667 793.037 90.0917C799.228 89.725 805.51 90.275 811.519 91.8334Z" fill="#CBC1B1"/>
</g>
<g clip-path="url(#clip10_30_148)">
<path d="M781.375 643.216C784.991 641.024 790.096 639.104 793.485 642.695C797.246 646.591 797.29 652.985 795.471 657.785C794.023 661.605 791.322 664.983 787.706 666.973C784.123 668.93 779.693 669.43 775.801 668.037C773.634 667.221 771.602 665.797 770.449 663.766C769.092 661.463 769.02 658.622 769.828 656.12C770.601 653.584 772.12 651.388 773.876 649.428C776.037 646.996 778.571 644.869 781.375 643.216Z" fill="#CBC1B1"/>
</g>
<g clip-path="url(#clip11_30_148)">
<path d="M883.604 694.342C880.004 681.895 878.419 665.245 891.833 658.008C906.454 649.904 925.498 654.785 938.302 663.944C948.49 671.236 956.353 681.897 959.349 694.186C962.271 706.348 960.18 719.885 952.894 730.341C948.721 736.128 942.846 741.04 935.874 742.869C927.933 745.09 919.426 743.076 912.64 738.718C905.726 734.434 900.423 728.207 896.016 721.462C890.531 713.144 886.253 703.96 883.604 694.342Z" fill="#CBC1B1"/>
</g>
<g clip-path="url(#clip12_30_148)">
<path d="M979.938 589.659C971.279 584.007 961.648 574.764 965.99 563.4C970.611 550.884 984.67 543.916 997.183 542.787C1007.14 541.89 1017.45 544.241 1025.66 550.112C1033.76 555.945 1039.55 565.22 1040.59 575.338C1041.08 581.012 1040.09 587.042 1036.82 591.779C1033.18 597.258 1026.99 600.472 1020.61 601.371C1014.2 602.381 1007.75 601.378 1001.57 599.594C993.92 597.421 986.55 594.095 979.938 589.659Z" fill="#CBC1B1"/>
</g>
<g clip-path="url(#clip13_30_148)">
<path d="M1275.94 109.659C1267.28 104.007 1257.65 94.7638 1261.99 83.4004C1266.61 70.884 1280.67 63.9165 1293.18 62.7868C1303.14 61.89 1313.45 64.2414 1321.66 70.1125C1329.76 75.945 1335.55 85.2202 1336.59 95.3379C1337.08 101.012 1336.09 107.042 1332.82 111.779C1329.18 117.258 1322.99 120.472 1316.61 121.371C1310.2 122.381 1303.75 121.378 1297.57 119.594C1289.92 117.421 1282.55 114.095 1275.94 109.659Z" fill="#CBC1B1"/>
</g>
</g>
<defs>
<linearGradient id="paint0_linear_30_148" x1="235798" y1="207078" x2="-326623" y2="-86568.9" gradientUnits="userSpaceOnUse">
<stop stop-color="#D7A084"/>
<stop offset="1" stop-color="#FFE4C6" stop-opacity="0.25"/>
</linearGradient>
<linearGradient id="paint1_linear_30_148" x1="135334" y1="194796" x2="-223279" y2="-123255" gradientUnits="userSpaceOnUse">
<stop stop-color="#D0D0D0"/>
<stop offset="1" stop-color="#A06442" stop-opacity="0"/>
</linearGradient>
<clipPath id="clip0_30_148">
<rect width="1366" height="768" fill="white"/>
</clipPath>
<clipPath id="clip1_30_148">
<rect width="476.813" height="344.838" fill="white" transform="translate(455 212)"/>
</clipPath>
<clipPath id="clip2_30_148">
<rect width="104.762" height="200" fill="white" transform="translate(104.762 551) rotate(-180)"/>
</clipPath>
<clipPath id="clip3_30_148">
<rect width="1330.71" height="811.805" fill="white" transform="translate(233.129 1212.65) rotate(-119.196)"/>
</clipPath>
<clipPath id="clip4_30_148">
<rect width="888.03" height="332.157" fill="white" transform="matrix(0.606955 0.794736 -0.686347 0.727275 -36.1445 331.123)"/>
</clipPath>
<clipPath id="clip5_30_148">
<rect width="1330.71" height="811.805" fill="white" transform="translate(-67.0059 1206.96) rotate(-107.528)"/>
</clipPath>
<clipPath id="clip6_30_148">
<rect width="78.2155" height="56.6663" fill="white" transform="translate(332.837 406.296) rotate(-160.738)"/>
</clipPath>
<clipPath id="clip7_30_148">
<rect width="42.1707" height="30.5522" fill="white" transform="translate(219.81 349.753) rotate(-160.738)"/>
</clipPath>
<clipPath id="clip8_30_148">
<rect width="123" height="89" fill="white" transform="translate(542 45)"/>
</clipPath>
<clipPath id="clip9_30_148">
<rect width="61" height="44" fill="white" transform="translate(768 90)"/>
</clipPath>
<clipPath id="clip10_30_148">
<rect width="32" height="23" fill="white" transform="translate(764.555 658.682) rotate(-45)"/>
</clipPath>
<clipPath id="clip11_30_148">
<rect width="98" height="71" fill="white" transform="translate(916 756.371) rotate(-120)"/>
</clipPath>
<clipPath id="clip12_30_148">
<rect width="78.2155" height="56.6663" fill="white" transform="translate(1031.84 610.296) rotate(-160.738)"/>
</clipPath>
<clipPath id="clip13_30_148">
<rect width="78.2155" height="56.6663" fill="white" transform="translate(1327.84 130.296) rotate(-160.738)"/>
</clipPath>
</defs>
</svg>
