<svg width="1366" height="768" viewBox="0 0 1366 768" fill="none" xmlns="http://www.w3.org/2000/svg">
<g clip-path="url(#clip0_29_318)">
<rect width="1366" height="768" fill="white"/>
<g clip-path="url(#clip1_29_318)">
<path d="M722.65 -137.195C732.476 -121.404 740.525 -104.289 744.999 -86.1835C748.787 -71.1198 750.019 -55.4069 749.239 -39.9366C747.678 -7.99781 737.82 23.573 722.766 51.6517C713.977 68.0477 702.673 82.9959 688.116 94.7241C673.375 106.612 656.236 115.339 638.671 122.246C607.848 134.432 574.566 140.32 541.5 134.967C482.641 125.556 429.161 85.1941 406.968 29.3741C385.307 -25.1699 392.446 -89.9741 426.426 -137.843C427.417 -139.255 429.519 -137.801 428.599 -136.419C413.954 -114.336 404.575 -88.7901 401.064 -62.5283C397.529 -35.9239 399.707 -8.37317 408.14 17.2355C416.698 43.5412 432.212 67.1961 452.598 85.9907C473.013 104.856 498.111 118.607 524.851 125.931C553.551 133.77 583.278 133.109 611.903 125.418C628.72 120.903 645.122 114.397 660.403 106.196C676.007 97.7755 690.495 87.0751 701.758 73.2255C712.125 60.4155 719.899 45.7736 726.399 30.6649C732.179 17.021 736.797 2.78016 739.785 -11.78C745.791 -40.8293 745.222 -71.2978 735.028 -99.3346C724.332 -128.577 705.818 -155.64 683.199 -176.999C662.229 -196.798 636.109 -212.203 607.328 -216.846C577.19 -221.755 546.364 -214.561 519.496 -200.863C490.31 -185.948 463.773 -163.483 448.035 -134.454C433.67 -107.911 428.409 -76.6757 431.008 -46.7207C433.781 -13.759 445.305 18.4662 461.973 46.8824C471.096 62.3843 482.496 75.772 497.646 85.5986C510.854 94.1547 525.767 100.419 540.954 104.156C555.7 107.827 571.234 109.006 586.317 106.711C602.823 104.24 618.4 97.7455 633.161 90.0931C648.488 82.2046 663.934 73.6014 677.146 62.4341C690.247 51.3967 699.556 37.4463 705.3 21.3214C725.063 -33.9344 709.019 -99.7241 669.483 -142.322C649.267 -164.1 621.711 -181.153 591.546 -183.138C561.038 -185.147 530.139 -172.347 506.727 -153.35C484.454 -135.409 467.568 -110.727 460.103 -82.9835C452.856 -55.9133 455.656 -26.8738 466.102 -1.02253C476.648 24.8701 494.628 47.6632 517.916 63.2508C531.313 72.061 546.361 78.8513 562.327 81.2648C576.623 83.4593 591.323 82.2397 605.155 78.1373C633.596 69.6077 656.823 48.7728 669.016 21.804C681.556 -5.72588 682.267 -37.3105 671.4 -65.566C660.267 -94.4595 638.302 -118.837 610.248 -132.104C596.457 -138.669 581.393 -142.707 566.071 -142.976C549.139 -143.322 534.075 -137.791 521.447 -126.617C498.792 -106.603 486.507 -76.2675 486.869 -46.2953C487.304 -14.3561 501.904 18.6672 526.127 39.6895C537.619 49.7102 551.51 56.3172 566.802 57.5137C580.625 58.574 594.646 55.7239 606.917 49.2761C632.41 36.0675 646.974 7.61068 646.365 -20.7608C645.713 -52.0267 624.771 -81.324 596.622 -94.2191C583.381 -100.265 568.034 -103.186 553.944 -98.3099C541.187 -93.8233 531.119 -83.884 524.482 -72.2958C510.234 -47.4658 511.809 -13.5888 529.872 9.00343C538.354 19.7796 550.316 26.9414 563.991 28.6456C576.752 30.1487 590.472 27.1745 600.505 18.7473C611.748 9.23351 615.497 -5.89351 615.712 -20.1294C615.89 -35.8479 612.131 -52.8372 600.561 -64.2402C589.961 -74.7156 574.135 -78.1864 561.033 -70.1438C548.255 -62.3197 542.6 -46.9805 544.085 -32.4548C545.677 -17.4743 554.67 -1.08636 571.108 0.464768C577.872 1.13961 584.645 -1.3517 588.808 -6.91522C592.759 -12.3902 593.976 -19.6378 593.05 -26.242C592.06 -33.4015 588.567 -40.1835 582.857 -44.7095C577.608 -48.9282 569.303 -50.708 564.172 -45.0738C559.419 -39.9298 562.589 -29.9345 568.139 -26.5899C570.784 -25.0299 573.746 -25.1002 575.993 -27.2853C577.651 -28.8916 578.517 -31.0003 577.317 -33.0798C575.533 -36.1636 580.513 -38.5726 582.226 -35.4593C585.092 -30.5795 582.528 -24.7675 578.128 -21.7677C572.683 -18.0829 566.001 -19.9568 561.731 -24.4175C557.101 -29.1441 554.764 -36.741 556.436 -43.0966C558.314 -49.9542 565.033 -54.1704 571.767 -54.5647C587.442 -55.4415 598.053 -38.563 598.859 -24.6695C599.742 -10.3921 591.613 4.39729 576.335 6.02438C559.917 7.71028 546.6 -4.2956 541.308 -18.9815C536.194 -33.2421 536.967 -50.1242 545.41 -62.9642C553.976 -76.1055 569.971 -83.1905 585.289 -79.3417C600.979 -75.3984 612.207 -62.0226 617.175 -47.1182C622.261 -31.9302 622.786 -13.9255 617.857 1.36078C613.375 15.129 603.39 25.8659 589.802 30.9489C577.033 35.6068 562.456 35.5269 549.687 30.6155C535.513 25.1248 524.439 13.5152 517.684 0.104879C504.157 -26.958 507.143 -61.6551 526.426 -85.1727C535.508 -96.2818 548.25 -104.59 562.703 -106.206C578.99 -108.004 595.33 -102.501 609.052 -93.9093C636.554 -76.5841 654.257 -44.6884 651.582 -12.035C649.071 18.2201 630.369 46.3216 601.723 57.3498C587.982 62.6632 572.774 64.2608 558.354 61.3692C541.891 58.1641 527.739 49.336 516.175 37.3482C492.628 12.965 479.426 -21.8892 481.669 -55.7771C483.802 -87.5387 499.774 -119.994 526.55 -137.899C554.878 -156.866 593.511 -148.925 621.337 -132.816C649.925 -116.276 671.343 -88.4261 680.324 -56.7213C689.05 -25.8258 684.593 7.73683 668.204 35.2068C652.205 62.0153 624.886 80.8115 594.059 86.009C529.83 96.811 472.205 44.1142 455.693 -14.8235C447.446 -44.1713 449.184 -75.6848 461.406 -103.581C473.863 -131.908 495.707 -155.662 522.349 -171.097C551.068 -187.731 585.648 -194.493 617.584 -183.676C647.643 -173.575 672.8 -151.111 690.134 -124.886C707.367 -98.7025 717.273 -67.9663 718.752 -36.712C720.326 -4.83156 713.409 31.0048 691.819 55.5674C679.252 69.8774 662.716 79.8508 646.197 89.0681C630.61 97.7304 614.315 105.69 596.866 109.886C564.937 117.623 530.872 110.273 502.368 94.531C485.6 85.212 472.071 72.2965 461.572 56.2862C451.671 41.109 443.727 24.4496 437.631 7.43613C426.143 -24.3046 421.439 -58.7081 427.537 -92.1227C430.448 -108.065 435.56 -123.511 443.311 -137.81C451.823 -153.674 463.641 -167.589 477.272 -179.347C502.352 -201.121 533.726 -217.364 566.779 -222.407C598.48 -227.303 630.06 -220.332 657.479 -203.805C684.337 -187.626 706.166 -163.774 722.65 -137.195Z" fill="#4C886A"/>
</g>
<g clip-path="url(#clip2_29_318)">
<path d="M403.873 -259.443C462.02 -214.642 523.235 -148.778 536.575 -62.7712C550.341 27.7904 505.201 97.3916 487.362 178.343C471.142 252.731 479.058 342.236 508.875 421.487C544.451 515.533 606.38 588.501 658.608 669.033C710.91 749.837 757.007 854.192 744.309 946.894C738.897 985.991 723.43 1018.74 705.682 1047.43C596.463 1226.44 407.03 1279.91 221.11 1267.93C139.651 1262.95 54.4613 1245.54 -23.1243 1187.57C-103.295 1127.38 -169.454 1027.53 -218.131 919.491C-311.257 712.49 -345.869 474.612 -339.868 254.725C-335.627 97.1741 -311.211 -55.5772 -255.336 -180.002C-206.599 -288.797 -127.942 -383.151 -33.9948 -416.825C33.0892 -440.956 116.143 -398.17 187.233 -375.518C260.987 -351.831 334.532 -312.621 403.873 -259.443Z" fill="url(#paint0_linear_29_318)"/>
<path fill-rule="evenodd" clip-rule="evenodd" d="M715.652 707.13L715.565 707.913C715.565 708.348 713.304 749.304 688.522 759.478C688.29 759.594 688.058 759.71 687.826 759.826C679.739 775.217 676.435 789.826 676.435 790C676.435 790.116 676.406 790.203 676.348 790.261C675.652 793.217 674.87 796.087 673.913 798.957C673.855 799.13 673.739 799.275 673.565 799.391C673.391 799.449 673.217 799.449 673.043 799.391C672.696 799.217 672.522 798.87 672.609 798.522C675.217 790.696 676.696 782.609 677.217 774.435C677.217 774.377 677.217 774.348 677.217 774.348C677.13 774.261 670.348 760.87 658.783 747.826C631.739 744.609 619.304 704.783 619.13 704.348L618.957 703.652L619.739 703.478C620.174 703.391 624.609 703.13 642.261 717.391C659.13 731.043 659.826 744.783 659.826 746.957C668.957 757.13 675.043 767.565 677.391 771.739C678 756.87 675.826 741.652 672.348 727.478C671.304 725.739 664.174 713.652 652.783 702.087C625.565 700.261 611.13 661.043 611.043 660.609H610.957L610.696 659.913L611.478 659.739C611.913 659.652 616.348 659.13 634.783 672.522C652.261 685.304 653.652 699.043 653.739 701.13C662 709.565 668 718.174 671.217 723.043C662.348 690.174 647.13 664 646 662.087C618.783 660.261 604.348 621.043 604.261 620.696L604 619.913L604.696 619.739C605.13 619.652 608.957 619.217 624.174 629.826C621.391 618.348 621.478 608.435 621.478 608.261V607.478L622.261 607.565C622.609 607.652 626.174 608.522 635.826 622.261C637.13 611.391 640.087 602.87 640.174 602.696L640.435 602L641.13 602.348C641.565 602.522 645.304 604.957 650.957 626.957C656.348 648.261 648.522 659.652 647.304 661.217C647.304 661.304 647.304 661.391 647.217 661.391V661.478C648.348 663.391 657.13 678.609 665.13 700C664.957 694.261 665.043 683.652 666.957 672C665.826 670.174 659.13 658.087 666.261 637.652C673.652 616.261 677.565 614.087 678 613.826L678.696 613.565L678.957 614.348C679.043 614.696 689.652 655.13 668.348 672.174C665.391 689.304 666.783 704.261 666.783 704.435C669.304 711.478 671.652 719.043 673.565 726.87C673.652 726.957 673.652 727.043 673.652 727.043C673.739 727.043 673.652 727.217 673.652 727.217C674.87 731.913 675.826 736.696 676.696 741.478C677.391 735.739 678.957 725.478 682.609 714.522C681.739 712.522 676.87 699.652 686.957 680.435C697.478 660.261 701.652 658.783 702.087 658.696L702.87 658.522L702.957 659.217V659.304C703.043 659.652 707.478 701.217 683.913 714.957C678.435 731.478 677.565 746.435 677.565 746.609C677.565 746.667 677.536 746.725 677.478 746.783C678.957 757.478 679.304 768.435 678.174 779.13C680 773.652 682.783 766.522 686.522 759.217C686 757.043 683.304 743.565 696.348 726.174C710 708.087 714.348 707.217 714.87 707.217L715.652 707.13ZM701.739 661.217C687.826 681.217 684.087 710.087 683.739 713.391C703.217 701.478 702.348 669.304 701.739 661.217ZM682.783 710.261C683.913 702.348 687.826 681.739 697.652 665.043C695.391 668.174 692.348 673.043 688.174 681.043C681.043 694.609 681.652 705.043 682.783 710.261ZM678.087 616.435C667.217 638.261 667.826 667.391 668 670.696C685.478 656 679.826 624.348 678.087 616.435ZM666.522 667.739C666.522 659.826 667.304 638.783 674.522 620.87C672.783 624.261 670.435 629.565 667.565 638C662.522 652.522 664.696 662.696 666.522 667.739ZM637.478 641.043C643.652 648.087 645.826 654.522 646.609 658.174C647.304 653.304 647.565 642.261 638.435 628.435C637.913 627.623 637.391 626.841 636.87 626.087C636.522 630.87 636.609 636.087 637.478 641.043ZM638 643.913C639.304 649.217 641.478 654.261 645.217 658.435C644.522 655.304 642.696 649.913 638 643.913ZM636.174 641.739C633.826 639.043 630.87 636.261 627.13 633.565C626.899 633.391 626.667 633.217 626.435 633.043C629.304 642.957 634.522 653.391 643.826 658.957C639.652 654 637.304 648 636.174 641.739ZM637.043 623.913C637.855 625.072 638.696 626.319 639.565 627.652C648.261 640.783 648.783 651.304 648.174 656.957C650.435 652.087 653.391 642.087 649.565 627.304C645.478 611.043 642.348 605.826 641.13 604.174C640.261 606.87 638 614.696 637.043 623.913ZM625.913 630.957C626.609 631.478 627.217 631.913 628 632.522C631.043 634.783 633.652 637.043 635.826 639.304C635.13 634.261 635.217 629.13 635.652 624.348C628.261 613.565 624.435 610.348 622.87 609.304C622.957 612.348 623.304 621.304 625.913 630.957ZM643.652 660.435C633.13 654.435 627.652 642.696 624.696 631.826C612.87 623.478 607.739 621.565 605.913 621.13C608.261 627.043 621.217 656.957 643.652 660.435ZM652.261 700.696C650.435 697.826 634.348 673.565 612.957 661.913C616.087 669.304 629.478 698.609 652.261 700.696ZM633.913 673.565C626.696 668.348 621.739 665.304 618.348 663.478C634.609 674.087 647.217 690.87 651.739 697.478C650.435 692.174 646.348 682.609 633.913 673.565ZM658.348 746.348C656.696 743.478 641.826 718.435 621.13 705.652C623.739 713.304 635.739 743.217 658.348 746.348ZM641.478 718.435C634.522 712.783 629.652 709.478 626.435 707.565C642.087 718.957 653.826 736.348 658 743.13C656.957 737.826 653.391 728 641.478 718.435ZM687.391 755.043C689.826 747.478 696.957 727.739 709.391 712.783C706.696 715.478 702.87 719.826 697.478 727.043C688.261 739.304 687.217 749.652 687.391 755.043ZM714.087 709.652C697.13 727.13 688.783 755.043 687.913 758.261C687.913 758.261 687.942 758.232 688 758.174C709.043 749.565 713.304 717.652 714.087 709.652Z" fill="#4C886A"/>
</g>
<path d="M-95.0391 -324.589C168.579 -262.169 380.903 -25.6361 416.653 245.553C428.008 331.184 423.814 422.055 461.096 499.751C490.787 561.797 544.296 609.467 575.865 670.501C618.148 751.97 617.139 850.971 592.908 940.233C568.678 1029.49 522.974 1111.26 477.817 1191.87L-587 691L-95.0391 -324.589Z" fill="url(#paint1_linear_29_318)"/>
<g clip-path="url(#clip3_29_318)">
<path d="M-97.7307 220.091C28.654 265.647 120.823 393.294 124.454 527.653C125.524 570.114 118.842 614.071 133.116 654.204C144.531 686.194 168.441 712.398 180.798 744.074C197.333 786.261 191.764 834.545 175.28 876.729C158.722 918.824 132.018 956.137 105.619 992.904" stroke="#D3D1CE" stroke-width="3"/>
</g>
<g clip-path="url(#clip4_29_318)">
<path d="M626.329 106.727C621.365 82.759 622.935 58.0754 627.317 33.9992C630.662 16.2409 635.269 -2.06252 647.027 -16.3684C657.062 -28.7567 670.13 -38.5273 680.723 -50.4681C696.17 -68.2292 710.436 -86.5728 727.121 -103.249C760.479 -135.786 798.653 -163.358 839.932 -184.862C881.4 -206.489 925.662 -222.116 971.576 -231.007C1016.92 -239.531 1063.61 -241.387 1109.61 -235.54C1286.1 -212.958 1443.07 -77.9857 1491.3 93.1982C1510.15 160.398 1512.77 235.377 1480.16 297.022C1451.8 351.083 1396.82 390.563 1336.54 400.113C1276.25 409.662 1211.66 389.17 1168.04 346.549C1157.72 336.796 1148.55 325.493 1136.18 318.406C1112.12 304.868 1081.82 309.609 1055.48 317.985C1029.14 326.361 1002.87 338.187 975.101 337.26C944.007 336.596 914.058 318.515 898.605 291.627C883.586 264.996 881.052 229.777 856.753 211.282C826.812 188.624 784.928 204.601 747.546 205.032C697.124 205.263 648.476 171.532 631.392 124.176C629.265 118.374 627.577 112.558 626.329 106.727Z" fill="#BDDFD1"/>
<g clip-path="url(#clip5_29_318)">
<path d="M794.13 140.217C790.27 140.948 785.199 140.951 783.403 136.701C781.38 132.063 783.404 126.46 786.538 122.861C789.033 119.997 792.478 117.93 796.273 117.377C800.028 116.842 804.053 117.858 806.998 120.353C808.624 121.776 809.936 123.687 810.287 125.841C810.727 128.298 809.873 130.805 808.362 132.727C806.869 134.689 804.837 136.111 802.674 137.247C800.005 138.664 797.109 139.692 794.13 140.217Z" fill="#CBC1B1"/>
</g>
<g clip-path="url(#clip6_29_318)">
<path d="M702.939 64.9536C688.801 67.6295 670.232 67.6432 663.653 52.0785C656.244 35.0897 663.656 14.5725 675.135 1.39154C684.273 -9.09636 696.888 -16.666 710.788 -18.6919C724.539 -20.6502 739.279 -16.9298 750.063 -7.79508C756.018 -2.58331 760.824 4.41538 762.108 12.3033C763.721 21.3027 760.595 30.485 755.06 37.5229C749.593 44.7099 742.148 49.9158 734.227 54.0777C724.453 59.2667 713.849 63.0317 702.939 64.9536Z" fill="#CBC1B1"/>
</g>
</g>
<g clip-path="url(#clip7_29_318)">
<path d="M-572.58 -271.1C-252.144 -248.848 57.5529 -44.9047 173.339 219.856C209.985 303.74 230.297 394.794 294.626 466.622C345.903 523.995 420.606 563.416 474.009 619.556C544.886 694.327 571.054 793.213 567.826 885.909C564.597 978.606 534.601 1067.09 504.862 1154.53" stroke="#D3D1CE" stroke-width="3"/>
<path fill-rule="evenodd" clip-rule="evenodd" d="M404.268 682.851L403.739 684.649C403.558 685.668 381.238 780.73 318.875 794.273C318.283 794.448 317.691 794.623 317.099 794.799C291.733 827.513 277.912 860.382 277.84 860.79C277.792 861.062 277.688 861.253 277.527 861.365C274.667 868.006 271.639 874.407 268.203 880.735C267.995 881.119 267.663 881.41 267.206 881.61C266.774 881.673 266.366 881.601 265.983 881.393C265.239 880.841 264.975 879.953 265.324 879.174C274.695 861.914 281.523 843.573 286.143 824.63C286.167 824.494 286.179 824.427 286.179 824.427C286.011 824.187 275.664 789.977 253.953 754.594C191.85 735.808 179.227 637.286 179 636.194L178.881 634.491L180.789 634.409C181.845 634.386 192.357 635.618 227.841 676.386C261.742 715.401 257.665 747.894 256.762 752.99C273.954 780.634 283.897 807.624 287.671 818.384C295.277 783.783 296.499 747.21 294.229 712.54C292.504 708.029 280.799 676.733 258.882 644.887C195.793 629.29 178.225 531.363 178.202 530.307L177.998 530.271L177.675 528.532L179.583 528.45C180.639 528.427 191.259 529.048 228.94 568.102C264.631 605.332 262.186 638.115 261.523 643.043C277.397 666.249 287.895 688.923 293.42 701.675C286.27 620.94 261.447 553.262 259.59 548.307C196.501 532.71 178.934 434.782 178.874 433.931L178.587 431.988L180.291 431.87C181.348 431.847 190.504 432.418 221.793 463.613C220.035 435.551 224.357 412.351 224.43 411.943L224.755 410.109L226.555 410.638C227.334 410.986 235.336 414.507 252.271 450.725C259.846 425.789 270.322 407.043 270.599 406.672L271.5 405.15L272.987 406.254C273.935 406.843 281.695 414.105 285.813 468.023C289.609 520.202 266.517 543.649 263.011 546.811C262.975 547.015 262.939 547.219 262.735 547.183L262.699 547.387C264.556 552.341 278.836 591.662 288.715 645.13C290.691 631.605 295.303 606.774 304.632 580.257C302.739 575.507 292.054 544.391 317.271 499.457C343.497 452.389 353.58 448.92 354.708 448.49L356.448 448.168L356.735 450.11C356.794 450.962 364.881 550.152 307.823 581.243C293.77 620.168 290.82 655.804 290.748 656.212C293.737 673.77 296.101 692.479 297.338 711.619C297.505 711.859 297.469 712.063 297.469 712.063C297.673 712.099 297.397 712.471 297.397 712.471C298.302 723.983 298.559 735.592 298.611 747.163C302.628 734 310.563 710.6 323.682 686.436C322.473 681.387 316.397 649.196 348.044 608.344C381.108 565.432 391.514 563.702 392.57 563.679L394.478 563.597L394.393 565.264L394.357 565.468C394.416 566.319 387.55 665.592 326.561 687.998C306.846 724.447 298.592 759.143 298.52 759.551C298.496 759.687 298.404 759.811 298.244 759.922C297.267 785.608 293.531 811.434 286.436 836.035C292.995 823.953 302.485 808.396 314.292 792.83C313.971 787.517 313.247 754.803 351.071 719.462C390.611 682.742 401.172 682.512 402.396 682.729L404.268 682.851ZM390.706 569.446C349.759 610.54 328.993 676.656 326.804 684.256C377.446 664.432 388.774 588.654 390.706 569.446ZM325.861 676.521C331.8 658.443 349.542 611.763 379.529 576.715C372.925 583.112 363.762 593.261 350.647 610.277C328.284 639.109 325.376 663.821 325.861 676.521ZM353.828 454.641C319.262 501.281 308.586 569.816 307.622 577.634C354.728 550.455 354.62 473.912 353.828 454.641ZM305.382 570.089C308.67 551.541 319.249 502.54 343.622 463.553C338.133 470.779 330.422 482.237 320.186 500.814C302.321 532.756 303.194 557.508 305.382 570.089ZM248.342 495.438C259.899 514.515 262.325 530.502 262.644 539.388C266.299 528.263 271.499 502.486 255.825 466.281C254.938 464.162 254.039 462.11 253.129 460.127C250.326 471.193 248.362 483.458 248.342 495.438ZM248.374 502.381C249.23 515.357 252.234 528.083 259.271 539.421C258.94 531.794 256.897 518.398 248.374 502.381ZM244.994 496.526C240.606 489.232 234.827 481.48 227.175 473.606C226.704 473.102 226.232 472.598 225.76 472.094C228.373 496.524 236.277 523.152 255.791 540.066C248.059 526.712 245.044 511.672 244.994 496.526ZM254.44 455.104C255.862 458.159 257.316 461.43 258.802 464.917C273.745 499.31 270.597 524.19 266.821 537.186C274.148 526.711 285.238 504.501 282.405 468.259C279.573 428.445 274.398 414.913 272.228 410.535C269.069 416.492 260.513 433.896 254.44 455.104ZM225.403 466.985C226.818 468.498 228.066 469.77 229.649 471.522C235.849 478.087 241.029 484.471 245.189 490.675C245.653 478.563 247.988 466.574 250.995 455.544C238.137 427.197 230.498 418.064 227.26 414.967C226.199 422.137 223.294 443.276 225.403 466.985ZM254.769 543.458C232.579 525.019 224.606 495.225 222.186 468.518C197.913 444.033 186.672 437.416 182.569 435.637C185.62 450.473 203.586 525.977 254.769 543.458ZM258.236 641.409C255.144 633.924 227.487 570.367 182.148 534.16C186.42 552.787 205.659 627.044 258.236 641.409ZM226.467 570.186C211.704 554.956 201.341 545.761 194.145 540.071C227.882 571.699 250.487 616.28 258.349 633.651C257.493 620.675 251.88 596.555 226.467 570.186ZM253.547 750.949C250.864 743.535 226.387 678.651 183.15 640.083C186.09 659.104 201.812 734.21 253.547 750.949ZM225.571 678.506C211.601 662.365 201.551 652.595 194.798 646.773C226.783 679.982 247.095 725.629 254.068 743.262C253.824 730.395 249.543 705.88 225.571 678.506ZM318.066 783.408C326.92 766.687 351.848 723.384 387.232 693.496C379.789 698.694 369.007 707.294 353.361 721.97C326.645 746.877 319.898 770.698 318.066 783.408ZM399.548 688.111C352.509 722.029 321.329 783.986 317.953 791.166C317.953 791.166 318.033 791.11 318.193 790.998C371.134 779.57 394.389 706.537 399.548 688.111Z" fill="#4C886A"/>
<path fill-rule="evenodd" clip-rule="evenodd" d="M138.731 751.746L137.897 752.71C137.498 753.29 96.9047 805.845 54.4879 796.661C54.072 796.603 53.656 796.544 53.2401 796.486C28.324 809.591 10.5104 826.043 10.3508 826.275C10.2444 826.43 10.126 826.519 9.9954 826.544C6.35431 829.848 2.67694 832.958 -1.23261 835.907C-1.46955 836.086 -1.75729 836.173 -2.09583 836.168C-2.38116 836.085 -2.61333 835.925 -2.7923 835.688C-3.09707 835.137 -3.01012 834.514 -2.57492 834.129C8.08746 826.086 17.4801 816.656 25.6757 806.232C25.7289 806.155 25.7555 806.116 25.7555 806.116C25.7192 805.92 28.9507 781.83 25.4787 753.813C-7.67045 724.691 12.2682 660.151 12.435 659.411L12.841 658.324L14.0453 658.81C14.7055 659.094 20.8649 662.818 31.3456 698.047C41.3401 731.747 29.6639 750.712 27.6694 753.611C30.5239 775.565 29.0761 795.073 28.381 802.796C42.8355 783.521 53.8946 761.227 62.2551 739.127C62.4577 735.849 64.0282 713.179 59.4322 687.294C24.7744 659.868 41.4848 594.304 41.7676 593.644L41.6516 593.564L41.9415 592.396L43.1458 592.883C43.806 593.166 50.2047 596.542 62.528 631.331C74.1328 664.429 63.3852 684.033 61.5866 686.896C64.8758 705.732 64.9873 722.724 64.8148 732.173C83.1305 680.186 86.8296 631.301 87.0756 627.711C52.4179 600.286 69.1283 534.721 69.3313 534.177L69.7011 532.894L70.7893 533.301C71.4494 533.584 76.9559 536.517 87.537 564.639C94.3531 546.774 103.564 533.631 103.723 533.399L104.441 532.355L105.406 533.19C105.791 533.625 109.752 538.058 110.032 565.247C121.746 551.946 133.511 543.294 133.786 543.141L134.773 542.453L135.382 543.556C135.803 544.187 138.561 550.868 125.922 585.403C113.574 618.77 92.6757 626.779 89.6146 627.749C89.5348 627.865 89.455 627.981 89.339 627.901L89.2592 628.017C89.0131 631.607 86.7761 659.969 77.8302 695.847C82.8634 688.032 92.7123 673.962 105.956 660.176C106.123 656.702 108.273 634.432 136.54 613.721C166.032 591.974 173.25 592.667 174.07 592.718L175.238 593.009L174.868 594.293C174.665 594.836 151.73 658.512 107.654 661.685C87.9911 681.82 76.1266 703.048 75.9671 703.28C72.8714 714.99 69.0649 727.237 64.4387 739.433C64.475 739.628 64.3952 739.744 64.3952 739.744C64.5113 739.824 64.2357 739.976 64.2357 739.976C61.5528 747.358 58.4419 754.615 55.2149 761.793C61.4089 754.776 72.9121 742.527 87.8395 731.265C88.5135 727.799 93.8201 706.162 124.916 689.79C157.47 672.541 164.398 674.401 165.059 674.685L166.263 675.171L165.741 676.179L165.661 676.295C165.458 676.839 133.244 736.353 89.1818 733.043C66.711 750.051 51.8284 769.203 51.6689 769.435C51.6157 769.512 51.5238 769.563 51.3932 769.587C43.5539 785.211 33.9663 800.145 22.6446 813.374C30.1083 807.743 40.3646 800.787 52.0574 794.477C53.3553 791.098 62.1224 770.645 95.4899 759.423C130.308 747.832 136.91 750.664 137.606 751.143L138.731 751.746ZM162.281 677.729C125.359 691.632 93.8815 726.707 90.3856 730.796C127.317 732.789 155.674 689.075 162.281 677.729ZM91.9807 725.742C100.75 716.225 124.88 692.328 153.315 679.08C147.425 681.18 138.894 684.881 125.983 691.719C104.019 703.267 95.2583 717.744 91.9807 725.742ZM171.792 596.278C137.258 615.411 111.345 654.827 108.546 659.394C145.36 655.839 166.854 608.43 171.792 596.278ZM109.285 654.093C116.545 643.538 136.896 616.187 162.964 598.92C157.532 601.847 149.531 606.766 137.962 615.383C117.906 630.122 111.474 645.689 109.285 654.093ZM95.0059 591.818C96.7856 606.881 93.7841 617.461 91.4782 623.051C96.8744 617.194 107.354 602.703 107.851 575.877C107.899 574.316 107.92 572.793 107.915 571.309C103.063 577.369 98.3925 584.408 95.0059 591.818ZM93.0698 596.124C89.9445 604.397 88.2194 613.121 89.3816 622.121C91.3249 617.307 93.8334 608.439 93.0698 596.124ZM92.6265 591.548C91.9655 585.797 90.5716 579.37 88.0533 572.342C87.9033 571.897 87.7533 571.452 87.6033 571.007C82.3393 586.864 79.7308 605.573 87.0456 621.54C86.0211 611.096 88.3916 600.937 92.6265 591.548ZM110.142 568.569C110.161 570.86 110.14 573.295 110.078 575.871C109.639 601.37 100.683 615.884 94.6845 622.864C102.17 618.444 115.291 607.82 123.746 584.589C133.209 559.147 133.816 549.313 133.707 545.991C130.073 548.789 119.875 557.152 110.142 568.569ZM88.8215 567.744C89.2715 569.079 89.6851 570.218 90.1714 571.748C92.16 577.558 93.5682 582.969 94.396 587.981C98.0944 580.615 102.917 573.851 107.886 567.871C107.911 546.702 105.755 538.897 104.623 536.068C101.947 540.208 94.1944 552.474 88.8215 567.744ZM85.4572 623.352C76.9162 605.688 80.3731 584.999 86.3986 567.786C78.2704 545.793 73.1767 538.531 71.1379 536.274C68.8472 546.317 58.6997 598.114 85.4572 623.352ZM60.0121 684.959C60.2071 679.455 60.9902 632.323 43.1247 597.14C40.5225 609.873 31.5138 661.257 60.0121 684.959ZM60.4098 631.924C55.5618 618.338 51.7375 609.728 48.8857 604.178C60.8598 633.259 62.2944 667.221 62.2674 680.188C65.3927 671.915 68.7124 655.404 60.4098 631.924ZM26.2545 751.442C26.6816 746.098 29.8079 699.04 13.9081 662.988C10.3701 675.59 -1.05433 726.508 26.2545 751.442ZM29.3436 698.721C25.2427 684.794 21.7738 675.915 19.2339 670.41C29.6775 699.975 29.3928 733.952 28.742 746.831C32.2154 738.798 36.471 722.418 29.3436 698.721ZM57.0475 789.708C67.2384 781.852 94.8665 762.069 125.188 753.536C119.116 754.657 110.02 756.944 96.2012 761.621C72.648 769.512 61.7615 782.357 57.0475 789.708ZM134.328 753.672C95.6571 761.417 58.9048 790.985 54.7922 794.478C54.7922 794.478 54.8575 794.466 54.9881 794.442C90.9774 802.28 125.944 763.625 134.328 753.672Z" fill="#4C886A"/>
<path fill-rule="evenodd" clip-rule="evenodd" d="M550.899 833.392L550.422 834.407C550.222 834.994 528.33 889.175 490.032 891.433C489.664 891.482 489.296 891.531 488.928 891.581C470.883 908.595 459.685 926.766 459.606 927C459.552 927.156 459.473 927.26 459.368 927.312C457.065 930.977 454.684 934.484 452.068 937.911C451.909 938.119 451.685 938.261 451.396 938.337C451.133 938.334 450.897 938.254 450.688 938.095C450.296 937.7 450.22 937.151 450.498 936.722C457.634 927.375 463.357 917.154 467.821 906.373C467.848 906.295 467.861 906.256 467.861 906.256C467.783 906.099 464.737 884.905 455.042 861.969C419.832 845.125 421.268 785.672 421.232 785.005L421.315 783.987L422.457 784.114C423.087 784.198 429.223 785.897 446.616 813.29C463.228 839.5 457.857 858.347 456.857 861.279C464.568 879.22 468.03 896.105 469.296 902.819C476.957 883.05 481.002 861.525 482.798 840.804C482.182 837.977 478.064 818.381 467.925 797.518C431.84 782.47 430.282 722.913 430.364 722.287L430.246 722.246L430.212 721.188L431.354 721.315C431.984 721.399 438.24 722.746 457.094 749.328C474.931 774.647 470.504 793.817 469.663 796.671C476.993 811.865 481.176 826.248 483.303 834.302C486.377 785.878 477.763 743.547 477.109 740.445C441.024 725.396 439.466 665.84 439.508 665.33L439.514 664.154L440.537 664.242C441.167 664.325 446.558 665.508 462.326 686.85C463.827 670.086 468.501 656.759 468.581 656.525L468.941 655.47L469.963 655.949C470.395 656.227 474.832 659.048 481.612 682.038C488.377 667.984 496.305 657.86 496.503 657.666L497.176 656.849L497.96 657.639C498.47 658.075 502.424 663.087 499.98 695.366C497.502 726.587 481.649 738.328 479.278 739.876C479.238 739.993 479.198 740.11 479.08 740.07L479.04 740.187C479.694 743.29 484.615 767.87 485.636 800.414C488.038 792.595 493.032 778.33 500.983 763.503C500.289 760.518 496.761 741.123 515.827 716.866C535.686 691.439 541.994 690.317 542.704 690.167L543.767 690.137L543.762 691.313C543.72 691.822 539.527 751.251 502.791 764.381C490.906 786.113 485.919 806.924 485.839 807.158C486.023 817.822 485.731 829.109 484.729 840.547C484.807 840.704 484.767 840.821 484.767 840.821C484.885 840.861 484.687 841.056 484.687 841.056C484.181 847.95 483.28 854.842 482.261 861.693C485.843 854.276 492.683 841.164 502.673 828.078C502.413 824.979 501.722 805.374 524.239 784.125C547.786 761.788 554.128 761.725 554.758 761.809L555.9 761.936L555.698 762.914L555.658 763.032C555.616 763.541 542.528 821.639 504.243 829.268C489.217 849.013 481.163 868.778 481.083 869.013C481.056 869.091 480.99 869.156 480.885 869.207C477.975 884.313 473.411 899.248 466.961 913.148C471.956 906.605 479.009 898.277 487.439 890.157C487.73 886.984 490.268 867.563 515.957 850.144C542.792 832.068 549.09 832.906 549.798 833.148L550.899 833.392ZM553.127 765.048C525.059 785.583 506.717 822.782 504.727 827.077C536.628 820.02 550.236 776.234 553.127 765.048ZM504.868 822.413C510.038 812.266 524.82 786.286 545.824 768.317C541.318 771.493 534.951 776.652 525.611 785.509C509.703 800.503 505.732 814.855 504.868 822.413ZM541.623 693.725C516.845 718.129 504.281 757.691 502.998 762.227C533.465 750.493 540.345 705.199 541.623 693.725ZM502.352 757.556C505.989 746.886 516.723 718.873 534.748 698.056C530.829 701.825 525.206 707.891 517.436 717.938C503.919 735.187 502.192 749.911 502.352 757.556ZM475.22 708.129C480.358 720.481 480.35 730.163 479.733 735.45C482.915 729.205 488.345 714.435 482.313 691.569C481.978 690.234 481.63 688.937 481.269 687.679C478.598 693.968 476.318 701.043 475.22 708.129ZM474.609 712.239C473.94 719.995 474.571 727.801 477.726 735.158C478.221 730.616 478.221 722.501 474.609 712.239ZM473.131 708.464C471.184 703.743 468.452 698.624 464.619 693.26C464.384 692.918 464.149 692.576 463.915 692.234C463.251 706.928 465.534 723.412 475.598 735.219C472.214 726.605 471.787 717.429 473.131 708.464ZM482.504 684.829C483.072 686.767 483.639 688.837 484.206 691.037C489.968 712.763 485.84 727.192 482.416 734.532C487.722 729.012 496.329 716.894 497.933 695.192C499.862 671.375 498.013 662.893 497.121 660.102C494.702 663.335 488.038 672.842 482.504 684.829ZM464.166 689.179C464.87 690.204 465.496 691.072 466.278 692.255C469.368 696.711 471.868 700.966 473.778 705.02C475.152 697.897 477.628 691.019 480.416 684.771C475.345 666.814 471.633 660.706 469.989 658.575C468.708 662.719 465.064 674.957 464.166 689.179ZM474.683 737.131C463.166 724.175 461.13 705.813 462.115 689.789C449.908 673.063 443.827 668.111 441.549 666.681C442.017 675.74 445.845 722.067 474.683 737.131ZM467.857 795.401C466.698 790.687 456.025 750.534 432.36 724.93C433.21 736.344 437.908 782.052 467.857 795.401ZM455.435 750.333C448.042 739.96 442.716 733.564 438.955 729.534C456.139 751.358 465.531 779.819 468.628 790.821C469.296 783.066 468.148 768.278 455.435 750.333ZM455.132 859.774C454.209 855.141 445.547 814.496 423.345 787.689C423.367 799.214 425.898 845.098 455.132 859.774ZM445.075 814.335C438.235 803.496 433.148 796.789 429.662 792.721C445.661 815.32 453.594 844.199 456.139 855.275C457.161 847.64 456.841 832.742 445.075 814.335ZM490.537 884.931C497.317 875.855 516.063 852.536 539.808 838.119C534.911 840.507 527.722 844.6 517.091 851.839C498.951 864.11 492.779 877.58 490.537 884.931ZM547.617 836.069C516.579 851.796 492.424 885.574 489.766 889.51C489.766 889.51 489.818 889.485 489.924 889.433C522.429 887.556 542.878 846.494 547.617 836.069Z" fill="#4C886A"/>
<g clip-path="url(#clip8_29_318)">
<path d="M105.501 243.458C116.027 246.04 128.755 251.817 128.388 264.477C128.143 278.367 116.639 290.044 104.645 295.452C95.0984 299.754 84.0834 300.983 73.9252 298.033C63.8894 295.083 54.9551 287.954 50.4267 278.367C47.9789 272.958 46.8775 266.69 48.4685 260.912C50.1819 254.275 55.1998 248.99 61.1969 245.917C67.1939 242.721 73.9252 241.492 80.6566 241.123C88.9789 240.631 97.4237 241.369 105.501 243.458Z" fill="#CBC1B1"/>
</g>
<g clip-path="url(#clip9_29_318)">
<path d="M280.964 250.25C286.355 251.563 292.875 254.5 292.687 260.938C292.561 268 286.669 273.938 280.525 276.688C275.636 278.875 269.994 279.5 264.791 278C259.651 276.5 255.075 272.875 252.755 268C251.502 265.25 250.937 262.063 251.752 259.125C252.63 255.75 255.2 253.063 258.272 251.5C261.343 249.875 264.791 249.25 268.239 249.063C272.502 248.813 276.827 249.188 280.964 250.25Z" fill="#CBC1B1"/>
</g>
<g clip-path="url(#clip10_29_318)">
<path d="M260.904 33.3749C275.281 36.9187 292.666 44.8499 292.164 62.2312C291.83 81.2999 276.116 97.3312 259.734 104.756C246.696 110.662 231.651 112.35 217.776 108.3C204.069 104.25 191.866 94.4624 185.681 81.2999C182.337 73.8749 180.833 65.2687 183.006 57.3375C185.346 48.225 192.2 40.9687 200.391 36.7499C208.582 32.3624 217.776 30.6749 226.97 30.1687C238.337 29.4937 249.872 30.5062 260.904 33.3749Z" fill="#CBC1B1"/>
</g>
<g clip-path="url(#clip11_29_318)">
<path d="M608.9 297.57C617.877 309.345 626.446 326.425 615.156 339.65C602.939 354.294 580.646 356.929 563.229 352.44C549.368 348.865 536.591 340.746 528.322 328.891C520.184 317.141 516.816 301.864 520.251 287.733C522.303 279.852 526.527 272.205 533.194 267.389C540.731 261.759 550.62 260.404 559.646 262.254C568.777 263.972 576.997 268.423 584.477 273.794C593.755 280.396 602.105 288.417 608.9 297.57Z" fill="#CBC1B1"/>
</g>
<g clip-path="url(#clip12_29_318)">
<path d="M659.309 123.548C655.449 124.279 650.378 124.283 648.582 120.033C646.559 115.394 648.582 109.791 651.717 106.192C654.212 103.329 657.657 101.262 661.452 100.708C665.207 100.174 669.232 101.19 672.176 103.684C673.802 105.107 675.115 107.018 675.465 109.172C675.906 111.629 675.052 114.136 673.541 116.058C672.048 118.021 670.015 119.442 667.852 120.579C665.183 121.995 662.288 123.024 659.309 123.548Z" fill="#CBC1B1"/>
</g>
</g>
<g clip-path="url(#clip13_29_318)">
<path d="M2270.66 510.298C1970.98 625.9 1604.05 572.372 1386.99 381.6C1318.26 321.142 1261.29 247.27 1172.58 209.46C1101.83 179.216 1017.46 175.156 945.303 146.929C849.423 109.227 783.825 30.7413 747.478 -54.5929C711.13 -139.927 700.815 -232.782 690.706 -324.589" stroke="#D3D1CE" stroke-width="3"/>
<g clip-path="url(#clip14_29_318)">
<path d="M989.361 578.411C999.485 575.479 1013.03 574.181 1018.9 585.074C1025.48 596.949 1021.5 612.425 1014.05 622.833C1008.11 631.115 999.436 637.51 989.441 639.951C979.549 642.333 968.543 640.643 960.045 634.73C955.341 631.342 951.351 626.572 949.867 620.909C948.067 614.459 949.709 607.546 953.257 602.03C956.745 596.41 961.813 592.097 967.3 588.513C974.068 584.051 981.539 580.57 989.361 578.411Z" fill="#CBC1B1"/>
</g>
</g>
<g clip-path="url(#clip15_29_318)">
<path d="M836.633 616.599C841.69 615.135 848.453 614.486 851.388 619.927C854.675 625.858 852.687 633.588 848.962 638.786C845.998 642.923 841.665 646.117 836.673 647.336C831.733 648.526 826.235 647.682 821.991 644.728C819.642 643.036 817.648 640.654 816.908 637.826C816.008 634.604 816.829 631.151 818.601 628.396C820.343 625.589 822.874 623.435 825.615 621.645C828.995 619.416 832.726 617.677 836.633 616.599Z" fill="#CBC1B1"/>
</g>
<g clip-path="url(#clip16_29_318)">
<path d="M1427.37 369.117C1453.95 403.977 1479.32 454.54 1445.89 493.693C1409.72 537.048 1343.73 544.848 1292.16 531.56C1251.13 520.975 1213.3 496.938 1188.82 461.842C1164.73 427.055 1154.76 381.831 1164.93 339.994C1171 316.665 1183.51 294.025 1203.24 279.768C1225.56 263.098 1254.83 259.087 1281.55 264.564C1308.59 269.651 1332.92 282.827 1355.07 298.727C1382.53 318.273 1407.26 342.02 1427.37 369.117Z" fill="#CBC1B1"/>
</g>
<g clip-path="url(#clip17_29_318)">
<path d="M2270.66 300.298C1970.98 415.9 1604.05 362.372 1386.99 171.6C1318.26 111.142 1261.29 37.2699 1172.58 -0.539641C1101.83 -30.7843 1017.46 -34.844 945.303 -63.0714C849.423 -100.773 783.825 -179.259 747.478 -264.593C711.13 -349.927 700.815 -442.782 690.706 -534.589" stroke="#D3D1CE" stroke-width="3"/>
<path fill-rule="evenodd" clip-rule="evenodd" d="M1168.64 228.422C1170.3 226.994 1172.06 225.684 1173.72 224.146C1175.37 222.828 1176.62 221.036 1177.86 219.245C1179.95 216.408 1182.05 213.461 1185.66 212.622C1189.04 211.986 1192.55 212.468 1195.89 213.714C1206.35 217.595 1215.4 228.464 1216.02 229.174C1229.67 239.277 1238.21 257.089 1240.59 263.804C1245.36 268.259 1253.72 273.535 1264.31 280.196C1302.54 304.094 1373.81 348.624 1406.16 444.229C1406.33 444.797 1405.95 445.544 1405.38 445.723C1404.81 445.903 1404.17 445.633 1403.89 444.947C1371.81 350.138 1301.08 305.87 1263.17 282.106C1252.57 275.556 1244.1 270.271 1239.23 265.698C1236.89 265.967 1226.68 267.536 1220.01 275.351C1213.46 282.954 1197.77 292.759 1190.63 290.455C1189.11 290.009 1187.32 288.768 1186.99 285.641C1186.96 284.641 1186.91 283.751 1186.87 282.861C1185.97 283.016 1175.66 284.576 1171.67 280.069C1170.14 278.293 1169.75 276.048 1170.53 273.113C1170.96 271.705 1169.14 269.463 1167.19 267.324C1164.23 263.89 1160.57 259.517 1163.35 254.848C1164.11 253.648 1164.86 252.448 1165.61 251.248C1165.4 251.122 1160.59 248.769 1158.58 241.527C1157.44 237.453 1162.4 233.389 1168.64 228.422ZM1186.81 280.64C1186.95 275.775 1187.85 272.628 1188.53 270.905C1182.23 269.218 1177.76 266.779 1177.33 266.637C1177 266.502 1176.81 266.155 1176.71 265.926C1176.63 265.587 1176.76 265.265 1176.9 264.942C1176.9 264.942 1177.14 264.628 1177.39 264.314C1175.7 263.191 1174.27 261.533 1173.23 259.129C1171.72 255.581 1171.17 251.107 1171.47 247.029C1169.37 249.865 1167.26 252.922 1165.36 256.106C1163.59 259.077 1165.7 262.004 1168.97 265.793C1171.31 268.517 1173.56 271.122 1172.81 273.726C1172.2 275.897 1172.42 277.465 1173.45 278.539C1176 281.499 1183.8 280.97 1186.6 280.514C1186.71 280.522 1186.7 280.632 1186.81 280.64ZM1208.4 227.278C1200.91 223.729 1193.18 223.376 1185.21 226.108C1184.61 228.28 1183.06 237.252 1190.23 249.532C1194.03 246.158 1198.47 243.052 1203.13 241.515C1210.41 239.063 1215.14 239.416 1218.71 240.678C1221.19 241.638 1223.07 243.108 1224.74 244.451C1225.37 244.941 1226 245.431 1226.63 245.921C1228.21 247.036 1230.46 249.531 1232.59 252.238C1227.28 243.199 1219.1 232.396 1208.4 227.278ZM1211.98 267.107C1222.44 260.571 1232.13 261.402 1236.92 262.534C1234.14 258.227 1228.44 249.935 1225.27 247.815C1224.64 247.325 1223.98 246.796 1223.28 246.227C1219.51 243.287 1215.33 239.873 1203.97 243.682C1192.48 247.594 1182.27 261.241 1179.54 265.139C1184.04 267.247 1200.48 274.231 1211.98 267.107ZM1180.88 253.048C1181.33 254.522 1182.25 255.588 1183.65 256.135C1185.1 254.47 1186.66 252.813 1188.57 251.071C1186.09 247.119 1184.59 243.461 1183.61 240.175C1181.93 243.485 1179.84 249.203 1180.88 253.048ZM1182.4 234.21C1180.71 235.969 1177.83 238.969 1174.77 242.842C1173.13 247.042 1173.41 253.712 1175.41 258.182C1175.96 259.664 1177.05 261.407 1178.76 262.31C1179.62 261.155 1180.72 259.686 1182.07 258.013C1180.37 257 1179.14 255.579 1178.62 253.656C1177.06 247.888 1180.99 239.647 1182.85 237.015C1182.63 236.038 1182.48 235.103 1182.4 234.21ZM1233.9 264.415C1228.96 263.826 1221.29 264.032 1213.16 269.079C1206.19 273.437 1197.68 273.026 1190.82 271.518C1190.03 273.122 1188.58 277.669 1189.33 285.482C1189.52 287.491 1190.59 288.014 1191.34 288.291C1196.97 290.04 1211.69 281.382 1218.23 273.889C1222.97 268.257 1229.38 265.63 1233.9 264.415ZM1160.73 240.911C1162.48 247.137 1166.44 249.093 1166.66 249.11C1166.76 249.228 1166.75 249.338 1166.86 249.457C1173.43 239.972 1180.63 232.638 1182.3 230.99C1182.25 227.218 1183.08 225.063 1183.2 224.851C1183.23 224.52 1183.46 224.316 1183.81 224.12C1191.56 221.261 1199.21 221.165 1206.54 223.926C1207.19 224.196 1207.83 224.465 1208.48 224.735C1202.87 219.664 1194.04 213.244 1186.15 214.985C1183.45 215.56 1181.73 217.87 1179.75 220.604C1178.39 222.498 1177.03 224.392 1175.25 225.922C1173.59 227.46 1171.82 228.881 1170.06 230.19C1164.88 234.349 1160.05 238.201 1160.73 240.911Z" fill="#4C886A"/>
<path fill-rule="evenodd" clip-rule="evenodd" d="M1084.88 88.1009C1089.08 85.1997 1098.29 85.1083 1101.06 85.0928C1100.36 82.6025 1100.23 79.8227 1101.03 76.5573C1101.74 72.953 1104.78 70.8516 1107.7 68.8523C1109.45 67.6526 1111.21 66.3428 1112.65 64.7879C1114.11 63.0126 1115.57 61.3476 1116.91 59.6743C1122.03 53.4058 1126.05 48.4962 1130.07 49.6811C1130.57 49.8663 1131.07 50.0514 1131.58 50.2366C1136.43 52.0381 1138.65 54.9737 1139.44 56.2516C1140.82 55.6151 1142.23 55.0549 1143.67 54.5709C1148.79 52.7354 1153.84 53.3328 1158.26 54.9913C1166.78 58.1735 1173.11 65.4044 1173.99 67.0211C1175.18 68.8828 1172.86 74.8052 1171.26 78.4541C1172.14 78.5196 1173.03 78.475 1174.01 78.6589C1174.67 78.7081 1175.22 78.8225 1175.65 79.0023C1177.59 79.7008 1178.38 81.0889 1178.74 82.2238C1179.72 85.3999 1178.37 90.0652 1175.91 94.8691C1177.61 94.3307 1179.64 93.9272 1181.15 94.4827C1181.79 94.7523 1182.32 95.1239 1182.71 95.818C1184.59 98.8392 1180.72 104.757 1178.23 106.899C1177.05 107.92 1174.94 109.425 1172.25 111.331C1165.71 115.832 1155.89 122.748 1154.13 126.94C1153.65 128.899 1153.55 130.332 1153.4 130.874C1158.95 151.568 1204.79 202.74 1266.03 242.201C1248.85 224.301 1244.94 208.384 1241.11 192.806C1239.92 187.952 1238.7 183.429 1237.27 178.889C1227.51 149.129 1228.89 148.456 1230.38 147.791C1230.72 147.705 1231.17 147.628 1231.6 147.771C1232.89 148.31 1235.13 151.025 1240.59 160.962C1253.87 185.111 1259.13 206.78 1261.07 214.903L1261.6 216.826C1266.12 235.004 1274.77 246.841 1275.98 248.482C1280.22 251.014 1284.51 253.512 1288.83 255.976C1360.02 295.623 1379.16 369.08 1379.33 369.758C1379.5 370.435 1379.12 371.072 1378.45 371.243C1377.88 371.423 1377.24 371.043 1377.07 370.365C1376.9 369.688 1358.02 297.247 1287.68 257.996C1262.46 243.931 1239.31 227.47 1219.47 211.034C1192.38 208.688 1178.58 197.577 1166.57 187.708C1163.64 185.384 1160.82 183.069 1157.87 180.966C1137.04 166.008 1137.79 164.845 1138.55 163.571C1139.06 162.722 1139.87 162.229 1144.18 163.879C1146.02 164.569 1148.49 165.64 1151.91 167.224C1172.37 176.725 1186.24 188.505 1191.44 192.993L1192.59 193.964C1200.21 200.294 1208.66 204.357 1214.26 206.657C1179.04 176.555 1155.52 146.991 1151.34 131.719C1150.7 131.339 1149.54 130.588 1148.06 129.591C1143.66 127.712 1136.8 127.535 1129.6 127.443C1127.91 127.391 1126.21 127.339 1124.52 127.287C1115.13 126.921 1105.33 125.971 1098.95 120.842C1088.06 112.386 1082.42 100.22 1082.62 93.1415C1082.69 90.7087 1083.48 88.9945 1084.88 88.1009ZM1210.21 207.464C1204.73 205.063 1197.7 201.215 1191.13 195.74L1189.98 194.768C1184.77 190.39 1171.12 178.737 1150.99 169.261C1145.84 166.884 1143.15 165.908 1141.63 165.462C1143.5 167.153 1147.97 171.032 1159.23 179.072C1162.17 181.286 1165 183.491 1168.03 185.932C1178.38 194.348 1189.87 203.736 1210.21 207.464ZM1269.14 242.1C1266 236.547 1261.98 228.048 1259.33 217.434L1258.81 215.511C1256.87 207.387 1251.7 185.947 1238.52 162.027C1234.71 155.095 1232.72 152.065 1231.7 150.881C1231.95 153.449 1233.55 160.328 1239.42 178.163C1240.96 182.821 1242.16 187.565 1243.37 192.198C1247.19 207.887 1251.2 224.032 1269.14 242.1ZM1121.38 124.726C1117.82 121.913 1113.23 119.577 1108.31 117.216C1101.48 113.716 1093.89 109.938 1088.01 104.071C1090.52 109.023 1094.45 114.412 1100.31 119.059C1105.55 123.106 1113.43 124.357 1121.38 124.726ZM1142.8 125.875C1139.13 123.054 1135.26 119.995 1133.76 117.778C1133.36 117.158 1132.89 116.532 1132.35 115.9C1129.21 111.899 1125.37 106.848 1129.63 94.3095C1131.3 89.6688 1134.4 85.3549 1137.78 81.5065C1125.59 74.1719 1116.61 75.6104 1114.46 76.2262C1110.99 85.72 1111.1 94.5943 1114.83 102.629C1120.75 115.37 1134.58 123.158 1141.81 125.691C1142.18 125.719 1142.51 125.78 1142.8 125.875ZM1122.09 73.4688C1123.04 73.6133 1124.1 73.8028 1125.26 74.0371C1127.95 72.2417 1136.34 68.211 1141.98 69.8494C1142.19 69.9393 1142.41 70.0291 1142.62 70.119C1144.24 70.6828 1145.59 71.8914 1146.37 73.3897C1148.02 72.0717 1149.54 70.9659 1150.72 70.0559C1147.96 65.418 1136.9 63.5985 1131.31 64.2909C1126.84 67.7267 1123.68 71.4813 1122.09 73.4688ZM1153.53 70.9302C1149.56 73.6273 1135.85 83.6898 1131.89 95.1429C1127.96 106.375 1131.29 110.724 1134.22 114.488C1134.76 115.193 1135.27 115.859 1135.74 116.485C1137.74 119.404 1144.68 124.463 1149.11 127.453C1149.54 127.632 1149.93 127.846 1150.28 128.094C1149.32 123.146 1148.69 113.68 1155.11 103.407C1162.39 91.8692 1155.64 75.4087 1153.53 70.9302ZM1144.48 74.9118C1143.92 73.5401 1142.88 72.5764 1141.36 72.1311C1137.56 71.0728 1131.76 73.0796 1128.53 74.834C1129.29 75.0016 1130.16 75.2875 1131.02 75.5735C1133.61 76.5416 1136.39 77.967 1139.36 79.7394C1141.04 77.9805 1142.82 76.34 1144.48 74.9118ZM1174.24 97.9587C1171.08 103.264 1167.04 108.394 1163.37 111.447C1160.19 114.091 1157.95 117.36 1156.5 120.466C1160.55 116.667 1166.28 112.66 1170.84 109.453C1173.41 107.649 1175.63 106.041 1176.7 105.123C1179.31 102.879 1181.52 98.3893 1180.74 97.0012C1180.34 96.4174 1178.36 96.2699 1174.24 97.9587ZM1159.78 82.2554C1161.27 89.1258 1161.53 97.5675 1157.12 104.665C1151.98 112.705 1151.63 120.326 1152.26 125.249C1153.49 120.686 1156.17 114.457 1161.84 109.671C1165.51 106.618 1169.43 101.59 1172.35 96.5989C1172.35 96.5989 1172.35 96.5622 1172.36 96.4887C1175.52 91.1829 1177.46 85.8973 1176.58 82.9498C1176.3 82.1538 1175.71 81.1127 1173.73 80.9652C1165.93 80.0528 1161.5 81.4966 1159.78 82.2554ZM1134.48 61.8671C1137.91 61.9006 1142.19 62.5508 1145.96 63.9398C1148.87 65.0427 1151.3 66.6639 1152.59 68.7542C1153.04 68.5666 1153.28 68.3626 1153.4 68.2605C1153.63 68.0565 1153.97 68.0811 1154.3 68.1057C1154.3 68.1057 1154.33 68.1451 1154.4 68.2241C1154.69 68.3194 1154.9 68.4827 1155.03 68.7141C1155.22 69.0611 1157.65 73.6744 1159.29 79.8918C1160.89 79.3452 1164.05 78.4725 1168.94 78.3922C1168.95 78.1718 1168.85 78.0534 1168.98 77.8412C1170.97 73.4454 1172.29 69.0004 1172.03 68.0942C1170.84 66.1222 1158.04 51.9828 1144.39 56.7305C1140.75 58.0113 1137.4 59.8677 1134.48 61.8671ZM1103.21 77.0518C1101.19 86.3215 1106.67 91.6051 1109.83 93.8347C1109.06 87.7931 1109.97 81.4336 1112.46 74.8582C1112.59 74.5357 1112.84 74.2215 1113.18 74.1359C1113.4 74.042 1115.56 73.316 1119.22 73.366C1120.81 71.2683 1127.32 62.7754 1137.37 57.3164C1136.68 56.1569 1134.45 53.3316 1129.45 51.9627C1126.85 51.215 1122.84 56.0144 1118.69 61.1362C1117.34 62.8094 1115.88 64.5847 1114.32 66.2416C1112.74 68.1189 1110.87 69.4205 1109 70.7222C1106.31 72.6277 1103.85 74.3293 1103.21 77.0518ZM1084.94 93.2034C1084.96 94.4239 1085.08 95.7629 1085.52 97.3468C1091.3 106.088 1100.91 110.903 1109.36 115.077C1115.45 118.079 1121.11 120.938 1125.03 124.887C1126.57 125.001 1128.08 125.077 1129.56 125.112C1131.48 125.107 1133.32 125.134 1135.09 125.191C1127.3 121.177 1117.52 114.022 1112.65 103.575C1111.63 101.357 1110.88 99.1212 1110.38 96.8678C1108.78 95.9734 1104.02 92.9596 1101.78 87.3626C1101.77 87.436 1101.73 87.47 1101.66 87.4646C1101.55 87.4564 1090.38 87.0696 1086.18 89.9708C1085.48 90.4727 1084.94 91.6522 1084.94 93.2034Z" fill="#4C886A"/>
<path fill-rule="evenodd" clip-rule="evenodd" d="M1201.96 90.3784C1202 89.7171 1202.59 89.3172 1203.13 89.4684C1211.84 90.1157 1218.83 91.5218 1225.19 93.8789C1234.46 97.3389 1242.25 102.905 1251.95 111.051C1269.58 125.771 1274.9 137.803 1280.61 150.417C1281.55 152.63 1282.53 154.809 1283.56 156.954C1285.08 160.281 1286.61 163.608 1288.02 167.037C1281.64 138.082 1277.43 114.164 1275 97.6928C1259.44 57.9706 1259.33 38.5688 1262.82 6.57904C1262.83 6.50557 1262.83 6.39535 1262.85 6.2484C1262.92 6.18039 1263 6.11238 1263.08 6.04437C1263.25 5.83487 1263.48 5.66757 1263.78 5.54247C1263.93 5.5534 1264.11 5.60379 1264.33 5.69365C1264.4 5.69912 1264.47 5.70458 1264.55 5.71004C1264.62 5.78898 1264.68 5.86792 1264.75 5.94685C1264.89 6.03125 1265 6.14966 1265.06 6.30207C1265.34 6.98793 1271.84 22.4319 1275.82 37.467C1285.4 73.975 1278.14 95.7098 1277.31 97.8648C1281.78 127.232 1291.46 180.37 1310.2 242.826C1309.79 236.368 1309.73 229.714 1310.45 223.008C1313.61 188.001 1321.08 171.047 1335.6 148.632C1335.68 148.491 1335.76 148.386 1335.84 148.318C1335.92 148.25 1336 148.182 1336.08 148.114C1336.3 148.057 1336.56 148.039 1336.86 148.061C1336.93 148.067 1336.97 148.106 1336.96 148.18C1337.25 148.275 1337.46 148.438 1337.59 148.67C1337.59 148.67 1337.62 148.709 1337.69 148.788C1337.75 148.94 1337.78 149.127 1337.76 149.347C1337.71 150.008 1336.79 163.903 1334.07 176.557C1327.89 206.019 1315.02 219.69 1312.86 221.968C1312.82 222.408 1312.79 222.849 1312.76 223.29C1311.71 234.405 1312.12 245.296 1314.02 255.522C1320.85 276.975 1328.59 299.493 1337.64 322.33C1336.14 315.68 1335.12 308.622 1334.89 301.181C1334.82 294.748 1333.68 289.232 1332.35 283.26C1329.98 271.891 1327.53 260.183 1332.85 242.183C1340.26 217.024 1352.07 199.837 1373.84 182.838C1374.18 182.642 1374.63 182.564 1374.95 182.699C1375.1 182.71 1375.24 182.794 1375.38 182.952C1375.8 183.316 1375.86 183.985 1375.49 184.402C1375.11 185.038 1361.5 205.636 1357.57 239.145C1353.15 277.714 1339.21 296.847 1337.25 299.361C1337.28 299.954 1337.27 300.545 1337.23 301.132C1337.6 315.456 1341.1 328.018 1345.04 340.612C1345.04 340.612 1345.04 340.612 1345.03 340.722C1352.84 359.367 1361.54 378.077 1371.01 396.734C1371.3 397.31 1371.03 397.955 1370.45 398.244C1369.88 398.534 1369.23 398.375 1368.94 397.799C1365.27 390.507 1361.71 383.261 1358.25 376.059C1350.87 364.983 1343.46 354.347 1332.51 345.111C1332.03 344.705 1331.58 344.302 1331.16 343.902C1327.73 343.868 1304.21 342.674 1271.52 321.847C1243.26 304.009 1217.38 312.17 1216.7 312.452C1216.55 312.441 1216.4 312.43 1216.26 312.419C1216.1 312.481 1215.99 312.473 1215.93 312.394C1215.7 312.378 1215.49 312.251 1215.4 312.023C1215.33 311.944 1215.26 311.865 1215.19 311.786C1215.13 311.634 1215.11 311.447 1215.13 311.227C1215.14 311.08 1215.14 310.97 1215.15 310.896C1215.24 310.681 1215.4 310.472 1215.64 310.268C1233.49 299.737 1262.15 298.875 1286.3 307.874C1287.45 308.329 1288.6 308.784 1289.74 309.239C1302.97 314.765 1312.5 323.675 1322.66 333.074C1326.28 336.557 1330.01 340.048 1333.98 343.335C1341.49 349.656 1347.29 356.516 1352.52 363.775C1335.96 327.081 1322.6 290.625 1311.95 256.477L1311.85 256.358C1311.86 256.211 1311.83 256.098 1311.77 256.019C1303.44 229.357 1296.78 204.149 1291.38 181.472C1290.94 181.329 1290.63 181.084 1290.54 180.745C1288.17 172.479 1284.93 165.367 1281.38 157.9C1280.43 155.761 1279.45 153.582 1278.43 151.364C1278.31 151.059 1278.18 150.754 1278.06 150.449C1276.22 149.759 1258.64 143.354 1238.12 119.664C1216.8 94.9175 1203.07 91.791 1202.85 91.7746C1202.2 91.6153 1201.8 91.0314 1201.96 90.3784ZM1232.23 306.182C1245.91 305.647 1264.09 309.991 1286.57 319.198C1301.3 325.28 1314.75 332.154 1323.16 336.769C1322.47 336.126 1321.78 335.484 1321.09 334.841C1311.14 325.568 1301.71 316.777 1288.81 311.386C1270.54 303.71 1249.39 302.027 1232.23 306.182ZM1326.38 341.219C1314.25 334.333 1279.6 316.02 1250.43 310.306C1257.4 312.042 1264.93 315.041 1272.77 319.945C1297.64 335.757 1317.49 340.004 1326.38 341.219ZM1335.97 289.625C1338.7 269.326 1346.87 220.617 1365.91 192.555C1350.44 206.809 1341.22 222.081 1335.02 242.898C1329.96 260.253 1332.32 271.732 1334.6 282.763C1335.1 285.016 1335.6 287.269 1335.97 289.625ZM1337.72 294.41C1342.38 286.998 1351.82 268.75 1355.26 238.862C1357.62 219.09 1363.19 203.767 1367.67 194.237C1347.72 224.006 1339.7 278.266 1337.72 294.41ZM1313.91 212.293C1318.47 200.11 1326.94 177.135 1333.09 156.979C1322.87 173.729 1317.14 188.153 1313.91 212.293ZM1315.22 215.494C1320.02 209.091 1327.62 196.357 1331.79 176.054C1332.94 170.932 1333.68 165.446 1334.25 160.833C1327.82 181.633 1319.25 204.6 1315.22 215.494ZM1267.18 17.9854C1271.68 45.3605 1275.28 77.544 1276.71 91.06C1278.48 82.1045 1280.3 63.6217 1273.56 38.0746C1271.76 30.9592 1269.2 23.6762 1267.18 17.9854ZM1274.1 88.8713C1272.46 73.6776 1268.87 41.4941 1264.29 15.1108C1262.01 39.8758 1262.98 58.1226 1274.1 88.8713ZM1274.38 146.297C1265.9 136.58 1241.92 110.305 1218.58 97.8203C1224.36 102.018 1231.52 108.535 1239.9 118.134C1254.49 135.066 1267.75 143.034 1274.38 146.297ZM1215.03 93.3454C1239.05 104.218 1264.21 131.024 1274.52 142.872C1269.8 133.323 1263.84 124.015 1250.49 112.826C1237.97 102.365 1228.78 96.2515 1215.03 93.3454Z" fill="#4C886A"/>
</g>
<g clip-path="url(#clip18_29_318)">
<path d="M1316.52 754.194C1323.4 763.49 1328.93 772.926 1331.1 784.257C1333.05 795.247 1328.08 804.408 1323.72 814.143C1323.41 818.179 1322.75 822.433 1321.95 826.066C1329.38 832.846 1336.31 839.953 1342.38 847.603C1342.92 848.457 1341.94 849.559 1341.06 848.923C1330.22 838.31 1318.92 828.473 1307.21 819.133C1304.54 817.954 1301.73 817.185 1298.78 816.824C1286.62 836.559 1254.75 837.412 1236.09 827.702C1235.42 827.408 1235.33 826.507 1235.8 825.731C1241.4 815.685 1251.95 811.132 1263.36 810.583C1272.58 809.989 1284.82 810.357 1294.23 814.202C1296.7 814.067 1299.12 814.21 1301.47 814.634C1289.48 805.232 1276.98 796.156 1264.31 787.189C1260.66 787.113 1257.25 786.649 1253.82 786.914C1249.57 798.729 1238.86 803.391 1227.18 805.787C1217.2 807.825 1205.05 810.997 1195.02 807.307C1194.18 807.121 1193.81 806.159 1194.28 805.382C1199.31 795.942 1209.61 789.868 1219.62 786.37C1228.05 783.402 1242.59 778.707 1251.3 783.717C1251.3 783.717 1251.41 783.888 1251.52 784.059C1253.72 783.375 1256.15 783.032 1258.23 782.907C1256.01 781.439 1253.76 779.913 1251.47 778.331C1251.19 778.269 1250.91 778.207 1250.7 777.865C1250.7 777.865 1250.66 777.808 1250.59 777.695C1248.04 775.957 1245.55 774.183 1243.12 772.373C1236.85 768.05 1230.53 763.913 1224.18 759.963C1221.26 759.902 1218.42 758.832 1215.43 759.051C1213.75 759.165 1212.04 759.373 1210.31 759.674C1208.68 778.225 1173.13 785.739 1160.03 776.089C1159.53 775.685 1159.27 774.894 1159.56 774.226C1167.93 760.981 1189.78 755.709 1204.67 757.984C1205.23 758.108 1205.67 758.791 1205.54 759.35C1206.51 758.977 1207.47 758.604 1208.54 758.402C1211.54 757.454 1215.16 756.35 1218.81 756.426C1208.5 750.035 1197.78 744.14 1187.05 738.976C1184.69 739.039 1182.46 738.543 1180.1 738.606C1179.01 738.659 1177.87 738.747 1176.67 738.872C1176.77 739.042 1176.88 739.213 1176.82 739.493C1171.37 752.799 1154.44 751.098 1142.61 750.234C1138.57 749.926 1121.49 752.883 1121.43 745.245C1121.68 738.849 1136.62 736.297 1140.86 735.038C1151.25 732.503 1161.22 731.194 1171.34 735.785C1171.9 735.909 1172.05 736.53 1172.1 736.98C1173 736.886 1173.9 736.793 1174.8 736.699C1176.77 736.403 1178.86 736.278 1181.04 736.324C1179.9 735.776 1178.84 735.249 1177.88 734.742C1177.36 735.068 1177.02 735.286 1176.36 734.991C1175.69 734.453 1175.03 733.915 1174.37 733.377C1169.03 731.02 1163.62 728.942 1158.16 727.144C1157.92 727.532 1157.24 727.967 1156.85 727.735C1156.15 727.383 1155.48 727.088 1154.85 726.851C1139.03 731.406 1122.57 731.568 1108.1 722.788C1107.6 722.385 1107.34 721.593 1107.74 721.097C1113.47 713.13 1123.01 711.139 1132.34 713.355C1140.05 714.919 1151.09 718.687 1156.85 725.096C1161.69 726.656 1166.5 728.31 1171.29 730.057C1170.15 728.629 1169 727.201 1167.57 725.712C1165.64 723.819 1163.55 722.034 1161.28 720.359C1143.9 718.706 1121.7 706.452 1117.14 688.726C1116.88 687.934 1117.51 687.049 1118.52 687.126C1126.38 687.402 1133.12 692.708 1139.48 697.052C1148.67 703.195 1155.16 709.619 1162.34 718.247C1162.55 718.589 1162.6 719.039 1162.54 719.318C1167.85 723.135 1172.92 727.339 1177.37 732.429C1186.88 736.446 1196.28 741.021 1205.44 745.984C1203.22 742.12 1200.72 738.194 1197.88 734.485C1180.13 729.23 1156.33 705.039 1157.19 686.023C1157.2 685.293 1157.95 684.579 1158.9 684.935C1179.38 691.089 1189.68 710.675 1197.43 729.254C1202.3 735.026 1206.49 741.234 1208.93 748.079C1222.36 755.602 1235.43 764.072 1248.45 772.821C1246.8 769.231 1245.13 765.734 1243.45 762.329C1220.36 749.44 1207.09 726.703 1206.53 700.19C1206.5 699.01 1207.91 698.59 1208.86 698.947C1232.26 710.439 1244.88 737.429 1248.79 762.048C1248.88 762.948 1248.2 763.383 1247.64 763.259C1249.3 766.999 1250.73 771.128 1251.77 775.024C1265.77 784.58 1280.4 793.981 1294.67 804.329C1293.8 801.204 1292.91 798.172 1292 795.234C1281.84 781.546 1270.76 769.412 1264.64 753.394C1260.55 742.809 1255.38 729.787 1260.16 718.825C1260.46 718.158 1261.53 717.955 1262.31 718.421C1285.25 732.599 1298.32 762.181 1294.72 788.945C1294.72 788.945 1294.72 788.945 1294.54 789.054C1296.44 795.045 1297.66 800.742 1297.71 806.47C1305.39 812.133 1312.85 818.184 1319.96 824.452C1320.42 821.916 1320.85 819.324 1321.25 816.674C1321.25 816.674 1321.21 816.617 1321.14 816.503C1320.58 816.38 1320.25 815.867 1320.44 815.029C1320.48 814.843 1320.52 814.656 1320.57 814.47C1317.88 803.465 1312.87 793.703 1311.55 781.828C1310.29 772.313 1310.09 763.325 1314.27 754.428C1314.57 753.76 1316.09 753.511 1316.52 754.194ZM1274.11 767.516C1268.07 758.407 1264.61 746.936 1262.26 736.444C1260.19 727.922 1260.21 719.275 1270.08 727.623C1276.09 732.914 1280.44 739.742 1284.16 746.726C1289.99 758.133 1291.63 770.52 1292.65 783.063C1288.51 772.027 1282.78 761.52 1277.75 752.488C1277.38 751.526 1275.9 752.225 1276.45 753.078C1283.04 764.951 1287.05 777.275 1290.43 789.754C1285.37 782.181 1279.17 775.09 1274.11 767.516ZM1209.79 707.95C1208.4 694.445 1229.99 721.959 1232.55 725.606C1239.8 735.863 1241.91 747.474 1245.65 759.006C1240.92 749.306 1235.05 740.088 1229.74 730.994C1229.37 730.031 1227.89 730.73 1228.27 731.693C1233.19 740.554 1237.49 749.572 1241.79 758.589C1224.66 745.262 1212.38 731.249 1209.79 707.95ZM1163.89 700.705C1161.39 696.779 1159.97 692.65 1159.78 688.21C1159.69 687.31 1174.92 697.285 1176.63 698.837C1182.94 705.369 1186.98 713.595 1190.91 721.65C1186.51 717.01 1182.12 712.371 1178.46 707.746C1178.02 707.063 1177.11 707.887 1177.54 708.569C1183.44 716.329 1189.74 723.591 1195.64 731.35C1182.77 723.951 1171.59 713.555 1163.89 700.705ZM1122.32 695.74C1117.7 688.85 1125.56 691.765 1128.77 693.797C1131.94 695.379 1134.81 697.629 1137.85 699.769C1143.22 703.306 1147.74 707.387 1152.09 711.577C1149.33 709.498 1146.5 707.698 1143.81 707.249C1143.74 707.135 1143.65 707.115 1143.53 707.187C1143.61 707.301 1143.59 707.394 1143.47 707.467C1143.43 707.653 1143.41 707.746 1143.41 707.746C1145.82 710.772 1151.05 712.959 1153.81 715.038C1154.99 715.886 1156.14 716.677 1157.24 717.411C1144.01 713.598 1130.27 707.472 1122.32 695.74ZM1130.63 727.637C1124.79 727.516 1119.43 725.888 1114.37 723.593C1107.97 720.708 1114.79 717.088 1118.3 715.814C1129 711.882 1138.66 717.249 1147.69 722.771C1146.69 722.451 1145.63 722.167 1144.51 721.919C1143.99 721.608 1143.51 721.355 1143.07 721.159C1142.96 720.988 1142.89 721.267 1143.07 721.159C1143.21 721.386 1143.41 721.578 1143.67 721.733C1142.37 721.444 1141.01 721.191 1139.59 720.974C1138.92 720.679 1138.73 721.518 1139.4 721.812C1143.76 722.876 1148.04 724.07 1152.24 725.393C1152.36 725.32 1152.45 725.341 1152.52 725.454C1145.32 726.203 1137.92 727.789 1130.63 727.637ZM1142.55 747.875C1139.24 747.581 1135.7 747.676 1132.16 747.771C1127.61 747.788 1121.2 745.633 1127.67 742.231C1133.36 739.093 1140.24 737.832 1146.56 736.448C1150.39 735.685 1154.06 735.032 1157.99 735.17C1161.81 735.137 1165.31 736.502 1168.95 737.307C1164.14 737.806 1159.28 738.341 1154.37 738.913C1153.92 738.959 1153.62 739.627 1154.18 739.751C1159.55 740.649 1164.85 739.917 1170.25 739.356C1172.05 739.169 1173.8 739.018 1175.49 738.903C1168.11 750.316 1154.6 749.08 1142.55 747.875ZM1170.96 777.047C1169.22 776.954 1162 775.793 1162.99 773.961C1166.13 769.085 1172.14 766.459 1177.41 764.547C1185.39 761.625 1193.8 762.025 1202.03 760.625C1197.33 762.66 1192.67 765.146 1187.96 767.182C1187.17 767.446 1187.82 768.47 1188.34 768.144C1194.28 765.797 1200.19 763 1206.07 760.933C1207.03 760.56 1207.93 760.467 1208.73 760.202C1204.22 773.865 1183.35 778.035 1170.96 777.047ZM1222.38 804.283C1217.57 805.269 1212.72 805.954 1207.85 806.339C1206.5 806.479 1196.56 806.328 1197.43 805.055C1202.94 796.747 1213.72 791.806 1222.77 788.682C1230.69 786.039 1238.1 786.362 1245.97 785.909C1240.37 788.038 1235.13 791.129 1231.39 792.792C1230.71 793.227 1231.3 794.531 1232.15 793.987C1237.37 791.625 1242.7 789.434 1248.35 787.755C1249.48 787.516 1250.61 787.278 1251.73 787.039C1246.14 798.995 1234.34 801.949 1222.38 804.283ZM1266.35 830.747C1260.39 831.184 1254.51 830.613 1248.75 829.482C1246.23 828.924 1243.95 827.978 1241.49 827.141C1236.76 825.358 1240.8 823.028 1242.75 820.822C1253.72 809.765 1269.94 812.63 1284.43 815.402C1280.7 816.335 1277.09 817.439 1273.47 818.542C1272.68 818.807 1272.99 820.048 1273.78 819.784C1279.65 818.447 1285.35 817.218 1291.31 816.78C1292.91 817.038 1294.48 817.24 1296.01 817.384C1287.54 825.18 1278.06 829.531 1266.35 830.747ZM1322.28 768.52C1325.81 774.433 1327.75 780.874 1328.33 787.456C1329.03 794.208 1326.55 800.108 1323.95 805.838C1323.8 799.939 1322.68 794.413 1320.2 789.757C1319.82 788.795 1318.52 789.385 1318.89 790.347C1322.01 796.757 1322.48 803.898 1321.76 811.07C1321.76 811.07 1321.8 811.127 1321.87 811.241C1320.04 804.97 1317.42 798.964 1315.69 792.864C1313.15 783.209 1312.58 770.62 1314.69 761.118C1315.62 756.927 1322.06 768.178 1322.28 768.52Z" fill="#4C886A"/>
</g>
<g clip-path="url(#clip19_29_318)">
<path d="M1425.99 714.194C1432.87 723.49 1438.39 732.926 1440.56 744.257C1442.52 755.247 1437.55 764.408 1433.18 774.143C1432.87 778.179 1432.22 782.433 1431.41 786.066C1438.85 792.846 1445.77 799.953 1451.84 807.603C1452.38 808.457 1451.41 809.559 1450.52 808.923C1439.68 798.31 1428.38 788.473 1416.68 779.133C1414 777.954 1411.19 777.185 1408.24 776.824C1396.08 796.559 1364.22 797.412 1345.56 787.702C1344.89 787.408 1344.8 786.507 1345.26 785.731C1350.87 775.685 1361.41 771.132 1372.83 770.583C1382.05 769.989 1394.29 770.357 1403.7 774.202C1406.17 774.067 1408.58 774.21 1410.93 774.634C1398.95 765.232 1386.45 756.156 1373.78 747.189C1370.13 747.113 1366.71 746.649 1363.28 746.914C1359.04 758.729 1348.32 763.391 1336.65 765.787C1326.66 767.825 1314.52 770.997 1304.49 767.307C1303.65 767.121 1303.28 766.159 1303.74 765.382C1308.78 755.942 1319.07 749.868 1329.09 746.37C1337.52 743.402 1352.06 738.707 1360.77 743.717C1360.77 743.717 1360.87 743.888 1360.98 744.059C1363.19 743.375 1365.61 743.032 1367.69 742.907C1365.48 741.439 1363.22 739.913 1360.94 738.331C1360.66 738.269 1360.38 738.207 1360.16 737.865C1360.16 737.865 1360.12 737.808 1360.05 737.695C1357.51 735.957 1355.02 734.183 1352.58 732.373C1346.31 728.05 1340 723.913 1333.64 719.963C1330.72 719.902 1327.88 718.832 1324.9 719.051C1323.21 719.165 1321.5 719.373 1319.78 719.674C1318.14 738.225 1282.6 745.739 1269.49 736.089C1269 735.685 1268.73 734.894 1269.03 734.226C1277.4 720.981 1299.25 715.709 1314.14 717.984C1314.7 718.108 1315.13 718.791 1315.01 719.35C1315.97 718.977 1316.93 718.604 1318.01 718.402C1321 717.454 1324.62 716.35 1328.27 716.426C1317.96 710.035 1307.25 704.14 1296.52 698.976C1294.16 699.039 1291.92 698.543 1289.56 698.606C1288.48 698.659 1287.33 698.747 1286.13 698.872C1286.24 699.042 1286.35 699.213 1286.29 699.493C1280.83 712.799 1263.91 711.098 1252.08 710.234C1248.04 709.926 1230.96 712.883 1230.9 705.245C1231.15 698.849 1246.08 696.297 1250.32 695.038C1260.71 692.503 1270.68 691.194 1280.8 695.785C1281.36 695.909 1281.52 696.53 1281.57 696.98C1282.47 696.886 1283.37 696.793 1284.27 696.699C1286.24 696.403 1288.32 696.278 1290.51 696.324C1289.36 695.776 1288.31 695.249 1287.34 694.742C1286.83 695.068 1286.49 695.286 1285.82 694.991C1285.16 694.453 1284.5 693.915 1283.83 693.377C1278.49 691.02 1273.09 688.942 1267.62 687.144C1267.39 687.532 1266.71 687.967 1266.32 687.735C1265.61 687.383 1264.95 687.088 1264.32 686.851C1248.49 691.406 1232.03 691.568 1217.56 682.788C1217.06 682.385 1216.8 681.593 1217.2 681.097C1222.94 673.13 1232.47 671.139 1241.8 673.355C1249.52 674.919 1260.56 678.687 1266.32 685.096C1271.15 686.656 1275.97 688.31 1280.76 690.057C1279.61 688.629 1278.46 687.201 1277.03 685.712C1275.11 683.819 1273.01 682.034 1270.75 680.359C1253.37 678.706 1231.17 666.452 1226.61 648.726C1226.34 647.934 1226.98 647.049 1227.99 647.126C1235.84 647.402 1242.58 652.708 1248.95 657.052C1258.14 663.195 1264.63 669.619 1271.8 678.247C1272.02 678.589 1272.07 679.039 1272 679.318C1277.31 683.135 1282.39 687.339 1286.83 692.429C1296.35 696.446 1305.74 701.021 1314.9 705.984C1312.68 702.12 1310.18 698.194 1307.34 694.485C1289.59 689.23 1265.79 665.039 1266.65 646.023C1266.67 645.293 1267.41 644.579 1268.36 644.935C1288.84 651.089 1299.15 670.675 1306.89 689.254C1311.77 695.026 1315.96 701.234 1318.4 708.079C1331.83 715.602 1344.9 724.072 1357.91 732.821C1356.27 729.231 1354.6 725.734 1352.91 722.329C1329.82 709.44 1316.55 686.703 1316 660.19C1315.97 659.01 1317.38 658.59 1318.33 658.947C1341.73 670.439 1354.35 697.429 1358.25 722.048C1358.35 722.948 1357.66 723.383 1357.1 723.259C1358.77 726.999 1360.19 731.128 1361.23 735.024C1375.24 744.58 1389.86 753.981 1404.13 764.329C1403.26 761.204 1402.37 758.172 1401.46 755.234C1391.31 741.546 1380.22 729.412 1374.11 713.394C1370.01 702.809 1364.84 689.787 1369.63 678.825C1369.92 678.158 1370.99 677.955 1371.77 678.421C1394.72 692.599 1407.79 722.181 1404.18 748.945C1404.18 748.945 1404.18 748.945 1404.01 749.054C1405.9 755.045 1407.13 760.742 1407.17 766.47C1414.86 772.133 1422.31 778.184 1429.42 784.452C1429.89 781.916 1430.32 779.324 1430.71 776.674C1430.71 776.674 1430.68 776.617 1430.6 776.503C1430.05 776.38 1429.72 775.867 1429.91 775.029C1429.95 774.843 1429.99 774.656 1430.03 774.47C1427.35 763.465 1422.33 753.703 1421.01 741.828C1419.76 732.313 1419.56 723.325 1423.74 714.428C1424.03 713.76 1425.55 713.511 1425.99 714.194ZM1383.58 727.516C1377.54 718.407 1374.08 706.936 1371.72 696.444C1369.66 687.922 1369.67 679.275 1379.55 687.623C1385.56 692.914 1389.9 699.742 1393.63 706.726C1399.45 718.133 1401.09 730.52 1402.12 743.063C1397.97 732.027 1392.24 721.52 1387.22 712.488C1386.84 711.526 1385.37 712.225 1385.91 713.078C1392.51 724.951 1396.51 737.275 1399.9 749.754C1394.83 742.181 1388.64 735.09 1383.58 727.516ZM1319.26 667.95C1317.86 654.445 1339.46 681.959 1342.02 685.606C1349.27 695.863 1351.38 707.474 1355.12 719.006C1350.38 709.306 1344.52 700.088 1339.21 690.994C1338.83 690.031 1337.36 690.73 1337.73 691.693C1342.65 700.554 1346.95 709.572 1351.25 718.589C1334.13 705.262 1321.85 691.249 1319.26 667.95ZM1273.36 660.705C1270.86 656.779 1269.43 652.65 1269.25 648.21C1269.15 647.31 1284.38 657.285 1286.09 658.837C1292.41 665.369 1296.45 673.595 1300.37 681.65C1295.98 677.01 1291.59 672.371 1287.92 667.746C1287.49 667.063 1286.57 667.887 1287.01 668.569C1292.9 676.329 1299.21 683.591 1305.11 691.35C1292.24 683.951 1281.06 673.555 1273.36 660.705ZM1231.79 655.74C1227.16 648.85 1235.02 651.765 1238.23 653.797C1241.4 655.379 1244.27 657.629 1247.32 659.769C1252.69 663.306 1257.21 667.387 1261.55 671.577C1258.79 669.498 1255.97 667.698 1253.28 667.249C1253.21 667.135 1253.11 667.115 1253 667.187C1253.07 667.301 1253.05 667.394 1252.94 667.467C1252.9 667.653 1252.88 667.746 1252.88 667.746C1255.28 670.772 1260.51 672.959 1263.28 675.038C1264.46 675.886 1265.6 676.677 1266.71 677.411C1253.48 673.598 1239.74 667.472 1231.79 655.74ZM1240.09 687.637C1234.25 687.516 1228.9 685.888 1223.83 683.593C1217.44 680.708 1224.26 677.088 1227.76 675.814C1238.46 671.882 1248.12 677.249 1257.16 682.771C1256.15 682.451 1255.09 682.167 1253.98 681.919C1253.46 681.608 1252.98 681.355 1252.53 681.159C1252.42 680.988 1252.36 681.267 1252.53 681.159C1252.68 681.386 1252.88 681.578 1253.14 681.733C1251.83 681.444 1250.47 681.191 1249.05 680.974C1248.39 680.679 1248.2 681.518 1248.87 681.812C1253.22 682.876 1257.5 684.07 1261.71 685.393C1261.82 685.32 1261.91 685.341 1261.99 685.454C1254.78 686.203 1247.39 687.789 1240.09 687.637ZM1252.01 707.875C1248.71 707.581 1245.17 707.676 1241.63 707.771C1237.08 707.788 1230.66 705.633 1237.14 702.231C1242.82 699.093 1249.7 697.832 1256.02 696.448C1259.86 695.685 1263.52 695.032 1267.45 695.17C1271.27 695.137 1274.78 696.502 1278.41 697.307C1273.61 697.806 1268.75 698.341 1263.83 698.913C1263.38 698.959 1263.09 699.627 1263.65 699.751C1269.02 700.649 1274.31 699.917 1279.72 699.356C1281.52 699.169 1283.26 699.018 1284.95 698.903C1277.57 710.316 1264.06 709.08 1252.01 707.875ZM1280.42 737.047C1278.69 736.954 1271.47 735.793 1272.46 733.961C1275.6 729.085 1281.61 726.459 1286.87 724.547C1294.85 721.625 1303.27 722.025 1311.5 720.625C1306.79 722.66 1302.14 725.146 1297.43 727.182C1296.64 727.446 1297.29 728.47 1297.8 728.144C1303.75 725.797 1309.65 723 1315.54 720.933C1316.5 720.56 1317.4 720.467 1318.19 720.202C1313.69 733.865 1292.82 738.035 1280.42 737.047ZM1331.85 764.283C1327.03 765.269 1322.19 765.954 1317.31 766.339C1315.96 766.479 1306.03 766.328 1306.9 765.055C1312.41 756.747 1323.19 751.806 1332.24 748.682C1340.16 746.039 1347.57 746.362 1355.44 745.909C1349.83 748.038 1344.6 751.129 1340.86 752.792C1340.17 753.227 1340.76 754.531 1341.62 753.987C1346.84 751.625 1352.16 749.434 1357.81 747.755C1358.94 747.516 1360.07 747.278 1361.2 747.039C1355.61 758.995 1343.81 761.949 1331.85 764.283ZM1375.82 790.747C1369.86 791.184 1363.97 790.613 1358.21 789.482C1355.7 788.924 1353.41 787.978 1350.96 787.141C1346.22 785.358 1350.26 783.028 1352.22 780.822C1363.18 769.765 1379.41 772.63 1393.9 775.402C1390.17 776.335 1386.55 777.439 1382.93 778.542C1382.14 778.807 1382.45 780.048 1383.24 779.784C1389.11 778.447 1394.81 777.218 1400.78 776.78C1402.38 777.038 1403.95 777.24 1405.48 777.384C1397 785.18 1387.53 789.531 1375.82 790.747ZM1431.75 728.52C1435.27 734.433 1437.21 740.874 1437.8 747.456C1438.5 754.208 1436.01 760.108 1433.42 765.838C1433.26 759.939 1432.15 754.413 1429.66 749.757C1429.29 748.795 1427.99 749.385 1428.36 750.347C1431.48 756.757 1431.94 763.898 1431.23 771.07C1431.23 771.07 1431.26 771.127 1431.34 771.241C1429.5 764.97 1426.88 758.964 1425.16 752.864C1422.61 743.209 1422.04 730.62 1424.15 721.118C1425.09 716.927 1431.53 728.178 1431.75 728.52Z" fill="#4C886A"/>
</g>
<g clip-path="url(#clip20_29_318)">
<path d="M1021.81 764.594C1034.52 781.267 1046.65 805.452 1030.67 824.178C1013.37 844.914 981.802 848.645 957.14 842.289C937.514 837.227 919.421 825.73 907.713 808.944C896.19 792.306 891.42 770.675 896.284 750.665C899.189 739.507 905.171 728.678 914.61 721.859C925.283 713.886 939.285 711.968 952.066 714.587C964.996 717.021 976.636 723.323 987.226 730.927C1000.36 740.276 1012.19 751.634 1021.81 764.594Z" fill="#CBC1B1"/>
</g>
</g>
<defs>
<linearGradient id="paint0_linear_29_318" x1="635.056" y1="299.067" x2="-331.63" y2="558.489" gradientUnits="userSpaceOnUse">
<stop stop-color="#D7A084"/>
<stop offset="1" stop-color="#FFE4C6" stop-opacity="0.25"/>
</linearGradient>
<linearGradient id="paint1_linear_29_318" x1="-251764" y1="-205394" x2="345003" y2="75310.6" gradientUnits="userSpaceOnUse">
<stop stop-color="#D0D0D0"/>
<stop offset="1" stop-color="#A06442" stop-opacity="0"/>
</linearGradient>
<clipPath id="clip0_29_318">
<rect width="1366" height="768" fill="white"/>
</clipPath>
<clipPath id="clip1_29_318">
<rect width="359" height="351" fill="white" transform="translate(805.427 52.9688) rotate(157.367)"/>
</clipPath>
<clipPath id="clip2_29_318">
<rect width="1733.33" height="1002.33" fill="white" transform="translate(410.736 -539.092) rotate(74.9779)"/>
</clipPath>
<clipPath id="clip3_29_318">
<rect width="607.221" height="323.929" fill="white" transform="translate(153.018 921.955) rotate(-129.002)"/>
</clipPath>
<clipPath id="clip4_29_318">
<rect width="764.14" height="782.226" fill="white" transform="translate(1612.1 243.42) rotate(147.187)"/>
</clipPath>
<clipPath id="clip5_29_318">
<rect width="29.7196" height="21.4936" fill="white" transform="translate(813.787 132.217) rotate(155.435)"/>
</clipPath>
<clipPath id="clip6_29_318">
<rect width="108.841" height="78.7154" fill="white" transform="translate(774.925 35.6548) rotate(155.435)"/>
</clipPath>
<clipPath id="clip7_29_318">
<rect width="877.973" height="952.334" fill="white" transform="translate(-76.8149 -89) rotate(13.9253)"/>
</clipPath>
<clipPath id="clip8_29_318">
<rect width="82" height="59" fill="white" transform="translate(47 241)"/>
</clipPath>
<clipPath id="clip9_29_318">
<rect width="42" height="30" fill="white" transform="translate(251 249)"/>
</clipPath>
<clipPath id="clip10_29_318">
<rect width="112" height="81" fill="white" transform="translate(181 30)"/>
</clipPath>
<clipPath id="clip11_29_318">
<rect width="112" height="81" fill="white" transform="translate(548.773 244.836) rotate(38.8331)"/>
</clipPath>
<clipPath id="clip12_29_318">
<rect width="29.7196" height="21.4936" fill="white" transform="translate(678.965 115.548) rotate(155.435)"/>
</clipPath>
<clipPath id="clip13_29_318">
<rect width="877.973" height="952.334" fill="white" transform="translate(1744.44 555.387) rotate(168.859)"/>
</clipPath>
<clipPath id="clip14_29_318">
<rect width="79.7267" height="57.6595" fill="white" transform="translate(938.901 604.771) rotate(-30)"/>
</clipPath>
<clipPath id="clip15_29_318">
<rect width="39.8205" height="28.7988" fill="white" transform="translate(811.43 629.765) rotate(-30)"/>
</clipPath>
<clipPath id="clip16_29_318">
<rect width="331.574" height="239.799" fill="white" transform="translate(1249.37 213) rotate(38.8331)"/>
</clipPath>
<clipPath id="clip17_29_318">
<rect width="877.973" height="952.334" fill="white" transform="translate(1744.44 345.387) rotate(168.859)"/>
</clipPath>
<clipPath id="clip18_29_318">
<rect width="162" height="257" fill="white" transform="translate(1093.53 702.552) rotate(-32.4787)"/>
</clipPath>
<clipPath id="clip19_29_318">
<rect width="162" height="257" fill="white" transform="translate(1203 662.552) rotate(-32.4787)"/>
</clipPath>
<clipPath id="clip20_29_318">
<rect width="158.589" height="114.694" fill="white" transform="translate(936.67 689.925) rotate(38.8331)"/>
</clipPath>
</defs>
</svg>
