<svg width="1366" height="768" viewBox="0 0 1366 768" fill="none" xmlns="http://www.w3.org/2000/svg">
<g clip-path="url(#clip0_29_361)">
<rect width="1366" height="768" fill="white"/>
<g clip-path="url(#clip1_29_361)">
<path d="M89.0473 484.333C80.7139 501 67.8568 516.714 51.1901 525.286C38.333 531.952 21.9044 536.714 7.61868 539.333C-9.28608 542.667 -21.4289 533.381 -31.9051 521C-44.048 507.191 -54.7623 492.429 -60.7146 474.81C-68.0956 452.191 -65.9527 432.905 -54.7623 411.714C-47.1432 397.429 -37.3813 381.714 -21.9051 375.762C-6.19084 369.81 13.8092 361.476 30.4758 360.762C48.5711 360.286 70.2377 371.952 81.9044 385.286C93.0949 397.905 97.8568 415.048 96.4282 431.952C98.0949 446 98.8092 464.572 89.0473 484.333V484.333Z" stroke="#A06442" stroke-width="0.5"/>
<path d="M24.0472 458.858C20.2377 463.381 13.3329 456.238 15.2377 451C18.0948 442.667 27.6186 449.81 24.2853 457.429L24.0472 458.858Z" stroke="#A06442" stroke-width="0.5"/>
<path d="M24.7616 464.333C21.1902 468.857 15.9521 469.333 12.6188 464.095C9.04733 458.857 8.33304 452.429 10.9521 446.476C16.9045 431.952 28.5711 444.333 29.7616 454.571C31.1902 457.429 26.4283 462.19 24.7616 464.333V464.333Z" stroke="#A06442" stroke-width="0.5"/>
<path d="M24.7615 474.095C19.5234 476.714 12.1425 475.524 7.85677 471.476C1.90439 466.238 2.38058 454.095 4.28535 446.953C6.6663 438.619 10.4758 427.191 20.7139 426.238C25.7139 425.524 32.8568 431.714 35.2377 436C39.2853 443.143 40.7139 449.334 38.0949 457.429C40.4758 461.476 28.8092 471.953 24.7615 474.095V474.095Z" stroke="#A06442" stroke-width="0.5"/>
<path d="M38.0951 477.191C28.3332 488.381 18.0951 488.381 5.23798 482.429C-9.28583 476 -8.33344 456.952 -3.80964 443.619C-1.66678 436.714 2.14274 430.048 6.66655 424.571C10.9523 419.095 18.8094 412.905 25.9523 413.143C34.5237 413.381 40.4761 419.095 44.2856 426.238C48.0951 433.381 51.6665 443.857 49.0475 451.714C50.9523 458.381 43.3332 471 38.0951 477.191V477.191Z" stroke="#A06442" stroke-width="0.5"/>
<path d="M61.1903 462.191C55.7141 468.857 51.6665 476.476 46.9046 483.857C37.3808 498.143 16.9046 500.762 1.6665 495.286C-6.90493 492.191 -13.3335 486.714 -17.6192 478.381C-24.0478 464.81 -17.8573 449.81 -13.8097 436.476C-7.85731 416.952 9.99982 395.524 32.1427 395.524C45.7141 395.524 61.1903 402.191 64.5236 416C65.9522 421.714 68.3332 427.191 69.0474 433.143C69.5236 437.667 70.7141 444.572 69.0474 449.095C69.2855 455.048 65.2379 456.952 61.1903 462.191V462.191Z" stroke="#A06442" stroke-width="0.5"/>
<path d="M68.571 476.476C61.9043 486.238 54.0472 494.572 45.9519 502.905C39.2852 509.81 32.3805 514.81 22.6186 516C10.7138 517.667 -1.90523 513.143 -10.4767 504.81C-20.0005 495.524 -30.2386 488.619 -33.0957 475.048C-35.0005 466.953 -35.7148 460.286 -35.0005 451.953C-34.0481 444.095 -30.9528 437.191 -27.8576 430.048C-20.7148 413.381 -6.90523 398.143 10.2376 392.667C15.2376 391 19.7614 389.095 25.2376 388.381C32.8567 387.429 40.9519 387.429 48.3329 389.572C56.4281 391.953 60.9519 395.048 65.9519 401.953C69.0472 406.953 70.9519 412.191 72.8567 417.429C75.2376 424.81 78.8091 431.714 79.9995 439.572C80.7138 444.81 81.19 450.286 79.5233 455.286C78.571 457.905 76.6662 459.81 75.9519 462.429C76.6662 467.191 70.4757 473.857 68.571 476.476V476.476Z" stroke="#A06442" stroke-width="0.5"/>
<path d="M88.095 449.572C88.095 453.858 88.5712 457.429 87.1426 461.715C85.2378 468.619 84.0474 476.715 79.9998 482.667C74.9998 490.286 68.3331 496.953 61.6664 502.667C56.6664 506.953 51.1902 511 46.1902 515.286C40.714 520.048 35.4759 526.238 28.5712 528.143C22.1426 530.048 16.4283 529.096 9.99976 528.619C2.8569 527.905 -3.80977 527.191 -10.7145 524.572C-16.6669 522.429 -22.6193 517.905 -28.0955 514.334C-35.0002 509.334 -42.1431 502.191 -44.286 493.619C-49.7621 473.619 -57.6193 451.715 -49.7622 431.238C-42.6193 412.429 -30.2383 398.381 -13.3336 388.143C-6.19072 383.619 1.42832 379.334 9.52356 376.715C16.1902 374.334 24.2855 370.286 31.4283 371.238C39.5236 372.429 47.8569 376 55.4759 378.143C61.4283 380.048 67.1426 381.477 72.3807 385.286C79.5236 390.762 81.4283 396.477 84.2855 404.572C86.4283 410.762 87.8569 416.953 88.8093 423.143C89.7617 428.858 91.6664 435.524 89.7617 441C90.2378 443.143 88.3331 446.477 88.095 449.572V449.572Z" stroke="#A06442" stroke-width="0.5"/>
<path d="M102.143 436.953C101.904 441.238 102.143 445.762 101.666 450.048C101.19 456.238 101.904 462.667 100.714 468.857C98.8092 476.953 95.2377 485.048 91.9044 492.905C88.333 501.476 85.2377 511.714 79.5235 519.095C74.9996 525.524 65.952 529.81 59.2854 533.143C54.5235 535.524 48.333 538.143 43.0949 539.095C39.5235 539.81 35.952 539.572 32.6187 540.524C28.333 541.953 24.5235 543.857 20.2377 545.048C16.1901 546 11.9044 546.953 7.8568 547.667C4.28537 548.381 0.713943 547.905 -3.09558 549.095C-7.61939 550.524 -13.3337 551.238 -17.8575 549.81C-28.0956 546.476 -35.0003 537.667 -40.4765 528.857C-46.667 519.333 -53.5718 509.81 -58.5718 499.572C-62.3813 491.476 -65.7146 483.381 -70.2384 475.524C-82.3813 453.857 -78.8099 426.476 -64.5241 406.476C-59.5241 399.572 -57.8575 391.953 -51.1908 386C-46.667 381.714 -40.7146 378.619 -35.0003 375.762C-28.3337 372.111 -22.0638 367.984 -16.1908 363.381C-11.9051 359.81 -5.71463 358.619 -0.714628 356.714C9.99966 352.667 17.6187 351.238 29.2854 352.667C34.2854 353.381 39.2854 353.143 44.2854 353.381C49.7616 353.857 53.5711 355.286 58.5711 357.667C65.952 361.476 73.333 365.524 79.5235 371.476C84.2854 376 91.1901 378.619 94.2854 384.572C98.5711 392.905 98.5711 402.191 99.5235 411C100.476 418.143 101.904 424.81 102.143 431.953C102.857 432.905 102.143 435.048 102.143 436.953V436.953Z" stroke="#A06442" stroke-width="0.5"/>
</g>
<g clip-path="url(#clip2_29_361)">
<path d="M264.086 147.297C323.634 150.997 394.809 166.25 441.108 212.473C489.888 261.284 488.566 320.948 511.151 376.443C531.944 427.427 576.135 478.009 630.944 513.561C696.342 555.934 770.938 575.055 842.072 602.671C913.206 630.287 990.49 674.618 1021.63 735.11C1034.79 760.77 1038.08 786.494 1038.27 810.772C1039.49 961.302 930.848 1068.33 796.496 1134.87C737.644 1164 670.988 1187.42 591.904 1183.35C510.147 1179.13 421.125 1145.4 340.564 1099.92C186.479 1012.94 59.6574 883.96 -31.1819 749.841C-96.1805 653.871 -145.214 552.51 -159.999 456.001C-173.006 371.4 -159.29 283.696 -108.48 226.293C-72.2085 185.277 3.91606 178.015 63.3606 163.516C124.897 148.456 192.817 142.851 264.086 147.297Z" fill="#BDDFD1"/>
<g clip-path="url(#clip3_29_361)">
<path d="M975.777 1409.57C804.105 1410.72 596.022 1309.24 474.296 1165.09C435.91 1119.51 404.286 1069.2 354.184 1031.42C314.208 1001.31 266.294 982.474 225.613 953.086C171.353 913.98 134.77 859.431 114.916 807.129C95.2164 754.895 90.2856 703.787 85.5161 653.392" stroke="#F5C3A7" stroke-width="3"/>
</g>
</g>
<g clip-path="url(#clip4_29_361)">
<path d="M217.152 -72.2197C269.289 -43.2123 326.936 1.23267 348.786 62.899C371.76 127.969 344.848 181.235 341.304 241.045C338.088 296.013 356.158 360.703 390.287 416.409C431.03 482.834 490.098 532.244 542.378 587.826C594.659 643.408 645.284 716.724 647.304 784.73C648.116 813.557 639.994 838.185 629.707 860.176C565.915 996.526 421.748 1046.27 271.838 1048.39C206.179 1049.3 135.938 1041.7 66.3331 1003.94C-5.62075 964.893 -71.4032 896.076 -124.491 820.312C-226.031 675.411 -284.864 504.359 -309.014 344.183C-326.293 229.569 -326.843 116.972 -298.581 23.5162C-273.848 -58.4276 -223.665 -131.651 -153.074 -161.545C-102.664 -182.918 -30.8451 -156.656 29.0425 -144.113C91.0599 -131.175 154.762 -106.953 217.152 -72.2197Z" fill="#A8CABC"/>
<g clip-path="url(#clip5_29_361)">
<path d="M315.187 1373.55C159.79 1300.58 15.7809 1119.31 -31.9165 936.769C-46.9031 879.089 -53.7527 820.066 -82.6725 764.374C-105.766 719.979 -140.879 682.326 -164.917 638.273C-197.019 579.596 -206.514 514.606 -201.883 458.854C-197.142 403.231 -179.56 354.99 -162.139 307.461" stroke="#F5C3A7" stroke-width="3"/>
</g>
<path fill-rule="evenodd" clip-rule="evenodd" d="M164.221 720.868C138.604 745.611 106.641 765.079 70.5398 759.962C34.0475 754.413 -0.258742 738.232 -28.3819 714.097C-30.3804 712.758 -28.5666 709.543 -25.7024 710.1C6.5033 718.74 40.2141 722.083 74.2145 719.658C101.58 717.725 128.286 712.455 155.877 714.252C150.836 710.418 146.084 706.324 141.62 701.968C137.678 698.19 134.141 694.57 131.009 691.107C96.1214 702.991 58.6174 709.373 21.425 701.309C-6.78365 695.35 -48.8581 677.539 -58.476 646.896C-59.2175 645.206 -57.4863 643.641 -55.4464 644.156C-21.9423 651.621 11.5618 659.086 45.54 665.335C72.1415 670.388 99.2999 672.577 124.005 682.493C114.734 669.633 107.586 655.64 101.304 640.865C99.6555 640.782 98.8726 639.917 98.914 639.092C77.0483 654.935 48.6137 645.245 24.6089 637.843C-5.16543 630.152 -31.1687 621.411 -53.1721 598.823C-54.7379 597.092 -53.3568 594.269 -51.3169 594.785C-23.4998 600.312 3.84328 607.055 31.8258 609.285C54.863 611.267 76.045 617.287 95.7632 627.779C94.7744 625.526 93.7857 623.273 92.797 621.02C90.3804 614.288 87.9637 607.556 85.5471 600.825C36.1538 605.37 -12.8454 593.823 -55.7633 568.12C-57.3705 567.213 -56.3808 563.957 -54.7324 564.04C-31.7145 558.171 -4.55612 560.36 17.8415 566.855C40.6719 572.958 63.9765 577.845 82.2309 592.808C78.6059 582.711 74.1154 573.396 69.192 564.473C53.9837 571.147 36.4488 566.549 20.4796 563.682C-0.826408 560.134 -22.0911 555.762 -42.8402 549.35C-44.8801 548.834 -45.1062 545.105 -42.6335 545.229C-21.0794 543.831 0.392052 544.082 21.8221 545.157C35.7927 546.684 50.6289 547.429 62.7029 553.819C61.6867 552.115 60.6704 550.411 59.6541 548.708C59.3932 548.419 59.1322 548.131 58.8712 547.842C58.1159 546.427 57.2163 545.143 56.1725 543.988C55.623 543.961 55.362 543.672 55.3896 543.123C54.8677 542.546 54.2153 541.824 53.4324 540.959C53.1439 541.22 52.9996 541.35 52.9996 541.35C22.1722 546.414 -22.0883 539.236 -44.8746 515.782C-46.0489 514.484 -45.1006 512.053 -43.4521 512.135C-12.316 509.153 23.2501 508.458 47.8502 528.697C48.3997 528.725 48.9354 529.027 49.4574 529.604C51.8336 531.652 54.196 533.974 56.5446 536.57C52.5917 516.541 53.1099 497.975 57.8734 477.143C63.1524 454.271 66.5568 427.587 78.347 406.694C79.2539 405.087 82.1181 405.644 82.4268 407.725C87.3474 433.175 91.7938 459.84 88.4307 485.699C87.0689 496.373 84.0586 506.964 80.6569 517.122C77.1725 528.929 71.1135 534.409 63.2405 543.104C63.2405 543.104 63.0962 543.234 62.8077 543.495C62.7801 544.045 62.8968 544.464 63.1578 544.752C66.4952 549.602 69.5578 554.438 72.3456 559.26C72.6066 559.549 72.7371 559.693 72.7371 559.693C73.6468 541.56 84.7974 525.18 91.4354 508.161C95.2285 498.435 101.062 489.225 104.855 479.5C108.256 469.342 110.442 458.709 115.06 449.025C116.008 446.594 120.088 447.625 119.964 450.098C118.249 476.04 119.749 503.797 110.266 528.11C104.968 543.131 94.0017 564.065 78.0105 569.873C81.2376 576.921 84.3204 584.099 87.259 591.408C95.4021 569.093 105.111 548.509 117.293 528.05C132.154 503.593 136.589 472.829 140.9 444.538C141.457 441.673 145.578 441.88 145.413 445.177C147.015 479.136 150.017 518.123 139.687 551.07C133.75 570.604 112.912 598.892 90.1838 598.992C94.2002 609.522 97.8251 619.619 101.45 629.717C108.664 617.684 112.623 604.662 118.621 592.155C124.97 580.905 134.491 572.294 142.055 561.518C161.636 533.58 165.454 498.653 169.189 465.375C169.313 462.902 173.043 462.676 173.743 465.19C178.994 484.046 187.317 499.337 187.54 519.592C187.413 538.591 181.908 557.733 173.972 575.927C160.902 605.845 140.374 636.214 106.291 640.289C112.14 655.456 119.68 669.881 130.599 682.824C131.464 682.041 132.33 681.258 133.195 680.475C145.799 643.372 160.284 607.191 176.651 571.93C189.679 542.836 202.996 507.973 230.364 489.515C232.487 488.382 234.877 490.154 233.928 492.586C224.093 532.168 216.997 574.78 197.786 611.827C183.543 640.446 162.912 664.613 137.151 683.979C136.835 684.789 136.375 685.73 135.77 686.801C135.743 687.351 135.31 687.742 134.472 687.976C134.994 688.553 135.516 689.13 136.037 689.707C143.372 697.236 150.995 704.504 158.906 711.512C161.693 680.665 178.286 654.643 195.228 629.877C215.324 599.899 231.34 568.889 240.103 534.211C240.619 532.171 243.916 532.336 244.657 534.026C252.155 549.276 248.483 573.055 247.656 589.539C246.623 610.145 244.29 631.925 237.92 651.85C231.673 669.302 219.947 680.696 206.963 692.439C194.453 702.966 181.985 712.67 166.468 717.262C219.357 758.339 285.808 776.133 352.902 772.888C355.807 772.621 357.207 777.649 353.911 777.484C314.965 779.661 275.484 776.028 238.149 762.587C212.187 753.021 186.473 738.51 164.221 720.868ZM76.7012 513.619C80.5357 503.069 83.1545 492.045 84.1248 480.939C86.457 459.159 83.0195 437.089 79.1492 415.411C70.8214 433.172 67.6236 455.735 63.3757 474.527C58.138 496.574 57.1456 516.356 61.4487 537.643C68.0233 530.123 73.6909 524.21 76.7012 513.619ZM49.9094 537.064C27.5146 514.043 -6.75311 513.563 -37.4565 516.155C-15.6791 535.013 22.4617 540.645 49.9094 537.064ZM16.6286 549.855C2.08093 548.849 -12.3638 548.538 -26.7057 548.92C-12.8591 552.92 1.4616 555.704 16.2151 558.097C31.7515 561.355 50.5021 566.427 65.6691 560.578C51.2464 551.591 33.1133 550.682 16.6286 549.855ZM110.269 511.584C113.094 496.439 113.88 480.779 114.666 465.118C113.085 469.171 111.779 473.237 110.748 477.317C107.821 486.259 102.462 494.253 99.1429 502.763C94.9997 511.231 91.6394 520.565 87.4961 529.034C82.3633 540.758 76.4475 551.616 77.4344 564.886C95.981 557.554 106.928 528.769 110.269 511.584ZM122.993 570.891C132.763 557.333 136.721 544.311 138.805 527.476C141.405 508.602 141.964 489.212 141.267 470.171C138.276 488.613 134.461 507.014 125.824 522.694C119.867 534.376 112.344 544.328 106.387 556.01C100.389 568.517 95.6061 581.498 91.6475 594.52C104.918 593.533 115.038 581.233 122.993 570.891ZM79.5514 596.806C62.4714 583.141 40.8153 578.336 20.4575 572.357C-0.724417 566.336 -25.3687 563.447 -47.8711 567.276C-8.90889 589.476 34.7948 599.518 79.5514 596.806ZM22.1197 613.343C-0.0931922 611.402 -21.7079 605.773 -43.7968 601.359C-25.9752 616.714 -5.30877 624.774 17.9131 631.31C42.3506 638.32 74.6997 652.338 97.5136 634.064C73.4069 620.46 49.2367 616.356 22.1197 613.343ZM172.819 565.953C179.457 548.934 183.705 530.142 182.575 511.493C181.547 499.047 176.706 488.476 172.731 477.121C169.285 504.629 164.974 532.921 150.113 557.378C142.383 571.45 129.482 581.545 122.577 595.659C116.104 609.381 111.713 622.795 104.066 635.219C104.066 635.219 104.052 635.494 104.025 636.043C140.189 631.66 160.492 597.561 172.819 565.953ZM196.984 603.11C211.867 569.978 219.106 532.744 227.911 497.242C202.5 517.864 190.398 553.201 177.412 581.471C163.752 612.185 151.307 643.373 140.079 675.036C163.758 655.979 183.997 631.379 196.984 603.11ZM124.972 687.912C97.0532 676.183 65.3409 674.179 35.8753 668.569C6.40963 662.959 -23.0147 656.525 -52.0061 649.7C-46.0325 662.394 -32.4754 672.163 -21.267 679.336C-6.41149 687.931 10.2165 694.137 26.5771 697.436C59.7311 703.644 93.464 698.313 124.972 687.912ZM64.8584 724.972C37.5347 726.081 9.98491 723.459 -16.9667 717.149C7.71619 735.74 35.9854 748.726 66.2753 754.377C85.9329 757.842 102.15 755.764 119.955 746.742C134.381 739.202 147.24 729.932 158.926 719.363C127.688 716.143 96.7361 723.68 64.8584 724.972ZM203.44 688.544C217.681 676.45 229.016 664.624 234.521 645.482C239.51 628.38 241.286 609.464 242.195 591.331C242.898 582.828 243.194 574.166 243.086 565.347C243.025 558.32 243.83 550.511 242.945 543.443C234.657 571.397 222.461 597.64 206.356 622.172C187.6 650.152 165.939 678.399 163.769 713.408C179.286 708.816 191.755 699.113 203.44 688.544Z" fill="#4C886A"/>
<path fill-rule="evenodd" clip-rule="evenodd" d="M-71.1052 154.895C-81.4457 120.814 -84.1969 83.4901 -63.1821 53.6936C-41.6037 23.7461 -11.5594 0.592304 22.7435 -13.4322C24.8472 -14.6001 26.8807 -11.5201 25.0791 -9.22496C2.70507 15.4985 -15.6424 43.9761 -28.9869 75.3421C-39.745 100.578 -47.2317 126.75 -61.4123 150.486C-55.7019 147.747 -49.8908 145.385 -43.979 143.398C-38.8188 141.613 -33.984 140.116 -29.4746 138.907C-24.1429 102.439 -12.7214 66.1507 11.4138 36.7264C29.5806 14.3386 64.6169 -14.986 96.2742 -9.57331C98.1163 -9.46274 98.7204 -7.20807 97.3315 -5.62762C75.4105 20.7868 53.4896 47.2012 32.4343 74.592C15.8075 95.963 1.47589 119.136 -18.6139 136.601C-2.94169 134.215 12.771 134.233 28.7857 135.379C29.611 133.95 30.7383 133.648 31.453 134.061C27.3238 107.377 48.913 86.4883 66.446 68.4993C86.8675 45.5073 106.504 26.3505 136.64 17.0673C138.895 16.4631 140.777 18.9794 139.388 20.5599C121.785 42.7966 103.317 64.0571 88.5722 87.9444C76.3037 107.544 61.287 123.65 42.9584 136.415C45.4144 136.562 47.8705 136.71 50.3265 136.857C57.4196 137.776 64.5127 138.695 71.6058 139.613C90.0826 93.5811 122.702 55.2378 165.147 28.7612C166.687 27.7445 169.134 30.1097 168.308 31.5391C163.036 54.7009 148.704 77.8735 132.711 94.8458C116.869 112.382 101.893 130.894 80.2523 140.317C90.892 141.695 101.23 141.946 111.416 141.633C112.411 125.055 124.499 111.546 134.332 98.6404C147.205 81.296 160.792 64.3642 175.96 48.8214C177.349 47.2409 180.771 48.7405 179.533 50.8846C170.949 70.7048 160.935 89.6997 150.207 108.282C142.477 120.019 135.05 132.884 123.857 140.716C125.837 140.589 127.816 140.461 129.796 140.333C130.172 140.232 130.548 140.132 130.923 140.031C132.527 140.004 134.081 139.789 135.584 139.387C135.859 138.91 136.235 138.809 136.711 139.084C137.463 138.883 138.402 138.631 139.529 138.329C139.429 137.953 139.378 137.766 139.378 137.766C148.928 108.02 175.499 71.9022 206.762 62.3169C208.453 61.8638 210.185 63.8164 209.359 65.2458C197.816 94.3168 182.217 126.287 152.987 138.952C152.712 139.429 152.199 139.768 151.447 139.969C148.542 141.15 145.398 142.194 142.016 143.1C161.645 148.715 177.932 157.642 194.3 171.381C212.249 186.508 234.445 201.705 247.663 221.725C248.68 223.265 246.878 225.56 244.885 224.886C219.992 217.661 194.233 209.459 172.751 194.675C163.873 188.596 155.82 181.087 148.33 173.428C139.411 164.943 137.296 157.052 133.148 146.08C133.148 146.08 133.098 145.893 132.997 145.517C132.521 145.242 132.095 145.154 131.719 145.255C125.881 146.014 120.18 146.535 114.617 146.817C114.242 146.918 114.054 146.968 114.054 146.968C129.777 156.046 139.271 173.439 151.391 187.107C158.317 194.917 163.854 204.308 170.78 212.119C178.269 219.778 186.735 226.572 193.249 235.097C194.98 237.049 192.202 240.21 190.058 238.972C167.751 225.617 142.364 214.295 125.05 194.769C114.097 183.205 100.466 163.9 102.589 147.019C94.8449 146.678 87.0506 146.148 79.2059 145.431C95.3529 162.853 109.245 180.88 121.9 201.051C136.89 225.429 162.247 243.404 185.46 260.141C187.755 261.943 185.692 265.516 182.833 263.866C151.88 249.806 115.813 234.701 91.1999 210.485C76.5228 196.293 60.8477 164.849 71.1231 144.576C59.9198 143.349 49.2801 141.971 38.6405 140.593C46.06 152.5 55.8447 161.961 64.2405 173.002C71.3579 183.782 74.6807 196.183 80.8218 207.828C96.7585 237.994 126.102 257.318 154.016 275.816C156.16 277.054 154.66 280.477 152.104 279.953C132.928 276.029 115.524 276.464 97.3952 267.426C80.5444 258.65 66.0183 245.023 53.4448 229.663C32.7776 204.39 15.1095 172.272 27.0246 140.08C10.8588 138.371 -5.41749 138.503 -21.9149 142.319C-21.6129 143.446 -21.3108 144.574 -21.0087 145.701C6.26518 173.836 31.8616 203.226 55.7804 233.871C75.7329 258.731 100.688 286.48 104.637 319.254C104.677 321.66 102.01 322.979 100.279 321.026C69.5355 294.224 34.8466 268.478 10.6356 234.488C-8.34059 208.762 -20.4422 179.381 -25.9307 147.624C-26.5079 146.973 -27.1354 146.134 -27.8132 145.108C-28.2897 144.833 -28.4407 144.269 -28.2663 143.417C-29.0179 143.618 -29.7695 143.82 -30.521 144.021C-40.5664 147.115 -50.5111 150.586 -60.355 154.432C-34.1726 170.977 -18.5784 197.61 -4.26265 223.981C13.2545 255.536 33.5495 283.93 60.417 307.541C61.9975 308.93 60.3469 311.789 58.5049 311.679C41.5139 311.398 22.0254 297.288 7.73126 289.035C-10.1363 278.719 -28.4571 266.712 -43.2852 251.957C-55.9692 238.44 -60.7619 222.808 -65.2929 205.898C-68.9582 189.964 -71.9088 174.443 -68.9207 158.539C-129.595 186.879 -175.732 237.907 -203.437 299.099C-204.524 301.807 -209.638 300.76 -207.987 297.901C-192.167 262.247 -170.931 228.767 -141.944 201.667C-121.593 182.923 -96.9531 166.654 -71.1052 154.895ZM153.252 171.505C160.893 179.728 169.509 187.085 178.952 193.013C197.272 205.02 218.482 212.024 239.54 218.464C227.53 202.954 208.907 189.82 194.119 177.47C176.886 162.756 159.733 152.852 138.826 146.976C142.52 156.256 145.199 163.996 153.252 171.505ZM144.602 136.97C175.302 127.536 191.354 97.2565 203.048 68.7493C176.335 79.532 153.931 110.909 144.602 136.97ZM148.394 101.518C155.922 89.0291 162.786 76.3155 168.985 63.3771C159.112 73.8765 150.104 85.3522 141.247 97.3917C131.263 109.733 118.199 124.108 116.489 140.274C131.064 131.536 140.142 115.812 148.394 101.518ZM139.756 202.307C151.947 211.728 165.526 219.568 179.106 227.408C176.22 224.154 173.196 221.137 170.036 218.36C163.412 211.676 158.74 203.262 152.68 196.428C147.033 188.879 140.258 181.632 134.61 174.083C126.517 164.169 119.55 153.953 107.29 148.78C105.359 168.63 125.985 191.498 139.756 202.307ZM81.1723 186.59C88.7833 201.466 98.568 210.927 112.601 220.458C128.213 231.378 145.215 240.718 162.479 248.779C147.43 237.708 132.793 225.922 122.776 211.086C115.095 200.457 109.669 189.224 101.988 178.596C93.5918 167.554 84.2197 157.378 74.435 147.917C69.2622 160.178 75.5949 174.793 81.1723 186.59ZM77.9167 136.11C97.8663 127.14 112.017 110.057 126.621 94.6651C141.638 78.5586 155.447 57.9427 162.299 36.1699C124.776 60.7235 95.9108 95.0402 77.9167 136.11ZM89.3866 77.4558C101.242 58.5715 116.108 41.9013 130.108 24.2548C108.317 33.1145 91.7194 47.8321 75.3137 65.5191C57.9317 84.0717 30.7058 106.47 36.5665 135.107C59.6661 119.855 74.3403 100.216 89.3866 77.4558ZM62.8466 233.186C74.9669 246.854 89.7546 259.203 106.867 266.701C118.413 271.461 130.029 271.973 141.947 273.613C119.036 258.003 95.8227 241.265 80.8327 216.887C71.8327 203.591 68.7311 187.507 59.3185 174.925C50.057 162.907 40.1212 152.883 32.5507 140.412C32.5507 140.412 32.3125 140.274 31.836 139.999C19.2467 174.184 40.3373 207.802 62.8466 233.186ZM18.7589 237.749C41.4596 266.102 71.2966 289.523 98.8788 313.547C92.1119 281.529 66.1802 254.645 46.9424 230.197C25.8356 204.035 3.75253 178.738 -19.3069 154.307C-13.1441 184.071 -0.478848 213.301 18.7589 237.749ZM-23.8784 134.991C-0.708689 115.492 15.5351 88.1822 33.9635 64.516C52.3918 40.8498 71.5349 17.5963 90.829 -5.09358C76.8074 -5.56547 61.9308 2.04553 50.4363 8.75031C36.0129 18.0523 22.9083 30.0216 12.5115 43.0778C-8.1311 69.7539 -18.7678 102.207 -23.8784 134.991ZM-29.4508 64.5919C-17.978 39.7688 -3.08265 16.4451 14.8225 -4.66429C-12.9779 8.82621 -37.426 28.064 -56.267 52.4449C-68.3144 68.3599 -73.8593 83.7408 -73.9482 103.701C-73.8159 119.978 -71.429 135.65 -67.3511 150.869C-50.2415 124.535 -42.8358 93.5523 -29.4508 64.5919ZM-60.2199 204.539C-55.9504 222.727 -50.5941 238.208 -36.068 251.836C-23.1224 264.075 -7.09689 274.28 8.62663 283.358C15.8744 287.86 23.4475 292.074 31.3461 295.999C37.6274 299.149 44.2108 303.426 50.9047 305.861C29.8052 285.738 12.0103 262.917 -2.47987 237.399C-18.8292 207.948 -34.0917 175.789 -64.2603 157.894C-67.2484 173.799 -64.2978 189.32 -60.2199 204.539Z" fill="#4C886A"/>
</g>
<path d="M1502.91 1006.06C1252.41 934.754 1056.86 700.64 1031.64 441.75C1023.62 359.999 1030.67 273.991 997.536 198.579C971.157 138.36 921.478 90.6865 893.265 31.3414C855.468 -47.8795 859.735 -141.746 885.927 -225.309C912.118 -308.872 958.634 -384.34 1004.59 -458.73L2008.12 65.228L1502.91 1006.06Z" fill="url(#paint0_linear_29_361)"/>
<path d="M1307.57 846.069C1136.93 748.065 1036.47 540.602 1065.48 346.017C1074.59 284.56 1095.54 222.728 1085.08 161.345C1076.78 112.343 1049.09 68.2989 1039.29 19.6038C1026.1 -45.425 1046.45 -113.531 1081 -170.078C1115.54 -226.625 1163.5 -273.525 1210.85 -319.737L1850.73 247.766L1307.57 846.069Z" fill="url(#paint1_linear_29_361)"/>
<path fill-rule="evenodd" clip-rule="evenodd" d="M1254.46 34.9206C1290.05 33.7535 1326.82 40.7561 1350.16 68.7667C1373.5 97.3609 1388.09 132.374 1392.76 169.138C1393.34 171.472 1389.84 172.639 1388.09 170.305C1370 142.294 1347.24 117.202 1320.4 96.1937C1298.81 79.2707 1275.47 65.2654 1256.21 45.4246C1257.38 51.6491 1258.15 57.8737 1258.54 64.0983C1258.93 69.5448 1259.13 74.6023 1259.13 79.2707C1292.97 93.8595 1325.07 114.284 1347.24 145.212C1364.17 168.554 1383.42 209.987 1370 239.164C1369.42 240.915 1367.08 240.915 1365.92 239.164C1346.08 211.154 1326.23 183.143 1305.23 155.716C1288.89 134.125 1270.21 114.284 1258.54 90.3582C1256.79 106.114 1252.71 121.287 1247.46 136.459C1248.62 137.626 1248.62 138.793 1248.04 139.377C1274.88 142.294 1289.47 168.554 1302.31 190.146C1319.23 215.822 1332.65 239.748 1333.82 271.26C1333.82 273.594 1330.9 274.761 1329.74 273.011C1312.81 250.252 1297.06 226.91 1277.8 206.485C1262.04 189.562 1250.37 170.889 1242.79 149.881C1242.01 152.215 1241.23 154.549 1240.45 156.883C1237.73 163.497 1235.01 170.111 1232.28 176.724C1271.96 206.485 1300.56 247.918 1315.15 295.769C1315.73 297.52 1312.81 299.27 1311.65 298.103C1290.64 287.016 1271.96 267.175 1259.71 247.334C1246.87 227.493 1232.87 208.236 1229.36 184.894C1225.28 194.814 1222.36 204.735 1220.03 214.655C1235.78 219.907 1245.7 235.08 1255.62 247.918C1269.05 264.841 1281.88 282.347 1292.97 301.021C1294.14 302.772 1291.81 305.69 1290.05 303.939C1273.13 290.517 1257.38 275.928 1242.2 260.756C1232.87 250.252 1222.36 239.748 1217.69 226.91C1217.3 228.855 1216.92 230.8 1216.53 232.745C1216.53 233.134 1216.53 233.523 1216.53 233.912C1216.14 235.469 1215.94 237.025 1215.94 238.581C1216.33 238.97 1216.33 239.359 1215.94 239.748C1215.94 240.526 1215.94 241.499 1215.94 242.666C1216.33 242.666 1216.53 242.666 1216.53 242.666C1242.79 259.589 1270.8 294.602 1271.96 327.281C1271.96 329.032 1269.63 330.199 1268.46 329.032C1243.37 310.358 1216.53 287.016 1211.86 255.504C1211.47 255.115 1211.27 254.531 1211.27 253.753C1210.89 250.641 1210.69 247.334 1210.69 243.833C1200.19 261.339 1187.35 274.761 1169.84 287.016C1150.59 300.438 1130.16 317.944 1107.4 325.53C1105.65 326.114 1103.9 323.78 1105.07 322.029C1118.49 299.854 1133.08 277.095 1152.92 260.172C1161.09 253.17 1170.43 247.334 1179.76 242.082C1190.27 235.663 1198.44 235.663 1210.11 234.496C1210.11 234.496 1210.3 234.496 1210.69 234.496C1211.08 234.107 1211.27 233.718 1211.27 233.329C1212.05 227.493 1213.03 221.852 1214.19 216.406C1214.19 216.017 1214.19 215.822 1214.19 215.822C1201.35 228.66 1182.1 233.329 1165.76 241.499C1156.42 246.167 1145.92 249.085 1136.58 253.753C1127.24 259.005 1118.49 265.424 1108.57 269.509C1106.24 270.676 1103.9 267.175 1105.65 265.424C1124.33 247.334 1141.83 225.743 1165.17 214.072C1179.18 206.485 1201.35 198.316 1217.11 204.735C1219.44 197.343 1221.97 189.951 1224.7 182.56C1203.69 193.647 1182.68 202.401 1159.92 209.403C1132.49 217.573 1108.57 237.414 1086.39 255.504C1084.06 257.255 1081.14 254.337 1083.48 252.003C1105.07 225.743 1128.99 194.814 1158.75 177.308C1176.26 166.804 1210.69 159.801 1227.61 174.973C1231.7 164.47 1235.78 154.549 1239.87 144.629C1226.45 148.714 1214.78 155.716 1201.94 160.968C1189.68 165.053 1176.85 165.053 1164.01 167.971C1130.74 175.557 1104.48 198.899 1079.39 221.074C1077.64 222.825 1074.72 220.491 1075.89 218.156C1084.64 200.65 1088.73 183.727 1102.15 168.554C1114.99 154.549 1131.91 144.045 1150 135.875C1179.76 122.454 1215.36 113.7 1243.37 133.541C1249.21 118.369 1253.29 102.613 1253.87 85.6898C1252.71 85.6898 1251.54 85.6898 1250.37 85.6898C1216.14 104.753 1181.12 121.87 1145.33 137.042C1116.16 149.881 1082.89 166.804 1050.21 162.135C1047.88 161.552 1047.3 158.634 1049.63 157.467C1083.48 134.708 1117.32 107.865 1156.42 93.276C1186.18 81.6049 1217.69 77.52 1249.79 80.4378C1250.57 80.0488 1251.54 79.6597 1252.71 79.2707C1253.1 78.8817 1253.68 78.8817 1254.46 79.2707C1254.46 78.4926 1254.46 77.7145 1254.46 76.9365C1254.07 66.4325 1253.29 55.9285 1252.12 45.4246C1229.36 66.4325 1199.6 74.6022 1170.43 81.6049C1135.41 90.3582 1102.73 102.613 1072.97 122.454C1071.22 123.621 1068.89 121.287 1069.47 119.536C1074.14 103.196 1092.81 88.024 1104.48 76.3529C1119.07 61.7641 1135.41 47.1752 1153.5 36.6713C1169.84 27.9179 1186.18 27.3344 1203.69 27.3344C1220.03 27.918 1235.78 29.0851 1250.37 36.0877C1238.7 -29.8538 1201.35 -87.6257 1149.42 -130.225C1147.08 -131.976 1149.42 -136.644 1151.75 -134.31C1182.1 -109.801 1208.94 -80.623 1227.61 -45.6098C1240.45 -21.1006 1249.79 6.91004 1254.46 34.9206ZM1180.35 247.334C1170.43 252.586 1161.09 259.005 1152.92 266.591C1136.58 281.18 1124.33 299.854 1112.65 318.528C1130.74 310.941 1148.25 296.353 1164.01 285.265C1182.68 272.427 1196.69 258.422 1207.77 239.748C1197.85 240.915 1189.68 241.499 1180.35 247.334ZM1215.94 247.918C1217.11 280.013 1242.2 303.355 1266.71 322.029C1263.21 293.435 1238.7 263.674 1215.94 247.918ZM1249.21 260.756C1259.32 271.26 1269.82 281.18 1280.72 290.517C1273.13 278.262 1264.38 266.591 1255.04 254.92C1245.7 242.082 1235.2 225.743 1220.03 219.907C1224.7 236.247 1237.53 249.085 1249.21 260.756ZM1154.09 226.326C1141.83 235.663 1130.74 246.751 1119.66 257.838C1123.55 255.893 1127.24 253.753 1130.74 251.419C1138.91 246.751 1148.25 244.416 1156.42 240.331C1165.17 236.83 1173.93 232.162 1182.68 228.66C1194.35 223.408 1206.02 219.324 1214.19 208.82C1195.52 201.817 1168.09 215.822 1154.09 226.326ZM1184.43 173.806C1168.09 177.308 1156.42 184.31 1143.58 195.398C1128.99 207.652 1115.57 221.658 1103.32 236.247C1117.91 224.576 1133.08 213.488 1150 207.652C1162.26 202.984 1174.51 200.65 1186.77 195.981C1199.6 190.729 1211.86 184.31 1223.53 177.308C1213.03 169.138 1197.27 171.472 1184.43 173.806ZM1234.03 183.727C1237.53 205.318 1250.37 223.408 1261.46 241.499C1273.13 260.172 1289.47 278.846 1308.73 291.101C1294.72 248.501 1269.05 211.737 1234.03 183.727ZM1287.72 209.987C1302.89 226.326 1315.15 245 1328.57 263.09C1325.65 239.748 1315.73 219.907 1302.89 199.483C1289.47 177.891 1274.88 145.796 1245.7 144.045C1254.46 170.305 1269.63 189.562 1287.72 209.987ZM1144.17 144.045C1127.83 152.215 1112.07 163.302 1100.4 177.891C1092.81 187.812 1089.31 198.899 1084.64 209.987C1105.65 191.897 1127.83 173.806 1155.25 165.637C1170.43 160.385 1186.77 161.552 1201.35 155.716C1215.36 149.881 1227.61 142.878 1241.62 138.793C1241.62 138.793 1241.81 138.599 1242.2 138.21C1212.44 117.202 1174.51 128.873 1144.17 144.045ZM1151.17 100.279C1117.91 114.867 1087.56 137.626 1057.22 158.05C1089.9 159.801 1122.57 141.711 1151.17 129.456C1181.9 115.84 1212.05 101.057 1241.62 85.1062C1211.27 83.3556 1179.76 88.024 1151.17 100.279ZM1261.46 85.6898C1274.3 113.117 1296.47 135.875 1314.56 159.801C1332.65 183.727 1350.16 208.236 1367.08 232.745C1371.17 219.324 1367.67 202.984 1364.17 190.146C1358.91 173.806 1350.74 158.05 1340.82 144.629C1320.4 117.785 1291.81 99.1115 1261.46 85.6898ZM1330.9 98.528C1351.91 116.035 1370.58 136.459 1386.34 159.218C1380.51 128.873 1368.25 100.279 1349.58 75.7694C1337.32 60.0134 1323.9 50.6766 1304.64 45.4246C1288.89 41.3397 1273.13 39.589 1257.38 39.589C1278.38 62.9312 1306.39 78.1036 1330.9 98.528ZM1203.69 32.5864C1185.01 32.0028 1168.68 33.17 1151.75 43.6739C1136.58 53.0108 1122.57 65.8489 1109.74 78.6871C1103.51 84.5226 1097.48 90.7472 1091.65 97.3608C1086.98 102.613 1081.14 107.865 1077.06 113.7C1101.96 98.5279 1128.6 87.2459 1157 79.8542C1189.68 71.6845 1224.7 65.2654 1249.79 40.7561C1235.2 33.7535 1219.44 32.5864 1203.69 32.5864Z" fill="#4C886A"/>
<g clip-path="url(#clip6_29_361)">
<path d="M1305.1 720.485C1301.54 718.388 1298.4 715.521 1295.89 712.287C1290.46 705.25 1287.9 696.412 1286.58 687.7C1285.03 677.362 1285.27 665.878 1289.12 655.934C1286.76 652.87 1284.78 649.402 1283.21 645.834C1280.12 638.999 1278.42 631.481 1278.06 623.955C1277.23 608.977 1281.64 593.431 1291.45 581.939C1292.4 580.872 1293.38 579.823 1294.38 578.792C1291.18 572.15 1289.47 564.571 1289.01 557.849C1288.02 543.189 1292.38 528.32 1300.16 515.988C1304.22 509.438 1309.25 503.467 1315.18 498.506C1319.41 494.989 1324.17 491.909 1329.42 490.062C1329.48 489.406 1329.54 488.77 1329.61 488.155C1330.55 479.65 1332.62 471.342 1335.69 463.364C1341.85 447.59 1351.97 433.569 1365.15 422.971C1378.78 411.904 1395.42 404.876 1412.8 402.469C1413.23 402.429 1413.29 403.093 1412.93 403.188C1405.37 404.405 1398.01 406.515 1390.92 409.454C1376.21 415.626 1362.94 425.379 1352.8 437.757C1343.1 449.726 1336.37 464.031 1333.18 479.092C1332.47 482.453 1331.88 485.862 1331.55 489.37C1333.51 488.815 1335.55 488.436 1337.61 488.299C1344.75 487.733 1352.41 490.104 1357.48 495.286C1362.21 500.073 1363.85 506.927 1361.66 513.356C1359.67 519.218 1354.71 524.086 1348.26 524.219C1341.02 524.368 1334.71 519 1331.85 512.692C1328.92 506.389 1328.71 499.154 1329.2 492.217C1325.68 493.593 1322.39 495.556 1319.38 497.797C1308.16 506.071 1299.71 518.287 1295.11 531.349C1290.71 543.845 1289.67 557.724 1293.63 570.45C1294.34 572.699 1295.16 574.936 1296.22 577.09C1300.26 573.409 1305.03 570.389 1310.18 568.796C1317.23 566.653 1325.39 567.879 1330.18 573.881C1334.41 579.144 1333.57 586.296 1328.83 590.838C1324.03 595.446 1316.97 596.918 1310.73 594.715C1303.96 592.257 1298.96 587.13 1295.49 580.879C1295.2 581.192 1294.9 581.505 1294.61 581.818C1289.91 586.904 1286.41 592.911 1284.05 599.418C1279.37 612.306 1279.19 626.834 1283.55 639.827C1285.16 644.549 1287.33 649.279 1290.22 653.39C1291.88 649.754 1294.12 646.369 1296.94 643.414C1302.48 637.577 1310.57 633.627 1318.72 635.342C1325.82 636.914 1331.56 642.702 1331.55 650.141C1331.51 656.669 1327.67 663.074 1321.86 666.011C1315.23 669.393 1307.25 668.82 1300.73 665.668C1296.9 663.903 1293.66 661.228 1290.92 658.078C1290.15 660.265 1289.55 662.477 1289.12 664.714C1287.79 671.792 1287.94 679.033 1288.86 686.138C1289.95 694.264 1292.14 702.466 1296.71 709.343C1298.98 712.721 1301.89 715.672 1305.27 717.907C1306.06 710.271 1308.31 701.946 1314.67 697.066C1320 692.955 1328.76 692.111 1333.97 696.852C1339.65 701.976 1338.26 710.95 1333.97 716.424C1329.4 722.168 1321.86 724.845 1314.69 723.889C1312.1 723.53 1309.64 722.729 1307.28 721.616C1307.24 722.88 1307.23 724.12 1307.27 725.335C1307.31 732.099 1308.27 738.835 1310.05 745.37C1317.05 771.156 1336.35 793.684 1361.63 802.955C1363.08 803.486 1362.51 805.797 1361.06 805.266C1354.36 802.802 1348.01 799.512 1342.18 795.378C1318.57 778.692 1303.27 749.62 1305.1 720.485ZM1340.41 490.163C1347.37 490.345 1354.69 493.542 1358.51 499.577C1361.81 504.746 1361.42 511.429 1358.12 516.501C1354.4 522.164 1347.54 523.739 1341.62 520.469C1335.05 516.834 1332.08 509.438 1331.39 502.249C1331.05 498.685 1331.07 495.086 1331.33 491.524C1334.29 490.569 1337.29 490.097 1340.41 490.163ZM1312.16 570.373C1319.01 568.677 1327.7 570.889 1330.47 578.121C1332.76 584.18 1328.56 589.95 1323.19 592.478C1316.71 595.48 1309.73 593.286 1304.6 588.721C1301.54 586.028 1299.14 582.722 1297.21 579.128C1301.47 575.183 1306.57 571.826 1312.16 570.373ZM1298.29 645.358C1303.36 639.748 1310.96 635.724 1318.69 637.54C1325.68 639.244 1330.55 645.421 1329.18 652.747C1328.03 659.198 1323.15 664.18 1316.83 665.703C1309.74 667.422 1302.06 664.87 1296.55 660.279C1294.83 658.859 1293.28 657.302 1291.89 655.546C1293.42 651.801 1295.53 648.367 1298.29 645.358ZM1311.72 703.752C1313.66 700.516 1316.45 697.809 1320.11 696.602C1323.36 695.558 1327.13 695.439 1330.27 696.966C1337.17 700.324 1336.54 709.591 1332.36 714.932C1328.02 720.472 1320.7 722.945 1313.79 721.537C1311.56 721.082 1309.4 720.253 1307.41 719.225C1307.81 713.822 1308.93 708.409 1311.72 703.752Z" fill="#D7A084"/>
</g>
<g clip-path="url(#clip7_29_361)">
<path d="M1225.53 1234.29C1217.05 1248.52 1208.48 1262.94 1200.32 1277.61L1198.2 1277.76C1206.6 1262.64 1215.4 1247.77 1224.18 1233.1C1245.11 1197.92 1266.76 1161.56 1281.32 1122.32C1322.11 1012.2 1301.83 895.252 1277.62 816.513C1265.14 775.889 1249.55 736.508 1234.47 698.432C1214.96 649.006 1194.74 597.921 1181.05 543.565C1167.61 490.313 1143.42 354.524 1208.23 243.754C1245.53 180.033 1308.37 133.219 1394.94 104.629C1403.18 101.893 1411.48 99.3922 1419.79 96.9909L1419.62 99.2834C1411.4 101.669 1403.23 104.189 1395.13 106.82C1309.04 135.292 1246.64 181.727 1209.66 244.887C1145.35 354.738 1169.45 489.643 1182.76 542.551C1196.41 596.771 1216.6 647.82 1236.12 697.182C1251.23 735.295 1266.8 774.739 1279.34 815.436C1303.65 894.546 1324.06 1012.13 1282.92 1123C1268.28 1162.51 1246.55 1198.99 1225.53 1234.29Z" fill="#D3D1CE"/>
</g>
<path d="M173.59 -22.4536C176.525 -38.7621 179.484 -55.2704 181.969 -71.8775L183.902 -72.7556C181.355 -55.6491 178.335 -38.6413 175.276 -21.8207C168.038 18.476 160.554 60.1214 160.709 101.975C161.218 219.408 221.31 321.768 271.646 386.977C297.609 420.623 326.039 452.015 353.542 482.362C389.179 521.777 426.055 562.501 457.974 608.578C489.28 653.707 559.644 772.334 537.892 898.817C525.371 971.58 482.989 1037.49 411.991 1094.68C405.237 1100.14 398.346 1105.4 391.405 1110.57L390.764 1108.36C397.618 1103.24 404.384 1098.01 411.038 1092.7C481.637 1035.79 523.733 970.385 536.156 898.259C557.76 772.813 487.785 654.984 456.73 610.128C424.898 564.163 388.059 523.465 352.435 484.112C324.894 453.741 296.452 422.285 270.414 388.59C219.853 323.07 159.422 220.161 158.973 101.904C158.793 59.7633 166.315 17.9806 173.59 -22.4536Z" fill="#D3D1CE"/>
<path d="M54.0525 -34.3041C59.1472 -50.0719 64.2929 -66.0345 68.9816 -82.1585L71.0147 -82.7695C66.1983 -66.1588 60.9248 -49.7095 55.6389 -33.4509C43.0638 5.51177 30.0635 45.7778 24.606 87.274C9.36702 203.716 55.1937 313.208 96.333 384.577C117.551 421.399 141.515 456.32 164.702 490.079C194.733 533.917 225.816 579.216 251.27 629.157C276.243 678.076 330.068 805.065 291.556 927.49C269.392 997.917 218.557 1057.55 140.532 1104.71C133.108 1109.21 125.574 1113.5 118.002 1117.69L117.663 1115.42C125.141 1111.26 132.548 1106.98 139.853 1102.62C217.446 1055.68 267.93 996.514 289.91 926.704C328.137 805.287 274.591 679.14 249.829 630.526C224.447 580.709 193.397 535.439 163.37 491.665C140.15 457.876 116.181 422.891 94.8956 386.01C53.5748 314.302 7.4865 204.221 22.896 86.9709C28.3666 45.1869 41.4222 4.78972 54.0525 -34.3041Z" fill="#D3D1CE"/>
<path d="M-152.414 -154.304C-147.32 -170.072 -142.174 -186.034 -137.485 -202.159L-135.452 -202.77C-140.269 -186.159 -145.542 -169.71 -150.828 -153.451C-163.403 -114.488 -176.403 -74.2222 -181.861 -32.726C-197.1 83.7155 -151.273 193.208 -110.134 264.577C-88.9159 301.399 -64.9517 336.32 -41.765 370.079C-11.7338 413.917 19.3494 459.216 44.8035 509.157C69.7765 558.076 123.601 685.065 85.0888 807.49C62.9257 877.917 12.0898 937.554 -65.9347 984.708C-73.3587 989.211 -80.8926 993.497 -88.4644 997.691L-88.8041 995.416C-81.3255 991.261 -73.9187 986.983 -66.6134 982.616C10.979 935.681 61.4628 876.514 83.443 806.704C121.67 685.287 68.1238 559.14 43.3621 510.526C17.9798 460.709 -13.0697 415.439 -43.0966 371.665C-66.3172 337.876 -90.2856 302.891 -111.571 266.01C-152.892 194.302 -198.98 84.2209 -183.571 -33.0291C-178.1 -74.8131 -165.045 -115.21 -152.414 -154.304Z" fill="#D3D1CE"/>
<g clip-path="url(#clip8_29_361)">
<path d="M886.24 872.685C885.487 866.902 884.734 861.12 884.067 855.291C883.653 852.641 883.457 849.985 882.739 847.386C882.152 844.827 880.528 842.598 878.696 840.811C875.519 837.53 871.756 835.222 868.074 832.651C864.114 830.043 860.268 827.302 856.534 824.427C848.844 818.464 841.664 812.008 834.824 805.153C821.453 791.608 809.65 776.237 800.389 759.626C799.703 758.334 800.445 756.615 802.108 756.837C811.089 758.581 819.718 761.948 827.549 766.512C841.657 774.587 853.581 786.03 863.318 798.965C868.278 805.605 872.727 812.737 876.356 820.194C878.516 824.678 880.24 829.172 881.706 833.803C880.286 823.37 879.04 812.918 877.967 802.448C876.997 793.138 876.026 783.828 875.536 774.593C875.47 773.083 875.419 771.601 875.383 770.148C873.212 765.229 868.126 762.299 863.41 760.277C858.69 758.036 853.767 756.455 849.006 754.346C831.898 746.649 816.007 735.215 804.903 719.914C795.023 706.503 788.95 690.077 789.017 673.371C788.99 672.281 789.932 671.56 791.032 671.97C799.753 675.509 808.15 680.103 815.916 685.584C838.32 701.177 854.94 722.712 867.693 746.521C866.301 741.961 864.954 737.414 863.65 732.881C858.002 712.476 853.609 691.734 851.345 670.636C849.131 649.842 848.828 628.696 851.453 607.872C851.604 606.909 853.027 606.264 853.788 607.074C868.053 621.469 879.979 638.32 887.166 657.467C892.675 672.206 895.074 688.154 893.455 703.808C892.57 712.116 890.366 720.02 887.682 727.849C884.704 736.164 881.245 744.404 879.539 753.038C877.793 761.803 877.928 770.784 878.406 779.583C879.033 789.076 879.746 798.523 880.676 807.965C882.069 822.018 883.68 836.067 885.377 850.07C885.827 852.37 886.104 854.762 886.507 856.977C887.29 862.192 888.113 867.275 888.895 872.489C889.111 874.141 886.501 874.423 886.24 872.685ZM859.922 705.494C855.541 685.189 852.633 664.543 852.295 643.747C852.026 632.849 852.72 622.103 853.936 611.301C876.636 635.348 892.982 666.965 890.587 700.694C889.915 708.779 888.147 716.672 885.589 724.323C882.783 732.547 879.364 740.655 877.35 749.122C876.403 753.157 875.851 757.314 875.604 761.42C869.482 743.032 864.054 724.497 859.922 705.494ZM857.073 754.368C848.049 750.88 839.352 746.555 831.369 741.079C816.513 730.972 804.053 717.275 797.275 700.56C794.026 692.57 792.113 683.981 791.858 675.395C822.305 688.264 845.72 713.035 861.945 741.514C865.815 748.181 869.256 755.076 872.306 762.067C867.989 758.508 862.488 756.461 857.073 754.368ZM821.372 784.806C815.473 777.229 810.177 769.333 805.266 761.122C819.342 764.356 832.081 771.723 843.126 781.094C855.286 791.528 865.677 804.447 873.222 818.657C877.063 825.891 880.307 833.663 882.771 841.628C880.993 838.487 878.274 836.067 875.387 833.957C871.522 831.041 867.404 828.481 863.538 825.565C847.687 813.999 833.439 800.258 821.372 784.806Z" fill="#4C886A"/>
</g>
<g clip-path="url(#clip9_29_361)">
<path d="M1034.92 868.063C1033.9 860.193 1032.87 852.324 1031.97 844.393C1031.4 840.786 1031.14 837.172 1030.16 833.634C1029.36 830.151 1027.15 827.119 1024.66 824.686C1020.33 820.221 1015.21 817.081 1010.2 813.582C1004.81 810.033 999.578 806.302 994.497 802.389C984.032 794.274 974.262 785.489 964.953 776.159C946.756 757.726 930.693 736.808 918.09 714.203C917.157 712.445 918.167 710.106 920.429 710.407C932.652 712.781 944.395 717.363 955.051 723.574C974.251 734.563 990.479 750.136 1003.73 767.739C1010.48 776.775 1016.53 786.481 1021.47 796.629C1024.41 802.731 1026.76 808.847 1028.75 815.149C1026.82 800.951 1025.13 786.727 1023.67 772.478C1022.34 759.808 1021.02 747.138 1020.36 734.571C1020.27 732.516 1020.2 730.5 1020.15 728.522C1017.19 721.828 1010.27 717.841 1003.86 715.088C997.431 712.039 990.732 709.887 984.253 707.017C960.971 696.542 939.344 680.982 924.233 660.16C910.788 641.908 902.523 619.554 902.615 596.819C902.578 595.336 903.859 594.355 905.357 594.912C917.224 599.729 928.653 605.98 939.221 613.44C969.71 634.661 992.329 663.967 1009.68 696.369C1007.79 690.163 1005.96 683.975 1004.18 677.806C996.495 650.036 990.517 621.81 987.436 593.097C984.423 564.799 984.01 536.022 987.583 507.682C987.788 506.372 989.725 505.494 990.761 506.596C1010.17 526.187 1026.4 549.119 1036.18 575.176C1043.68 595.234 1046.95 616.938 1044.74 638.24C1043.54 649.547 1040.54 660.303 1036.89 670.957C1032.83 682.274 1028.13 693.487 1025.8 705.237C1023.43 717.165 1023.61 729.388 1024.26 741.362C1025.12 754.28 1026.09 767.137 1027.35 779.986C1029.25 799.112 1031.44 818.23 1033.75 837.286C1034.36 840.417 1034.74 843.672 1035.29 846.686C1036.35 853.783 1037.47 860.7 1038.54 867.797C1038.83 870.045 1035.28 870.428 1034.92 868.063ZM999.109 640.535C993.146 612.902 989.189 584.804 988.728 556.503C988.363 541.674 989.307 527.049 990.962 512.349C1021.85 545.075 1044.1 588.101 1040.84 634.002C1039.92 645.005 1037.52 655.747 1034.04 666.159C1030.22 677.351 1025.57 688.386 1022.83 699.908C1021.54 705.4 1020.79 711.057 1020.45 716.644C1012.12 691.621 1004.73 666.396 999.109 640.535ZM995.231 707.047C982.95 702.3 971.115 696.415 960.25 688.962C940.033 675.208 923.077 656.567 913.852 633.821C909.43 622.947 906.828 611.258 906.48 599.574C947.915 617.087 979.78 650.798 1001.86 689.555C1007.13 698.627 1011.81 708.01 1015.96 717.525C1010.09 712.681 1002.6 709.896 995.231 707.047ZM946.646 748.469C938.619 738.159 931.411 727.412 924.727 716.238C943.883 720.64 961.22 730.665 976.25 743.418C992.8 757.617 1006.94 775.199 1017.21 794.537C1022.44 804.382 1026.85 814.958 1030.2 825.798C1027.78 821.524 1024.08 818.231 1020.15 815.358C1014.89 811.39 1009.29 807.906 1004.03 803.938C982.458 788.199 963.068 769.498 946.646 748.469Z" fill="#4C886A"/>
</g>
</g>
<defs>
<linearGradient id="paint0_linear_29_361" x1="235798" y1="207078" x2="-326623" y2="-86568.9" gradientUnits="userSpaceOnUse">
<stop stop-color="#D7A084"/>
<stop offset="1" stop-color="#FFE4C6" stop-opacity="0.25"/>
</linearGradient>
<linearGradient id="paint1_linear_29_361" x1="135334" y1="194796" x2="-223279" y2="-123255" gradientUnits="userSpaceOnUse">
<stop stop-color="#D0D0D0"/>
<stop offset="1" stop-color="#A06442" stop-opacity="0"/>
</linearGradient>
<clipPath id="clip0_29_361">
<rect width="1366" height="768" fill="white"/>
</clipPath>
<clipPath id="clip1_29_361">
<rect width="104.762" height="200" fill="white" transform="translate(104.762 551) rotate(-180)"/>
</clipPath>
<clipPath id="clip2_29_361">
<rect width="1330.71" height="811.805" fill="white" transform="translate(750.619 1357.51) rotate(-148.009)"/>
</clipPath>
<clipPath id="clip3_29_361">
<rect width="888.03" height="332.157" fill="white" transform="matrix(0.914834 0.40383 -0.250872 0.968021 89.832 714.889)"/>
</clipPath>
<clipPath id="clip4_29_361">
<rect width="1330.71" height="811.805" fill="white" transform="translate(134.466 1229.51) rotate(-122.473)"/>
</clipPath>
<clipPath id="clip5_29_361">
<rect width="888.03" height="332.157" fill="white" transform="matrix(0.651389 0.758744 -0.643654 0.765317 -184.754 364.811)"/>
</clipPath>
<clipPath id="clip6_29_361">
<rect width="396.891" height="155.965" fill="white" transform="translate(1413.25 402) rotate(84.4989)"/>
</clipPath>
<clipPath id="clip7_29_361">
<rect width="871.764" height="856.462" fill="white" transform="translate(697 584.704) rotate(-35.8615)"/>
</clipPath>
<clipPath id="clip8_29_361">
<rect width="253.516" height="125.722" fill="white" transform="translate(859.26 602.623) rotate(62.033)"/>
</clipPath>
<clipPath id="clip9_29_361">
<rect width="345.007" height="171.094" fill="white" transform="translate(998.207 500.539) rotate(62.033)"/>
</clipPath>
</defs>
</svg>
