<svg width="1440" height="768" viewBox="0 0 1440 768" fill="none" xmlns="http://www.w3.org/2000/svg">
<g clip-path="url(#clip0_30_148)">
<rect width="1440" height="768" fill="#F5F5F5"/>
<g clip-path="url(#clip1_30_148)">
<path d="M89.0473 484.333C80.7139 501 67.8568 516.714 51.1901 525.286C38.333 531.952 21.9044 536.714 7.61868 539.333C-9.28608 542.667 -21.4289 533.381 -31.9051 521C-44.048 507.191 -54.7623 492.429 -60.7146 474.81C-68.0956 452.191 -65.9527 432.905 -54.7623 411.714C-47.1432 397.429 -37.3813 381.714 -21.9051 375.762C-6.19084 369.81 13.8092 361.476 30.4758 360.762C48.5711 360.286 70.2377 371.952 81.9044 385.286C93.0949 397.905 97.8568 415.048 96.4282 431.952C98.0949 446 98.8092 464.572 89.0473 484.333V484.333Z" stroke="#A06442" stroke-width="0.5"/>
<path d="M24.0472 458.858C20.2377 463.381 13.3329 456.238 15.2377 451C18.0948 442.667 27.6186 449.81 24.2853 457.429L24.0472 458.858Z" stroke="#A06442" stroke-width="0.5"/>
<path d="M24.7616 464.333C21.1902 468.857 15.9521 469.333 12.6188 464.095C9.04733 458.857 8.33304 452.429 10.9521 446.476C16.9045 431.952 28.5711 444.333 29.7616 454.571C31.1902 457.429 26.4283 462.19 24.7616 464.333V464.333Z" stroke="#A06442" stroke-width="0.5"/>
<path d="M24.7615 474.095C19.5234 476.714 12.1425 475.524 7.85677 471.476C1.90439 466.238 2.38058 454.095 4.28535 446.953C6.6663 438.619 10.4758 427.191 20.7139 426.238C25.7139 425.524 32.8568 431.714 35.2377 436C39.2853 443.143 40.7139 449.334 38.0949 457.429C40.4758 461.476 28.8092 471.953 24.7615 474.095V474.095Z" stroke="#A06442" stroke-width="0.5"/>
<path d="M38.0951 477.191C28.3332 488.381 18.0951 488.381 5.23798 482.429C-9.28583 476 -8.33344 456.952 -3.80964 443.619C-1.66678 436.714 2.14274 430.048 6.66655 424.571C10.9523 419.095 18.8094 412.905 25.9523 413.143C34.5237 413.381 40.4761 419.095 44.2856 426.238C48.0951 433.381 51.6665 443.857 49.0475 451.714C50.9523 458.381 43.3332 471 38.0951 477.191V477.191Z" stroke="#A06442" stroke-width="0.5"/>
<path d="M61.1903 462.191C55.7141 468.857 51.6665 476.476 46.9046 483.857C37.3808 498.143 16.9046 500.762 1.6665 495.286C-6.90493 492.191 -13.3335 486.714 -17.6192 478.381C-24.0478 464.81 -17.8573 449.81 -13.8097 436.476C-7.85731 416.952 9.99982 395.524 32.1427 395.524C45.7141 395.524 61.1903 402.191 64.5236 416C65.9522 421.714 68.3332 427.191 69.0474 433.143C69.5236 437.667 70.7141 444.572 69.0474 449.095C69.2855 455.048 65.2379 456.952 61.1903 462.191V462.191Z" stroke="#A06442" stroke-width="0.5"/>
<path d="M68.571 476.476C61.9043 486.238 54.0472 494.572 45.9519 502.905C39.2852 509.81 32.3805 514.81 22.6186 516C10.7138 517.667 -1.90523 513.143 -10.4767 504.81C-20.0005 495.524 -30.2386 488.619 -33.0957 475.048C-35.0005 466.953 -35.7148 460.286 -35.0005 451.953C-34.0481 444.095 -30.9528 437.191 -27.8576 430.048C-20.7148 413.381 -6.90523 398.143 10.2376 392.667C15.2376 391 19.7614 389.095 25.2376 388.381C32.8567 387.429 40.9519 387.429 48.3329 389.572C56.4281 391.953 60.9519 395.048 65.9519 401.953C69.0472 406.953 70.9519 412.191 72.8567 417.429C75.2376 424.81 78.8091 431.714 79.9995 439.572C80.7138 444.81 81.19 450.286 79.5233 455.286C78.571 457.905 76.6662 459.81 75.9519 462.429C76.6662 467.191 70.4757 473.857 68.571 476.476V476.476Z" stroke="#A06442" stroke-width="0.5"/>
<path d="M88.095 449.572C88.095 453.858 88.5712 457.429 87.1426 461.715C85.2378 468.619 84.0474 476.715 79.9998 482.667C74.9998 490.286 68.3331 496.953 61.6664 502.667C56.6664 506.953 51.1902 511 46.1902 515.286C40.714 520.048 35.4759 526.238 28.5712 528.143C22.1426 530.048 16.4283 529.096 9.99976 528.619C2.8569 527.905 -3.80977 527.191 -10.7145 524.572C-16.6669 522.429 -22.6193 517.905 -28.0955 514.334C-35.0002 509.334 -42.1431 502.191 -44.286 493.619C-49.7621 473.619 -57.6193 451.715 -49.7622 431.238C-42.6193 412.429 -30.2383 398.381 -13.3336 388.143C-6.19072 383.619 1.42832 379.334 9.52356 376.715C16.1902 374.334 24.2855 370.286 31.4283 371.238C39.5236 372.429 47.8569 376 55.4759 378.143C61.4283 380.048 67.1426 381.477 72.3807 385.286C79.5236 390.762 81.4283 396.477 84.2855 404.572C86.4283 410.762 87.8569 416.953 88.8093 423.143C89.7617 428.858 91.6664 435.524 89.7617 441C90.2378 443.143 88.3331 446.477 88.095 449.572V449.572Z" stroke="#A06442" stroke-width="0.5"/>
<path d="M102.143 436.953C101.904 441.238 102.143 445.762 101.666 450.048C101.19 456.238 101.904 462.667 100.714 468.857C98.8092 476.953 95.2377 485.048 91.9044 492.905C88.333 501.476 85.2377 511.714 79.5235 519.095C74.9996 525.524 65.952 529.81 59.2854 533.143C54.5235 535.524 48.333 538.143 43.0949 539.095C39.5235 539.81 35.952 539.572 32.6187 540.524C28.333 541.953 24.5235 543.857 20.2377 545.048C16.1901 546 11.9044 546.953 7.8568 547.667C4.28537 548.381 0.713943 547.905 -3.09558 549.095C-7.61939 550.524 -13.3337 551.238 -17.8575 549.81C-28.0956 546.476 -35.0003 537.667 -40.4765 528.857C-46.667 519.333 -53.5718 509.81 -58.5718 499.572C-62.3813 491.476 -65.7146 483.381 -70.2384 475.524C-82.3813 453.857 -78.8099 426.476 -64.5241 406.476C-59.5241 399.572 -57.8575 391.953 -51.1908 386C-46.667 381.714 -40.7146 378.619 -35.0003 375.762C-28.3337 372.111 -22.0638 367.984 -16.1908 363.381C-11.9051 359.81 -5.71463 358.619 -0.714628 356.714C9.99966 352.667 17.6187 351.238 29.2854 352.667C34.2854 353.381 39.2854 353.143 44.2854 353.381C49.7616 353.857 53.5711 355.286 58.5711 357.667C65.952 361.476 73.333 365.524 79.5235 371.476C84.2854 376 91.1901 378.619 94.2854 384.572C98.5711 392.905 98.5711 402.191 99.5235 411C100.476 418.143 101.904 424.81 102.143 431.953C102.857 432.905 102.143 435.048 102.143 436.953V436.953Z" stroke="#A06442" stroke-width="0.5"/>
</g>
<g clip-path="url(#clip2_30_148)">
<path d="M808.602 209.368C873.121 224.455 951.143 258.22 948.892 332.217C947.392 413.397 876.872 481.647 803.351 513.257C744.834 538.401 677.315 545.585 615.047 528.343C553.529 511.101 498.764 469.434 471.006 413.397C456.001 381.787 449.25 345.148 459.002 311.383C469.505 272.588 500.264 241.697 537.025 223.736C573.785 205.058 615.047 197.873 656.309 195.718C707.323 192.845 759.088 197.155 808.602 209.368Z" fill="#CBC1B1"/>
</g>
<path d="M546.497 312V286.8H555.929C558.065 286.8 559.901 287.148 561.437 287.844C562.973 288.516 564.149 289.5 564.965 290.796C565.805 292.068 566.225 293.616 566.225 295.44C566.225 297.216 565.805 298.752 564.965 300.048C564.149 301.32 562.973 302.304 561.437 303C559.901 303.696 558.065 304.044 555.929 304.044H547.973L549.161 302.784V312H546.497ZM549.161 303L547.973 301.704H555.857C558.377 301.704 560.285 301.164 561.581 300.084C562.901 298.98 563.561 297.432 563.561 295.44C563.561 293.424 562.901 291.864 561.581 290.76C560.285 289.656 558.377 289.104 555.857 289.104H547.973L549.161 287.844V303ZM583.113 312V307.824L583.005 307.14V300.156C583.005 298.548 582.549 297.312 581.637 296.448C580.749 295.584 579.417 295.152 577.641 295.152C576.417 295.152 575.253 295.356 574.149 295.764C573.045 296.172 572.109 296.712 571.341 297.384L570.189 295.476C571.149 294.66 572.301 294.036 573.645 293.604C574.989 293.148 576.405 292.92 577.893 292.92C580.341 292.92 582.225 293.532 583.545 294.756C584.889 295.956 585.561 297.792 585.561 300.264V312H583.113ZM576.597 312.18C575.181 312.18 573.945 311.952 572.889 311.496C571.857 311.016 571.065 310.368 570.513 309.552C569.961 308.712 569.685 307.752 569.685 306.672C569.685 305.688 569.913 304.8 570.369 304.008C570.849 303.192 571.617 302.544 572.673 302.064C573.753 301.56 575.193 301.308 576.993 301.308H583.509V303.216H577.065C575.241 303.216 573.969 303.54 573.249 304.188C572.553 304.836 572.205 305.64 572.205 306.6C572.205 307.68 572.625 308.544 573.465 309.192C574.305 309.84 575.481 310.164 576.993 310.164C578.433 310.164 579.669 309.84 580.701 309.192C581.757 308.52 582.525 307.56 583.005 306.312L583.581 308.076C583.101 309.324 582.261 310.32 581.061 311.064C579.885 311.808 578.397 312.18 576.597 312.18ZM600.567 319.164C598.839 319.164 597.183 318.912 595.599 318.408C594.015 317.904 592.731 317.184 591.747 316.248L593.043 314.304C593.931 315.096 595.023 315.72 596.319 316.176C597.639 316.656 599.031 316.896 600.495 316.896C602.895 316.896 604.659 316.332 605.787 315.204C606.915 314.1 607.479 312.372 607.479 310.02V305.304L607.839 302.064L607.587 298.824V293.1H610.035V309.696C610.035 312.96 609.231 315.348 607.623 316.86C606.039 318.396 603.687 319.164 600.567 319.164ZM600.099 311.28C598.299 311.28 596.679 310.896 595.239 310.128C593.799 309.336 592.659 308.244 591.819 306.852C591.003 305.46 590.595 303.864 590.595 302.064C590.595 300.264 591.003 298.68 591.819 297.312C592.659 295.92 593.799 294.84 595.239 294.072C596.679 293.304 598.299 292.92 600.099 292.92C601.779 292.92 603.291 293.268 604.635 293.964C605.979 294.66 607.047 295.692 607.839 297.06C608.631 298.428 609.027 300.096 609.027 302.064C609.027 304.032 608.631 305.7 607.839 307.068C607.047 308.436 605.979 309.48 604.635 310.2C603.291 310.92 601.779 311.28 600.099 311.28ZM600.351 309.012C601.743 309.012 602.979 308.724 604.059 308.148C605.139 307.548 605.991 306.732 606.615 305.7C607.239 304.644 607.551 303.432 607.551 302.064C607.551 300.696 607.239 299.496 606.615 298.464C605.991 297.432 605.139 296.628 604.059 296.052C602.979 295.452 601.743 295.152 600.351 295.152C598.983 295.152 597.747 295.452 596.643 296.052C595.563 296.628 594.711 297.432 594.087 298.464C593.487 299.496 593.187 300.696 593.187 302.064C593.187 303.432 593.487 304.644 594.087 305.7C594.711 306.732 595.563 307.548 596.643 308.148C597.747 308.724 598.983 309.012 600.351 309.012ZM625.176 312.18C623.208 312.18 621.48 311.772 619.992 310.956C618.504 310.116 617.34 308.976 616.5 307.536C615.66 306.072 615.24 304.404 615.24 302.532C615.24 300.66 615.636 299.004 616.428 297.564C617.244 296.124 618.348 294.996 619.74 294.18C621.156 293.34 622.74 292.92 624.492 292.92C626.268 292.92 627.84 293.328 629.208 294.144C630.6 294.936 631.692 296.064 632.484 297.528C633.276 298.968 633.672 300.636 633.672 302.532C633.672 302.652 633.66 302.784 633.636 302.928C633.636 303.048 633.636 303.18 633.636 303.324H617.184V301.416H632.268L631.26 302.172C631.26 300.804 630.96 299.592 630.36 298.536C629.784 297.456 628.992 296.616 627.984 296.016C626.976 295.416 625.812 295.116 624.492 295.116C623.196 295.116 622.032 295.416 621 296.016C619.968 296.616 619.164 297.456 618.588 298.536C618.012 299.616 617.724 300.852 617.724 302.244V302.64C617.724 304.08 618.036 305.352 618.66 306.456C619.308 307.536 620.196 308.388 621.324 309.012C622.476 309.612 623.784 309.912 625.248 309.912C626.4 309.912 627.468 309.708 628.452 309.3C629.46 308.892 630.324 308.268 631.044 307.428L632.484 309.084C631.644 310.092 630.588 310.86 629.316 311.388C628.068 311.916 626.688 312.18 625.176 312.18ZM657.944 292.92C659.48 292.92 660.824 293.22 661.976 293.82C663.152 294.396 664.064 295.284 664.712 296.484C665.384 297.684 665.72 299.196 665.72 301.02V312H663.164V301.272C663.164 299.28 662.66 297.78 661.652 296.772C660.668 295.74 659.276 295.224 657.476 295.224C656.132 295.224 654.956 295.5 653.948 296.052C652.964 296.58 652.196 297.36 651.644 298.392C651.116 299.4 650.852 300.624 650.852 302.064V312H648.296V293.1H650.744V298.284L650.348 297.312C650.948 295.944 651.908 294.876 653.228 294.108C654.548 293.316 656.12 292.92 657.944 292.92ZM680.329 312.18C678.505 312.18 676.861 311.772 675.397 310.956C673.957 310.116 672.817 308.976 671.977 307.536C671.137 306.072 670.717 304.404 670.717 302.532C670.717 300.636 671.137 298.968 671.977 297.528C672.817 296.088 673.957 294.96 675.397 294.144C676.837 293.328 678.481 292.92 680.329 292.92C682.201 292.92 683.857 293.328 685.297 294.144C686.761 294.96 687.901 296.088 688.717 297.528C689.557 298.968 689.977 300.636 689.977 302.532C689.977 304.404 689.557 306.072 688.717 307.536C687.901 308.976 686.761 310.116 685.297 310.956C683.833 311.772 682.177 312.18 680.329 312.18ZM680.329 309.912C681.697 309.912 682.909 309.612 683.965 309.012C685.021 308.388 685.849 307.524 686.449 306.42C687.073 305.292 687.385 303.996 687.385 302.532C687.385 301.044 687.073 299.748 686.449 298.644C685.849 297.54 685.021 296.688 683.965 296.088C682.909 295.464 681.709 295.152 680.365 295.152C679.021 295.152 677.821 295.464 676.765 296.088C675.709 296.688 674.869 297.54 674.245 298.644C673.621 299.748 673.309 301.044 673.309 302.532C673.309 303.996 673.621 305.292 674.245 306.42C674.869 307.524 675.709 308.388 676.765 309.012C677.821 309.612 679.009 309.912 680.329 309.912ZM701.171 312.18C699.395 312.18 698.027 311.7 697.067 310.74C696.107 309.78 695.627 308.424 695.627 306.672V288.924H698.183V306.528C698.183 307.632 698.459 308.484 699.011 309.084C699.587 309.684 700.403 309.984 701.459 309.984C702.587 309.984 703.523 309.66 704.267 309.012L705.167 310.848C704.663 311.304 704.051 311.64 703.331 311.856C702.635 312.072 701.915 312.18 701.171 312.18ZM692.243 295.224V293.1H703.943V295.224H692.243ZM722.158 299.004H735.478V301.308H722.158V299.004ZM722.446 312H719.782V286.8H737.062V289.104H722.446V312ZM749.094 312.18C747.27 312.18 745.626 311.772 744.162 310.956C742.722 310.116 741.582 308.976 740.742 307.536C739.902 306.072 739.482 304.404 739.482 302.532C739.482 300.636 739.902 298.968 740.742 297.528C741.582 296.088 742.722 294.96 744.162 294.144C745.602 293.328 747.246 292.92 749.094 292.92C750.966 292.92 752.622 293.328 754.062 294.144C755.526 294.96 756.666 296.088 757.482 297.528C758.322 298.968 758.742 300.636 758.742 302.532C758.742 304.404 758.322 306.072 757.482 307.536C756.666 308.976 755.526 310.116 754.062 310.956C752.598 311.772 750.942 312.18 749.094 312.18ZM749.094 309.912C750.462 309.912 751.674 309.612 752.73 309.012C753.786 308.388 754.614 307.524 755.214 306.42C755.838 305.292 756.15 303.996 756.15 302.532C756.15 301.044 755.838 299.748 755.214 298.644C754.614 297.54 753.786 296.688 752.73 296.088C751.674 295.464 750.474 295.152 749.13 295.152C747.786 295.152 746.586 295.464 745.53 296.088C744.474 296.688 743.634 297.54 743.01 298.644C742.386 299.748 742.074 301.044 742.074 302.532C742.074 303.996 742.386 305.292 743.01 306.42C743.634 307.524 744.474 308.388 745.53 309.012C746.586 309.612 747.774 309.912 749.094 309.912ZM771.772 312.18C770.164 312.18 768.76 311.88 767.56 311.28C766.36 310.68 765.424 309.78 764.752 308.58C764.104 307.38 763.78 305.88 763.78 304.08V293.1H766.336V303.792C766.336 305.808 766.828 307.332 767.812 308.364C768.82 309.372 770.224 309.876 772.024 309.876C773.344 309.876 774.484 309.612 775.444 309.084C776.428 308.532 777.172 307.74 777.676 306.708C778.204 305.676 778.468 304.44 778.468 303V293.1H781.024V312H778.576V306.816L778.972 307.752C778.372 309.144 777.436 310.236 776.164 311.028C774.916 311.796 773.452 312.18 771.772 312.18ZM797.796 292.92C799.332 292.92 800.676 293.22 801.828 293.82C803.004 294.396 803.916 295.284 804.564 296.484C805.236 297.684 805.572 299.196 805.572 301.02V312H803.016V301.272C803.016 299.28 802.512 297.78 801.504 296.772C800.52 295.74 799.128 295.224 797.328 295.224C795.984 295.224 794.808 295.5 793.8 296.052C792.816 296.58 792.048 297.36 791.496 298.392C790.968 299.4 790.704 300.624 790.704 302.064V312H788.148V293.1H790.596V298.284L790.2 297.312C790.8 295.944 791.76 294.876 793.08 294.108C794.4 293.316 795.972 292.92 797.796 292.92ZM820 312.18C818.2 312.18 816.58 311.772 815.14 310.956C813.724 310.14 812.608 309.012 811.792 307.572C810.976 306.108 810.568 304.428 810.568 302.532C810.568 300.612 810.976 298.932 811.792 297.492C812.608 296.052 813.724 294.936 815.14 294.144C816.58 293.328 818.2 292.92 820 292.92C821.656 292.92 823.132 293.292 824.428 294.036C825.748 294.78 826.792 295.872 827.56 297.312C828.352 298.728 828.748 300.468 828.748 302.532C828.748 304.572 828.364 306.312 827.596 307.752C826.828 309.192 825.784 310.296 824.464 311.064C823.168 311.808 821.68 312.18 820 312.18ZM820.18 309.912C821.524 309.912 822.724 309.612 823.78 309.012C824.86 308.388 825.7 307.524 826.3 306.42C826.924 305.292 827.236 303.996 827.236 302.532C827.236 301.044 826.924 299.748 826.3 298.644C825.7 297.54 824.86 296.688 823.78 296.088C822.724 295.464 821.524 295.152 820.18 295.152C818.86 295.152 817.672 295.464 816.616 296.088C815.56 296.688 814.72 297.54 814.096 298.644C813.472 299.748 813.16 301.044 813.16 302.532C813.16 303.996 813.472 305.292 814.096 306.42C814.72 307.524 815.56 308.388 816.616 309.012C817.672 309.612 818.86 309.912 820.18 309.912ZM827.308 312V306.312L827.56 302.496L827.2 298.68V285.288H829.756V312H827.308ZM615.605 408V406.176H624.629V390.816H598.613V388.992L625.685 340.8H642.293V388.512H651.797V380.16H653.621V397.92H651.797V390.816H642.293V406.176H648.917V408H615.605ZM601.685 388.512H624.629V348.096L601.685 388.512ZM687.273 408.96C677.993 408.96 670.921 405.824 666.057 399.552C661.257 393.28 658.857 384.512 658.857 373.248C658.857 361.984 661.449 353.6 666.633 348.096C671.817 342.528 678.889 339.744 687.849 339.744C696.873 339.744 703.945 342.496 709.065 348C714.249 353.504 716.841 362.272 716.841 374.304C716.841 386.336 714.249 395.136 709.065 400.704C703.881 406.208 696.617 408.96 687.273 408.96ZM678.537 370.752V379.296C678.537 385.504 678.569 389.888 678.633 392.448C678.761 395.008 679.113 397.664 679.689 400.416C680.265 403.168 681.193 404.96 682.473 405.792C683.753 406.56 685.257 406.944 686.985 406.944C688.713 406.944 689.993 406.848 690.825 406.656C691.721 406.464 692.489 406.08 693.129 405.504C693.833 404.864 694.409 404.256 694.857 403.68C695.305 403.04 695.657 402.08 695.913 400.8C696.233 399.52 696.489 398.336 696.681 397.248C696.873 396.16 697.001 394.56 697.065 392.448C697.193 388.352 697.257 384.224 697.257 380.064V371.616C697.257 359.072 696.777 350.976 695.817 347.328C694.921 343.616 692.297 341.76 687.945 341.76C683.593 341.76 680.937 343.648 679.977 347.424C679.017 351.2 678.537 358.976 678.537 370.752ZM737.199 408V406.176H746.223V390.816H720.207V388.992L747.279 340.8H763.887V388.512H773.391V380.16H775.215V397.92H773.391V390.816H763.887V406.176H770.511V408H737.199ZM723.279 388.512H746.223V348.096L723.279 388.512Z" fill="#57504B"/>
<g clip-path="url(#clip3_30_148)">
<path fill-rule="evenodd" clip-rule="evenodd" d="M318.07 828.936C282.779 841.037 243.651 845.728 211.116 826.294C178.389 806.305 152.339 777.507 135.659 743.982C134.312 741.942 137.44 739.751 139.956 741.43C167.229 762.486 198.227 779.326 231.986 791.018C259.147 800.447 287.111 806.561 312.886 819.486C309.684 813.926 306.873 808.246 304.451 802.446C302.283 797.386 300.437 792.635 298.913 788.195C260.232 784.77 221.402 775.254 189.083 752.684C164.504 735.708 131.68 702.247 135.604 670.351C135.617 668.506 137.956 667.785 139.698 669.09C168.725 689.605 197.752 710.121 227.758 729.721C251.181 745.212 276.371 758.317 295.878 777.469C292.488 761.943 291.629 746.251 291.938 730.199C290.388 729.449 290.007 728.339 290.401 727.604C262.548 733.117 239.356 712.645 219.442 696.073C194.101 676.877 172.84 658.265 161.383 628.654C160.621 626.433 163.164 624.422 164.905 625.727C189.293 642.148 212.703 659.484 238.668 672.964C259.982 684.195 277.774 698.353 292.235 715.992C292.253 713.531 292.27 711.071 292.288 708.61C292.858 701.479 293.428 694.348 293.998 687.217C244.516 671.163 202.336 640.584 172.094 599.577C170.938 598.092 173.29 595.526 174.841 596.275C199.513 600.334 224.703 613.44 243.461 628.527C262.804 643.434 283.125 657.425 294.254 678.546C295.109 667.849 294.794 657.512 293.895 647.356C276.391 647.226 261.497 635.858 247.364 626.711C228.389 614.759 209.809 602.072 192.602 587.734C190.86 586.43 192.247 582.934 194.573 584.058C215.913 591.599 236.465 600.61 256.623 610.356C269.409 617.463 283.364 624.211 292.233 634.98C291.988 633.01 291.743 631.039 291.498 629.069C291.371 628.699 291.244 628.329 291.117 627.959C290.999 626.359 290.686 624.819 290.178 623.339C289.661 623.089 289.534 622.719 289.797 622.229C289.543 621.489 289.225 620.564 288.844 619.454C288.454 619.574 288.259 619.634 288.259 619.634C256.419 611.646 216.919 586.993 205.081 556.272C204.509 554.606 206.467 552.776 208.018 553.525C239.26 563.539 273.78 577.451 288.746 605.982C289.263 606.231 289.649 606.726 289.903 607.466C291.308 610.307 292.583 613.392 293.726 616.722C298.537 596.828 307.02 580.098 320.563 563.037C335.479 544.325 350.231 521.368 370.561 507.126C372.125 506.03 374.642 507.71 374.044 509.735C367.833 534.97 360.643 561.121 346.285 583.343C340.384 592.526 332.933 600.959 325.291 608.837C316.861 618.186 308.674 620.708 297.359 625.422C297.359 625.422 297.164 625.482 296.774 625.602C296.511 626.092 296.443 626.523 296.57 626.893C297.696 632.683 298.563 638.349 299.171 643.889C299.298 644.259 299.362 644.444 299.362 644.444C308.036 628.27 325.81 617.883 339.516 605.068C347.349 597.745 356.922 591.726 364.755 584.403C372.397 576.525 379.073 567.717 387.681 560.769C389.639 558.938 393.121 561.548 391.938 563.753C379.131 586.725 368.636 612.666 349.055 630.974C337.497 642.514 317.942 657.131 300.058 655.891C300.132 663.642 300.011 671.453 299.695 679.324C317.127 662.292 335.322 647.48 355.842 633.793C380.66 617.554 398.159 591.296 414.475 567.243C416.242 564.857 420.119 566.731 418.542 569.672C405.478 601.315 391.599 638.119 367.49 663.959C353.376 679.355 321.159 696.646 299.247 687.441C298.583 698.692 297.728 709.389 296.873 720.086C308.99 712.057 318.399 701.793 329.55 692.833C340.497 685.164 353.362 681.2 365.275 674.461C396.131 656.976 414.826 626.666 432.732 597.827C433.915 595.622 437.601 596.941 437.193 599.521C434.137 618.875 435.568 636.232 427.072 654.807C418.779 672.092 405.249 687.307 389.788 700.664C364.346 722.618 331.531 741.935 296.984 731.713C296.09 747.945 297.14 764.192 302.08 780.468C303.25 780.108 304.419 779.747 305.589 779.387C333.673 750.686 363.172 723.594 394.085 698.112C419.133 676.892 446.941 650.526 481.213 644.876C483.743 644.711 485.28 647.306 483.322 649.136C456.834 681.233 431.68 717.215 397.262 743.163C371.249 763.452 341.004 777.067 307.888 784.202C307.235 784.812 306.388 785.483 305.345 786.213C305.082 786.703 304.498 786.883 303.591 786.754C303.845 787.494 304.099 788.234 304.353 788.974C308.172 798.844 312.381 808.595 316.98 818.225C332.928 791.217 360.085 774.257 387.038 758.588C419.267 739.451 448.014 717.706 471.361 689.645C472.734 687.995 475.835 689.494 475.822 691.339C476.478 708.322 462.718 728.518 454.833 743.222C444.976 761.603 433.365 780.523 418.666 796.1C405.149 809.47 388.966 815.07 371.422 820.476C354.858 824.966 338.688 828.72 321.782 826.565C355.005 885.679 411.292 929.096 477.245 953.577C480.156 954.521 479.341 959.682 476.239 958.183C437.829 944.241 401.404 924.778 371.26 897.242C350.393 877.894 331.892 854.136 318.07 828.936V828.936ZM322.992 604.022C331.218 595.964 338.479 586.976 344.19 577.238C355.801 558.317 361.985 536.772 367.584 515.408C351.933 528.209 339.152 547.49 326.983 562.9C312.461 580.877 302.998 598.522 297.984 619.706C307.544 615.533 315.54 612.455 322.992 604.022ZM287.129 614.458C275.482 584.292 242.716 569.839 212.058 559.645C224.902 585.761 259.179 606.499 287.129 614.458ZM249.606 612.518C236.04 605.65 222.275 599.458 208.311 593.941C219.914 603.254 232.496 611.652 245.663 619.87C259.211 629.198 275.071 641.495 292.18 642.361C282.168 628.262 265.111 620.015 249.606 612.518V612.518ZM356.165 615.895C365.398 603.231 372.889 589.262 380.38 575.293C377.117 578.344 374.111 581.52 371.365 584.822C364.702 591.784 356.107 596.887 349.254 603.295C341.625 609.328 334.378 616.471 326.749 622.504C316.768 631.103 306.406 638.592 301.648 651.105C322.647 651.999 345.56 630.21 356.165 615.895V615.895ZM342.902 675.217C358.133 666.842 367.543 656.578 376.788 642.068C387.407 625.908 396.285 608.443 403.803 590.784C392.993 606.389 381.409 621.619 366.355 632.395C355.599 640.619 344.08 646.623 333.324 654.847C322.173 663.806 311.988 673.695 302.579 683.959C315.772 688.486 330.799 681.401 342.902 675.217V675.217ZM289.957 681.097C279.4 661.642 260.629 648.4 243.612 634.618C225.82 620.46 203.35 607.744 180.051 602.035C207.993 638.228 245.726 665.267 289.957 681.097V681.097ZM227.584 672.697C207.045 661.841 188.669 647.864 169.313 634.802C179.857 656.103 196.276 671.911 215.809 687.373C236.308 703.765 261.405 729.787 291.216 722.443C273.871 700.169 252.38 686.538 227.584 672.697ZM392.969 691.091C406.675 678.276 418.845 662.865 425.778 645.386C430.141 633.608 430.03 621.982 431.089 609.995C415.942 633.687 399.626 657.74 374.809 673.979C361.319 683.659 344.564 687.594 331.85 697.648C319.72 707.523 309.725 717.967 297.024 726.177C297.024 726.177 296.893 726.422 296.63 726.912C333.312 737.704 367.513 714.891 392.969 691.091ZM400.239 734.881C428.809 710.735 451.788 679.719 475.529 650.924C442.21 659.349 415.368 686.645 390.714 707.129C364.36 729.569 338.973 752.939 314.551 777.239C345.531 769.535 375.586 755.365 400.239 734.881ZM294.478 782.811C272.659 760.688 243.007 745.889 217.068 728.718C191.129 711.548 165.584 693.642 140.624 675.556C140.912 689.583 149.755 704.042 157.455 715.172C168.052 729.091 181.383 741.555 195.706 751.257C224.937 770.482 259.687 779.414 294.478 782.811ZM220.697 792.041C193.93 781.877 168.549 768.217 145.33 751.435C161.084 778.495 182.7 801.908 209.414 819.453C226.838 830.655 243.337 835.392 264.349 834.441C281.472 833.461 297.833 830.261 313.622 825.397C284.949 809.682 251.926 803.9 220.697 792.041ZM369.708 815.48C388.611 810.27 404.604 804.114 418.134 788.899C430.29 775.334 440.134 758.799 448.808 742.624C453.14 735.152 457.151 727.37 460.84 719.277C463.803 712.841 467.937 706.044 470.125 699.232C450.128 721.351 427.106 740.309 401.059 756.108C370.979 773.969 337.987 790.885 320.843 821.944C337.749 824.1 353.919 820.345 369.708 815.48Z" fill="#4C886A"/>
<path fill-rule="evenodd" clip-rule="evenodd" d="M-59.9112 70.6838C-59.713 34.6336 -50.9346 -2.37601 -20.7465 -25.2352C10.0511 -48.0787 47.2054 -61.891 85.7933 -65.6179C88.2548 -66.1451 89.3345 -62.5707 86.8266 -60.8626C56.8476 -43.3175 29.7305 -20.9696 6.71773 5.62228C-11.8191 27.0107 -27.3778 50.2497 -48.8694 69.1972C-42.321 68.185 -35.7881 67.5665 -29.2707 67.3416C-23.566 67.0957 -18.2754 67.036 -13.399 67.1626C3.18752 33.311 25.7999 1.38903 58.9893 -20.2102C84.0453 -36.7008 128.091 -55.0629 158.034 -40.691C159.839 -40.0531 159.747 -37.6912 157.871 -36.5577C127.823 -17.2413 97.774 2.07514 68.2884 22.5883C45.0843 38.536 23.6159 56.893 -1.84064 68.0537C14.5477 70.2523 30.2335 74.7969 45.8729 80.5225C47.1385 79.3732 48.3576 79.4049 48.9439 80.0112C53.0605 52.9288 81.0714 38.8791 104.136 26.4742C131.63 10.0468 157.157 -2.88522 190.119 -3.21175C192.557 -3.14846 193.66 -0.164473 191.785 0.968996C167.339 17.4755 142.329 32.7852 120.228 51.7169C101.923 67.2007 81.9529 78.5037 59.7068 85.6102C62.1141 86.4608 64.5213 87.3114 66.9286 88.1619C73.7285 91.0968 80.5283 94.0316 87.3282 96.9664C119.996 57.6216 164.413 29.812 214.977 16.3478C216.829 15.8048 218.541 18.8046 217.276 19.9539C204.858 40.9101 183.389 59.2671 162.177 71.129C140.94 83.5813 120.268 97.2304 95.7458 100.14C105.946 104.543 116.192 107.764 126.461 110.395C132.575 94.5945 148.818 84.9679 162.623 75.2781C180.835 62.1562 199.633 49.6405 219.58 38.928C221.455 37.7945 224.41 40.2355 222.512 41.9594C207.818 58.7191 191.952 74.2661 175.499 89.2069C164.156 98.3696 152.765 108.713 139.169 113.089C141.186 113.535 143.202 113.982 145.218 114.428C145.625 114.439 146.031 114.449 146.437 114.46C148.047 114.896 149.665 115.135 151.291 115.177C151.713 114.794 152.119 114.804 152.51 115.208C153.323 115.229 154.338 115.256 155.558 115.287C155.573 114.894 155.581 114.697 155.581 114.697C174.303 88.5848 211.992 61.1917 246.174 60.8968C248.002 60.9443 249.129 63.3378 247.863 64.4871C227.358 89.3709 201.907 115.9 168.805 119.769C168.383 120.152 167.766 120.333 166.953 120.312C163.687 120.621 160.225 120.728 156.568 120.633C174.436 131.736 187.945 145.091 200.048 163.137C213.301 182.986 230.775 204.127 237.793 227.361C238.333 229.149 235.825 230.857 234.043 229.628C211.414 215.446 188.222 200.067 171.335 179.533C164.346 171.076 158.622 161.471 153.507 151.881C147.221 141.078 147.546 132.812 146.791 120.971C146.791 120.971 146.799 120.774 146.815 120.38C146.424 119.976 146.025 119.769 145.619 119.758C139.554 118.813 133.701 117.675 128.058 116.347C127.651 116.336 127.448 116.331 127.448 116.331C140.347 129.669 144.457 149.281 152.34 166.036C156.845 175.61 159.475 186.318 163.979 195.892C169.094 205.482 175.45 214.513 179.322 224.661C180.448 227.055 176.698 229.322 174.939 227.503C156.786 208.118 134.93 189.818 123.668 165.883C116.301 151.506 108.65 128.847 115.983 113.078C108.355 110.516 100.734 107.757 93.1217 104.801C103.867 126.358 112.174 147.852 118.582 171.071C126.024 199.044 145.796 223.791 163.81 246.719C165.546 249.129 162.382 252.002 160.036 249.577C133.466 227.018 102.112 201.97 85.0103 171.381C74.7353 153.382 68.7914 118.355 85.3137 101.643C74.5043 97.2246 64.3045 92.8224 54.1046 88.4201C57.8371 102.112 64.6871 114.111 69.662 127.244C73.441 139.754 72.9298 152.744 75.4665 165.814C82.0664 199.676 105.403 226.88 127.567 252.872C129.326 254.69 126.772 257.579 124.38 256.335C106.442 247.004 88.9273 242.411 73.6132 228.419C59.495 215.049 49.1968 197.641 41.3832 179.115C28.5484 148.637 20.8223 112.381 42.6625 84.5767C27.0463 78.2606 10.7509 73.7002 -6.90296 72.6508C-6.94943 73.8318 -6.9959 75.0127 -7.04237 76.1936C11.5067 111.351 27.993 147.243 42.4165 183.87C54.665 213.742 71.0178 247.857 64.8403 280.797C64.1378 283.143 61.0668 283.654 59.9406 281.261C37.5154 246.397 10.8234 211.422 -2.85882 171.465C-13.865 141.034 -16.8773 109.038 -12.5516 76.6417C-12.927 75.8439 -13.2946 74.8492 -13.6545 73.6577C-14.0454 73.2535 -14.0222 72.6631 -13.5848 71.8863C-14.3976 71.8652 -15.2103 71.8441 -16.0231 71.823C-27.0106 71.9319 -38.0136 72.4343 -49.0321 73.3305C-27.9942 96.9283 -20.6453 127.264 -14.4923 156.977C-6.74303 192.642 4.75655 226.041 24.2965 256.693C25.446 258.496 22.9148 260.794 21.1094 260.156C4.22764 254.99 -10.8773 235.683 -22.6038 223.557C-37.2618 208.4 -51.8502 191.472 -62.102 172.882C-70.5948 156.112 -70.5538 139.563 -69.8568 121.849C-68.5966 105.332 -66.7502 89.4206 -58.8547 74.8487C-128.199 84.8701 -190.032 121.094 -236.598 172.49C-238.519 174.805 -243.303 172.316 -240.772 170.018C-213.962 139.978 -182.416 113.607 -145.099 95.6618C-118.986 83.3361 -89.3558 74.6481 -59.9112 70.6838V70.6838ZM159.017 151.433C164.108 161.613 170.441 171.235 178.04 179.707C192.628 196.635 211.646 209.542 230.687 221.857C223.484 203.347 208.942 185.237 197.987 168.994C185.321 149.751 171.249 135.2 152.184 123.475C153.009 133.545 153.293 141.827 159.017 151.433ZM161.044 115.43C194.616 115.119 219.997 90.362 240.479 66.0686C210.471 68.8361 178.408 92.8289 161.044 115.43ZM175.778 82.1213C187.153 72.1713 197.934 61.8119 208.12 51.043C195.017 58.3868 182.478 66.9274 169.915 76.0584C156.133 85.1578 138.647 95.3432 131.947 110.537C149.201 106.256 163.122 93.6142 175.778 82.1213V82.1213ZM136.027 177.434C145.292 190.087 156.432 201.607 167.572 213.126C165.695 209.137 163.608 205.339 161.309 201.733C156.758 193.34 154.691 183.829 150.749 175.452C147.441 166.5 142.913 157.516 139.604 148.564C134.583 136.613 130.78 124.693 120.134 116.141C112.075 134.846 125.613 162.978 136.027 177.434V177.434ZM82.3752 145.306C85.382 161.934 92.232 173.933 103.302 187.224C115.522 202.318 129.617 216.278 144.368 229.074C132.758 213.996 121.78 198.343 116.359 181.061C111.97 168.535 110.02 156.072 105.631 143.545C100.656 130.412 94.4393 117.839 87.5893 105.839C78.6373 116.246 80.4482 132.252 82.3752 145.306V145.306ZM94.7126 95.3849C117.406 92.4275 136.813 79.9277 156.151 69.1993C176.121 57.8963 196.278 41.8695 209.845 22.7163C164.79 35.7325 125.365 60.7163 94.7126 95.3849V95.3849ZM124.28 41.7739C141.952 26.8647 161.946 14.9712 181.376 1.88095C156.878 4.20039 135.758 13.7004 113.912 26.1369C90.8243 39.1322 56.7178 53.0237 53.7274 82.4996C81.506 74.3546 102.225 59.5246 124.28 41.7739ZM49.6847 185.241C57.5679 201.996 68.5222 218.239 83.2964 230.444C93.3568 238.389 104.799 242.232 116.195 247.257C98.1349 225.509 80.1215 202.581 72.6797 174.608C67.7978 159.113 69.6675 142.612 64.1528 127.692C58.6148 113.362 51.788 100.772 48.0788 86.4905C48.0788 86.4905 47.8833 86.2884 47.4925 85.8842C24.3635 115.428 35.0444 154.125 49.6847 185.241ZM4.24676 176.969C18.1613 211.021 40.7259 242.342 60.8522 273.601C63.982 240.582 46.3868 207.025 34.7246 177.76C21.7253 146.293 7.4836 115.384 -8.00043 85.0348C-11.0373 115.692 -7.41546 147.704 4.24676 176.969ZM-6.60092 64.9747C22.5594 52.7281 47.215 30.9074 72.9271 13.2516C98.6392 -4.40418 124.938 -21.4537 151.213 -37.9127C137.356 -42.4099 120.149 -39.3101 106.599 -36.1154C89.3222 -31.2442 72.5389 -23.4049 58.1241 -13.7308C29.2713 6.20771 8.62705 34.6343 -6.60092 64.9747ZM9.57418 -4.94286C28.6973 -25.725 50.7753 -44.0662 75.1753 -59.3918C43.246 -54.3099 12.8898 -42.6853 -13.455 -24.4549C-30.401 -12.4823 -40.6883 0.845316 -46.941 20.1884C-51.8352 36.0202 -54.2912 51.9154 -54.9185 67.858C-29.6999 47.2341 -12.7361 19.303 9.57418 -4.94286ZM-64.3707 121.991C-65.7238 140.87 -65.1552 157.435 -54.857 174.844C-45.7082 190.449 -32.8556 204.968 -19.9565 218.307C-14.1087 224.763 -7.84687 231.033 -1.1709 237.117C4.12924 241.984 9.3829 248.031 15.3158 252.322C0.458676 226.717 -10.2651 199.447 -16.8554 170.51C-24.0881 137.223 -29.3992 101.62 -54.0015 75.5658C-61.897 90.1376 -63.7434 106.049 -64.3707 121.991Z" fill="#4C886A"/>
<g clip-path="url(#clip4_30_148)">
<path d="M296.158 385.659C287.029 380.007 276.876 370.764 281.453 359.4C286.325 346.884 301.145 339.917 314.337 338.787C324.835 337.89 335.701 340.241 344.359 346.112C352.9 351.945 358.999 361.22 360.096 371.338C360.613 377.012 359.565 383.042 356.125 387.779C352.281 393.258 345.753 396.472 339.034 397.371C332.274 398.381 325.474 397.378 318.961 395.594C310.897 393.421 303.127 390.095 296.158 385.659Z" fill="#CBC1B1"/>
</g>
<g clip-path="url(#clip5_30_148)">
<path d="M202.22 338.627C197.298 335.579 191.824 330.596 194.292 324.469C196.918 317.721 204.909 313.964 212.021 313.355C217.682 312.872 223.54 314.139 228.208 317.305C232.813 320.45 236.102 325.45 236.693 330.905C236.972 333.965 236.406 337.216 234.552 339.77C232.48 342.724 228.96 344.457 225.337 344.941C221.692 345.486 218.026 344.945 214.515 343.983C210.167 342.812 205.978 341.019 202.22 338.627Z" fill="#CBC1B1"/>
</g>
<g clip-path="url(#clip6_30_148)">
<path d="M27.1265 644.659C17.9976 639.007 7.84494 629.764 12.422 618.4C17.2934 605.884 32.1139 598.917 45.3054 597.787C55.8039 596.89 66.6702 599.241 75.3274 605.112C83.8685 610.945 89.9681 620.22 91.0644 630.338C91.5816 636.012 90.5334 642.042 87.0936 646.779C83.2502 652.258 76.7218 655.472 70.0029 656.371C63.2429 657.381 56.4428 656.378 49.93 654.594C41.8659 652.421 34.0961 649.095 27.1265 644.659Z" fill="#CBC1B1"/>
</g>
</g>
<path fill-rule="evenodd" clip-rule="evenodd" d="M1464.63 310.309C1490.47 336.332 1510.69 368.622 1504.94 404.663C1498.73 441.088 1481.34 475.158 1455.61 502.916C1454.18 504.895 1450.81 503.029 1451.42 500.172C1460.85 468.084 1464.7 434.407 1462.48 400.349C1460.71 372.937 1455.41 346.132 1457.57 318.554C1453.48 323.537 1449.12 328.227 1444.48 332.625C1440.46 336.509 1436.61 339.991 1432.93 343.07C1445.12 378.166 1451.48 415.792 1442.62 452.878C1436.06 481.009 1416.86 522.826 1384.46 531.965C1382.67 532.68 1381.04 530.924 1381.6 528.891C1389.8 495.485 1398 462.08 1404.92 428.181C1410.51 401.644 1413.08 374.505 1423.78 349.942C1410.13 359.015 1395.3 365.946 1379.66 371.998C1379.56 373.646 1378.64 374.416 1377.77 374.361C1394.26 396.49 1383.76 424.788 1375.73 448.689C1367.33 478.359 1357.85 504.239 1333.82 525.898C1331.98 527.438 1329.02 526.011 1329.58 523.978C1335.68 496.232 1343.06 468.98 1345.68 441.017C1348 417.998 1354.55 396.899 1365.81 377.335C1363.42 378.289 1361.04 379.242 1358.65 380.196C1351.53 382.508 1344.41 384.819 1337.29 387.131C1341.6 436.625 1328.94 485.469 1301.42 528.006C1300.45 529.599 1297.03 528.558 1297.13 526.91C1291.17 503.786 1293.74 476.646 1300.81 454.338C1307.47 431.591 1312.85 408.351 1328.8 390.322C1318.12 393.79 1308.25 398.136 1298.8 402.921C1305.69 418.243 1300.67 435.716 1297.49 451.649C1293.54 472.911 1288.72 494.119 1281.76 514.778C1281.19 516.811 1277.26 516.979 1277.41 514.506C1276.15 492.918 1276.63 471.438 1277.97 450.013C1279.71 436.058 1280.64 421.225 1287.5 409.245C1285.69 410.235 1283.89 411.225 1282.08 412.215C1281.77 412.471 1281.47 412.728 1281.16 412.985C1279.66 413.718 1278.3 414.598 1277.07 415.624C1277.04 416.173 1276.73 416.43 1276.15 416.394C1275.54 416.907 1274.77 417.548 1273.85 418.318C1274.12 418.611 1274.26 418.757 1274.26 418.757C1279.3 449.682 1271.3 493.855 1246.34 516.283C1244.96 517.438 1242.41 516.451 1242.51 514.802C1239.67 483.601 1239.29 448.004 1260.87 423.709C1260.9 423.16 1261.23 422.629 1261.84 422.116C1264.02 419.77 1266.49 417.443 1269.25 415.134C1248.09 418.773 1228.52 417.961 1206.6 412.865C1182.54 407.222 1154.44 403.394 1132.52 391.266C1130.84 390.333 1131.45 387.476 1133.65 387.2C1160.53 382.679 1188.69 378.652 1215.93 382.426C1227.17 383.957 1238.3 387.136 1248.98 390.701C1261.4 394.374 1267.12 400.523 1276.21 408.538C1276.21 408.538 1276.34 408.684 1276.62 408.977C1277.19 409.013 1277.64 408.903 1277.94 408.647C1283.09 405.384 1288.22 402.396 1293.33 399.683C1293.64 399.426 1293.79 399.298 1293.79 399.298C1274.68 398.101 1257.52 386.685 1239.64 379.774C1229.42 375.825 1219.77 369.843 1209.55 365.894C1198.87 362.33 1187.68 359.975 1177.51 355.202C1174.96 354.214 1176.09 350.148 1178.69 350.312C1206.03 352.437 1235.31 351.376 1260.86 361.248C1276.64 366.787 1298.61 378.09 1304.58 394.183C1312.04 391.065 1319.64 388.094 1327.38 385.269C1303.93 376.769 1282.32 366.729 1260.86 354.217C1235.22 338.961 1202.82 334.036 1173.04 329.275C1170.02 328.673 1170.28 324.552 1173.75 324.77C1209.58 323.704 1250.71 321.317 1285.35 332.173C1305.89 338.423 1335.52 359.72 1335.4 382.463C1346.54 378.61 1357.23 375.143 1367.91 371.675C1355.29 364.267 1341.6 360.1 1328.47 353.901C1316.67 347.371 1307.68 337.708 1296.39 329.969C1267.13 309.935 1230.34 305.563 1195.28 301.3C1192.68 301.136 1192.48 297.401 1195.13 296.74C1215.07 291.784 1231.27 283.699 1252.63 283.795C1272.66 284.223 1292.79 290.033 1311.9 298.262C1343.32 311.812 1375.14 332.832 1379.1 366.999C1395.15 361.386 1410.44 354.07 1424.19 343.35C1423.37 342.471 1422.56 341.593 1421.74 340.714C1382.74 327.517 1344.73 312.452 1307.71 295.518C1277.16 282.022 1240.53 268.146 1221.33 240.471C1220.16 238.329 1222.05 235.966 1224.61 236.953C1266.25 247.42 1311.11 255.193 1349.98 275.001C1380.02 289.705 1405.3 310.73 1425.47 336.812C1426.32 337.141 1427.31 337.616 1428.43 338.238C1429.01 338.274 1429.42 338.714 1429.66 339.556C1430.27 339.043 1430.89 338.53 1431.5 338.017C1439.51 330.797 1447.25 323.284 1454.72 315.479C1422.22 312.203 1394.94 295.19 1368.99 277.846C1337.58 257.265 1305.04 240.749 1268.56 231.433C1266.41 230.885 1266.62 227.588 1268.41 226.873C1284.56 219.612 1309.6 223.662 1326.97 224.75C1348.69 226.11 1371.63 228.788 1392.58 235.477C1410.92 242.003 1422.82 253.917 1435.07 267.093C1446.05 279.777 1456.16 292.406 1460.85 308.004C1504.68 255.734 1524.09 189.526 1521.33 122.342C1521.07 119.431 1526.39 118.109 1526.18 121.406C1528.1 160.408 1523.88 199.854 1509.34 236.999C1499 262.824 1483.45 288.324 1464.63 310.309V310.309ZM1245.25 394.603C1234.16 390.6 1222.56 387.805 1210.86 386.659C1187.92 383.981 1164.62 387.072 1141.72 390.601C1160.37 399.215 1184.13 402.771 1203.9 407.319C1227.1 412.908 1247.94 414.213 1270.43 410.244C1262.57 403.547 1256.39 397.783 1245.25 394.603ZM1269.71 421.781C1245.22 443.825 1244.38 478.105 1246.81 508.867C1266.91 487.375 1273.22 449.301 1269.71 421.781ZM1282.87 455.283C1281.67 469.824 1281.2 484.272 1281.46 498.628C1285.81 484.836 1288.89 470.552 1291.56 455.827C1295.14 440.334 1300.68 421.652 1294.66 406.384C1285.04 420.673 1283.9 438.802 1282.87 455.283V455.283ZM1243.43 360.984C1227.49 357.918 1210.99 356.884 1194.48 355.85C1198.74 357.496 1203.01 358.867 1207.3 359.963C1216.7 363.033 1225.08 368.522 1234.02 371.977C1242.91 376.257 1252.72 379.766 1261.61 384.046C1273.92 389.367 1285.31 395.458 1299.31 394.68C1291.76 376.007 1261.52 364.599 1243.43 360.984V360.984ZM1306.09 349.19C1291.89 339.201 1278.2 335.034 1260.47 332.683C1240.59 329.783 1220.15 328.917 1200.07 329.313C1219.48 332.598 1238.85 336.706 1255.3 345.595C1267.56 351.741 1277.98 359.425 1290.24 365.57C1303.37 371.77 1317.01 376.761 1330.7 380.927C1329.79 367.634 1316.92 357.314 1306.09 349.19V349.19ZM1332.99 393.066C1318.42 409.94 1313.14 431.533 1306.63 451.808C1300.08 472.907 1296.79 497.52 1300.61 520.096C1324.4 481.462 1335.41 437.892 1332.99 393.066V393.066ZM1349.87 450.793C1347.6 472.988 1341.46 494.526 1336.59 516.558C1352.95 498.969 1361.65 478.418 1368.77 455.286C1376.4 430.945 1391.5 398.799 1372.45 375.683C1357.87 399.589 1353.31 423.708 1349.87 450.793ZM1301.37 299.257C1283.49 292.346 1263.72 287.799 1244.04 288.635C1230.91 289.467 1219.71 294.143 1207.7 297.941C1236.67 301.824 1266.46 306.585 1292.11 321.841C1306.87 329.798 1317.39 342.866 1332.2 349.998C1346.61 356.691 1360.71 361.297 1373.74 369.145C1373.74 369.145 1374.02 369.163 1374.6 369.199C1370.34 332.945 1334.58 312.092 1301.37 299.257ZM1340.79 275.666C1306 260.251 1266.81 252.419 1229.46 243.048C1250.95 268.799 1288.1 281.466 1317.78 294.907C1350.03 309.061 1382.79 322.005 1416.07 333.741C1396.21 309.747 1370.47 289.107 1340.79 275.666ZM1429.5 349.06C1416.86 376.809 1414.44 408.508 1408.23 437.902C1402.03 467.296 1394.96 496.636 1387.48 525.536C1400.92 519.76 1411.36 506.349 1419.03 495.248C1428.24 480.519 1434.94 463.98 1438.58 447.662C1445.45 414.587 1440.16 380.751 1429.5 349.06ZM1467.99 409.794C1468.89 437.151 1465.86 464.675 1458.94 491.543C1478.79 467.139 1492.75 439.059 1499.01 408.841C1502.85 389.227 1500.82 372.968 1491.48 355.01C1483.67 340.457 1474.02 327.443 1462.99 315.584C1459.29 346.789 1466.94 377.878 1467.99 409.794ZM1430.93 270.557C1418.32 256.117 1405.96 244.588 1385.83 238.777C1367.85 233.514 1347.92 231.439 1328.81 230.242C1319.85 229.405 1310.72 228.971 1301.42 228.941C1294.01 228.89 1285.78 227.961 1278.32 228.735C1307.71 237.47 1335.27 250.088 1360.98 266.589C1390.3 285.799 1419.87 307.919 1456.76 310.644C1452.07 295.045 1441.96 282.416 1430.93 270.557Z" fill="#4C886A"/>
<g clip-path="url(#clip7_30_148)">
<path d="M663.868 48.7083C680.511 52.6021 700.638 61.3166 700.058 80.4146C699.671 101.367 681.479 118.981 662.513 127.14C647.418 133.629 630.001 135.483 613.938 131.033C598.069 126.583 583.941 115.829 576.781 101.367C572.91 93.2083 571.169 83.7521 573.684 75.0375C576.394 65.025 584.328 57.0521 593.811 52.4166C603.294 47.5958 613.938 45.7416 624.582 45.1854C637.742 44.4437 651.095 45.5562 663.868 48.7083Z" fill="#CBC1B1"/>
</g>
<g clip-path="url(#clip8_30_148)">
<path d="M855.481 91.8334C863.735 93.7584 873.717 98.0667 873.429 107.508C873.237 117.867 864.215 126.575 854.81 130.608C847.323 133.817 838.685 134.733 830.719 132.533C822.849 130.333 815.843 125.017 812.292 117.867C810.372 113.833 809.508 109.158 810.756 104.85C812.1 99.9 816.035 95.9584 820.738 93.6667C825.441 91.2834 830.719 90.3667 835.998 90.0917C842.524 89.725 849.147 90.275 855.481 91.8334Z" fill="#CBC1B1"/>
</g>
<g clip-path="url(#clip9_30_148)">
<path d="M823.704 643.216C827.516 641.024 832.898 639.104 836.47 642.695C840.435 646.591 840.481 652.985 838.564 657.785C837.037 661.605 834.19 664.983 830.378 666.973C826.601 668.93 821.931 669.43 817.827 668.037C815.544 667.221 813.402 665.797 812.186 663.766C810.756 661.463 810.679 658.622 811.531 656.12C812.347 653.584 813.948 651.388 815.799 649.428C818.077 646.996 820.748 644.869 823.704 643.216Z" fill="#CBC1B1"/>
</g>
<g clip-path="url(#clip10_30_148)">
<path d="M891.503 634.342C887.708 621.895 886.037 605.245 900.178 598.008C915.591 589.904 935.667 594.785 949.164 603.944C959.904 611.236 968.193 621.897 971.351 634.186C974.432 646.348 972.228 659.885 964.547 670.341C960.147 676.128 953.954 681.04 946.605 682.869C938.234 685.09 929.266 683.076 922.112 678.718C914.824 674.434 909.233 668.207 904.588 661.462C898.805 653.144 894.296 643.96 891.503 634.342Z" fill="#CBC1B1"/>
</g>
<g clip-path="url(#clip11_30_148)">
<path d="M1062.13 526.659C1053 521.007 1042.84 511.764 1047.42 500.4C1052.29 487.884 1067.11 480.916 1080.31 479.787C1090.8 478.89 1101.67 481.241 1110.33 487.112C1118.87 492.945 1124.97 502.22 1126.06 512.338C1126.58 518.012 1125.53 524.042 1122.09 528.779C1118.25 534.258 1111.72 537.472 1105 538.371C1098.24 539.381 1091.44 538.378 1084.93 536.594C1076.87 534.421 1069.1 531.095 1062.13 526.659Z" fill="#CBC1B1"/>
</g>
<g clip-path="url(#clip12_30_148)">
<path d="M1345.06 109.659C1335.93 104.007 1325.78 94.7638 1330.36 83.4004C1335.23 70.884 1350.05 63.9165 1363.24 62.7868C1373.74 61.89 1384.6 64.2414 1393.26 70.1125C1401.8 75.945 1407.9 85.2202 1409 95.3379C1409.51 101.012 1408.47 107.042 1405.03 111.779C1401.18 117.258 1394.65 120.472 1387.94 121.371C1381.18 122.381 1374.38 121.378 1367.86 119.594C1359.8 117.421 1352.03 114.095 1345.06 109.659Z" fill="#CBC1B1"/>
</g>
<g clip-path="url(#clip13_30_148)">
<path d="M1267.13 707.659C1258 702.007 1247.84 692.764 1252.42 681.4C1257.29 668.884 1272.11 661.916 1285.31 660.787C1295.8 659.89 1306.67 662.241 1315.33 668.112C1323.87 673.945 1329.97 683.22 1331.06 693.338C1331.58 699.012 1330.53 705.042 1327.09 709.779C1323.25 715.258 1316.72 718.472 1310 719.371C1303.24 720.381 1296.44 719.378 1289.93 717.594C1281.87 715.421 1274.1 712.095 1267.13 707.659Z" fill="#CBC1B1"/>
</g>
</g>
<defs>
<clipPath id="clip0_30_148">
<rect width="1440" height="768" fill="white"/>
</clipPath>
<clipPath id="clip1_30_148">
<rect width="104.762" height="200" fill="white" transform="translate(104.762 551) rotate(-180)"/>
</clipPath>
<clipPath id="clip2_30_148">
<rect width="502.644" height="344.838" fill="white" transform="translate(450 195)"/>
</clipPath>
<clipPath id="clip3_30_148">
<rect width="1337.41" height="851.888" fill="white" transform="matrix(-0.315888 -0.948796 0.957932 -0.286994 -70.6357 1206.96)"/>
</clipPath>
<clipPath id="clip4_30_148">
<rect width="80.8506" height="57.8652" fill="white" transform="matrix(-0.962728 -0.319129 0.340546 -0.924463 350.868 406.296)"/>
</clipPath>
<clipPath id="clip5_30_148">
<rect width="43.5915" height="31.1987" fill="white" transform="matrix(-0.962728 -0.319129 0.340546 -0.924463 231.718 349.753)"/>
</clipPath>
<clipPath id="clip6_30_148">
<rect width="82.0021" height="57.0084" fill="white" transform="matrix(-0.949209 -0.314647 0.345664 -0.938358 81.8369 665.296)"/>
</clipPath>
<clipPath id="clip7_30_148">
<rect width="129.663" height="89" fill="white" transform="translate(571.362 45)"/>
</clipPath>
<clipPath id="clip8_30_148">
<rect width="64.3045" height="44" fill="white" transform="translate(809.604 90)"/>
</clipPath>
<clipPath id="clip9_30_148">
<rect width="32.8782" height="23.6312" fill="white" transform="matrix(0.725502 -0.68822 0.725502 0.68822 805.973 658.682)"/>
</clipPath>
<clipPath id="clip10_30_148">
<rect width="99.3538" height="73.9035" fill="white" transform="matrix(-0.519904 -0.854225 0.877073 -0.480356 925.654 696.371)"/>
</clipPath>
<clipPath id="clip11_30_148">
<rect width="82.0021" height="57.0084" fill="white" transform="matrix(-0.949209 -0.314647 0.345664 -0.938358 1116.84 547.296)"/>
</clipPath>
<clipPath id="clip12_30_148">
<rect width="82.0021" height="57.0084" fill="white" transform="matrix(-0.949209 -0.314647 0.345664 -0.938358 1399.77 130.296)"/>
</clipPath>
<clipPath id="clip13_30_148">
<rect width="82.0021" height="57.0084" fill="white" transform="matrix(-0.949209 -0.314647 0.345664 -0.938358 1321.84 728.296)"/>
</clipPath>
</defs>
</svg>
